NotoSerifSinhala-Regular.ufo
<glyph name="exclam.sinh" format="2">
  <advance width="332"/>
  <unicode hex="0021"/>
  <outline>
    <contour>
      <point x="108" y="714" type="line"/>
      <point x="139" y="201" type="line"/>
      <point x="193" y="201" type="line"/>
      <point x="224" y="714" type="line"/>
    </contour>
    <contour>
      <point x="166" y="-7" type="curve" smooth="yes"/>
      <point x="200" y="-7"/>
      <point x="229" y="10"/>
      <point x="229" y="61" type="curve" smooth="yes"/>
      <point x="229" y="113"/>
      <point x="200" y="129"/>
      <point x="166" y="129" type="curve" smooth="yes"/>
      <point x="131" y="129"/>
      <point x="103" y="113"/>
      <point x="103" y="61" type="curve" smooth="yes"/>
      <point x="103" y="10"/>
      <point x="131" y="-7"/>
    </contour>
  </outline>
</glyph>
<glyph name="quotedbl.sinh" format="2">
  <advance width="422"/>
  <unicode hex="0022"/>
  <outline>
    <contour>
      <point x="252" y="799" type="line"/>
      <point x="282" y="564" type="line"/>
      <point x="328" y="564" type="line"/>
      <point x="358" y="799" type="line"/>
    </contour>
    <contour>
      <point x="64" y="799" type="line"/>
      <point x="94" y="564" type="line"/>
      <point x="140" y="564" type="line"/>
      <point x="170" y="799" type="line"/>
    </contour>
  </outline>
</glyph>
<glyph name="numbersign.sinh" format="2">
  <advance width="572"/>
  <unicode hex="0023"/>
  <outline>
    <contour>
      <point x="121" y="203" type="line"/>
      <point x="83" y="0" type="line"/>
      <point x="143" y="0" type="line"/>
      <point x="181" y="203" type="line"/>
      <point x="325" y="203" type="line"/>
      <point x="287" y="0" type="line"/>
      <point x="347" y="0" type="line"/>
      <point x="385" y="203" type="line"/>
      <point x="511" y="203" type="line"/>
      <point x="511" y="262" type="line"/>
      <point x="397" y="262" type="line"/>
      <point x="434" y="458" type="line"/>
      <point x="543" y="458" type="line"/>
      <point x="543" y="517" type="line"/>
      <point x="445" y="517" type="line"/>
      <point x="482" y="714" type="line"/>
      <point x="422" y="714" type="line"/>
      <point x="385" y="517" type="line"/>
      <point x="241" y="517" type="line"/>
      <point x="278" y="714" type="line"/>
      <point x="218" y="714" type="line"/>
      <point x="181" y="517" type="line"/>
      <point x="61" y="517" type="line"/>
      <point x="61" y="458" type="line"/>
      <point x="170" y="458" type="line"/>
      <point x="132" y="262" type="line"/>
      <point x="29" y="262" type="line"/>
      <point x="29" y="203" type="line"/>
    </contour>
    <contour>
      <point x="337" y="262" type="line"/>
      <point x="193" y="262" type="line"/>
      <point x="230" y="458" type="line"/>
      <point x="374" y="458" type="line"/>
    </contour>
  </outline>
</glyph>
<glyph name="percent.sinh" format="2">
  <advance width="904"/>
  <unicode hex="0025"/>
  <outline>
    <contour>
      <point x="596" y="714" type="line"/>
      <point x="239" y="0" type="line"/>
      <point x="305" y="0" type="line"/>
      <point x="661" y="714" type="line"/>
    </contour>
    <contour>
      <point x="213" y="280" type="curve" smooth="yes"/>
      <point x="323" y="280"/>
      <point x="377" y="369"/>
      <point x="377" y="503" type="curve" smooth="yes"/>
      <point x="377" y="637"/>
      <point x="323" y="724"/>
      <point x="214" y="724" type="curve" smooth="yes"/>
      <point x="98" y="724"/>
      <point x="49" y="637"/>
      <point x="49" y="503" type="curve" smooth="yes"/>
      <point x="49" y="369"/>
      <point x="98" y="280"/>
    </contour>
    <contour>
      <point x="213" y="321" type="curve" smooth="yes"/>
      <point x="156" y="321"/>
      <point x="135" y="388"/>
      <point x="135" y="503" type="curve" smooth="yes"/>
      <point x="135" y="616"/>
      <point x="156" y="682"/>
      <point x="214" y="682" type="curve" smooth="yes"/>
      <point x="271" y="682"/>
      <point x="290" y="616"/>
      <point x="290" y="503" type="curve" smooth="yes"/>
      <point x="290" y="388"/>
      <point x="271" y="321"/>
    </contour>
    <contour>
      <point x="691" y="-10" type="curve" smooth="yes"/>
      <point x="801" y="-10"/>
      <point x="855" y="79"/>
      <point x="855" y="213" type="curve" smooth="yes"/>
      <point x="855" y="347"/>
      <point x="801" y="434"/>
      <point x="692" y="434" type="curve" smooth="yes"/>
      <point x="576" y="434"/>
      <point x="527" y="347"/>
      <point x="527" y="213" type="curve" smooth="yes"/>
      <point x="527" y="79"/>
      <point x="576" y="-10"/>
    </contour>
    <contour>
      <point x="691" y="31" type="curve" smooth="yes"/>
      <point x="634" y="31"/>
      <point x="613" y="98"/>
      <point x="613" y="213" type="curve" smooth="yes"/>
      <point x="613" y="326"/>
      <point x="634" y="392"/>
      <point x="692" y="392" type="curve" smooth="yes"/>
      <point x="749" y="392"/>
      <point x="768" y="326"/>
      <point x="768" y="213" type="curve" smooth="yes"/>
      <point x="768" y="98"/>
      <point x="749" y="31"/>
    </contour>
  </outline>
</glyph>
<glyph name="quotesingle.sinh" format="2">
  <advance width="240"/>
  <unicode hex="0027"/>
  <outline>
    <contour>
      <point x="64" y="799" type="line"/>
      <point x="97" y="564" type="line"/>
      <point x="143" y="564" type="line"/>
      <point x="176" y="799" type="line"/>
    </contour>
  </outline>
</glyph>
<glyph name="parenleft.sinh" format="2">
  <advance width="391"/>
  <unicode hex="0028"/>
  <outline>
    <contour>
      <point x="359" y="-264" type="curve"/>
      <point x="359" y="-218" type="line"/>
      <point x="199" y="-138"/>
      <point x="151" y="26"/>
      <point x="151" y="269" type="curve" smooth="yes"/>
      <point x="151" y="514"/>
      <point x="199" y="678"/>
      <point x="359" y="758" type="curve"/>
      <point x="359" y="804" type="line"/>
      <point x="167" y="739"/>
      <point x="57" y="582"/>
      <point x="57" y="269" type="curve" smooth="yes"/>
      <point x="57" y="-42"/>
      <point x="167" y="-199"/>
    </contour>
  </outline>
</glyph>
<glyph name="parenright.sinh" format="2">
  <advance width="391"/>
  <unicode hex="0029"/>
  <outline>
    <contour>
      <point x="32" y="804" type="curve"/>
      <point x="32" y="758" type="line"/>
      <point x="192" y="678"/>
      <point x="240" y="514"/>
      <point x="240" y="271" type="curve" smooth="yes"/>
      <point x="240" y="26"/>
      <point x="192" y="-138"/>
      <point x="32" y="-218" type="curve"/>
      <point x="32" y="-264" type="line"/>
      <point x="224" y="-199"/>
      <point x="334" y="-42"/>
      <point x="334" y="271" type="curve" smooth="yes"/>
      <point x="334" y="581"/>
      <point x="224" y="739"/>
    </contour>
  </outline>
</glyph>
<glyph name="asterisk.sinh" format="2">
  <advance width="514"/>
  <unicode hex="002A"/>
  <outline>
    <contour>
      <point x="239" y="575" type="line"/>
      <point x="214" y="417" type="line"/>
      <point x="301" y="417" type="line"/>
      <point x="273" y="575" type="line"/>
      <point x="428" y="482" type="line"/>
      <point x="463" y="559" type="line"/>
      <point x="294" y="608" type="line"/>
      <point x="463" y="657" type="line"/>
      <point x="428" y="735" type="line"/>
      <point x="273" y="641" type="line"/>
      <point x="301" y="799" type="line"/>
      <point x="214" y="799" type="line"/>
      <point x="240" y="640" type="line"/>
      <point x="86" y="737" type="line"/>
      <point x="51" y="658" type="line"/>
      <point x="219" y="608" type="line"/>
      <point x="51" y="558" type="line"/>
      <point x="86" y="480" type="line"/>
    </contour>
  </outline>
</glyph>
<glyph name="plus.sinh" format="2">
  <advance width="559"/>
  <unicode hex="002B"/>
  <outline>
    <contour>
      <point x="249" y="328" type="line"/>
      <point x="249" y="143" type="line"/>
      <point x="309" y="143" type="line"/>
      <point x="309" y="328" type="line"/>
      <point x="494" y="328" type="line"/>
      <point x="494" y="387" type="line"/>
      <point x="309" y="387" type="line"/>
      <point x="309" y="572" type="line"/>
      <point x="249" y="572" type="line"/>
      <point x="249" y="387" type="line"/>
      <point x="65" y="387" type="line"/>
      <point x="65" y="328" type="line"/>
    </contour>
  </outline>
</glyph>
<glyph name="comma.sinh" format="2">
  <advance width="270"/>
  <unicode hex="002C"/>
  <outline>
    <contour>
      <point x="134" y="129" type="curve" smooth="yes"/>
      <point x="97" y="129"/>
      <point x="69" y="108"/>
      <point x="69" y="70" type="curve" smooth="yes"/>
      <point x="69" y="9"/>
      <point x="142" y="18"/>
      <point x="142" y="-22" type="curve" smooth="yes"/>
      <point x="142" y="-61"/>
      <point x="112" y="-91"/>
      <point x="47" y="-112" type="curve"/>
      <point x="47" y="-154" type="line"/>
      <point x="166" y="-119"/>
      <point x="211" y="-43"/>
      <point x="211" y="35" type="curve" smooth="yes"/>
      <point x="211" y="98"/>
      <point x="175" y="129"/>
    </contour>
  </outline>
</glyph>
<glyph name="period.sinh" format="2">
  <advance width="270"/>
  <unicode hex="002E"/>
  <outline>
    <contour>
      <point x="135" y="-7" type="curve" smooth="yes"/>
      <point x="169" y="-7"/>
      <point x="198" y="10"/>
      <point x="198" y="61" type="curve" smooth="yes"/>
      <point x="198" y="113"/>
      <point x="169" y="129"/>
      <point x="135" y="129" type="curve" smooth="yes"/>
      <point x="100" y="129"/>
      <point x="72" y="113"/>
      <point x="72" y="61" type="curve" smooth="yes"/>
      <point x="72" y="10"/>
      <point x="100" y="-7"/>
    </contour>
  </outline>
</glyph>
<glyph name="zero.sinh" format="2">
  <advance width="559"/>
  <unicode hex="0030"/>
  <outline>
    <contour>
      <point x="280" y="-10" type="curve" smooth="yes"/>
      <point x="437" y="-10"/>
      <point x="514" y="137"/>
      <point x="514" y="358" type="curve" smooth="yes"/>
      <point x="514" y="580"/>
      <point x="437" y="724"/>
      <point x="281" y="724" type="curve" smooth="yes"/>
      <point x="115" y="724"/>
      <point x="45" y="580"/>
      <point x="45" y="359" type="curve" smooth="yes"/>
      <point x="45" y="137"/>
      <point x="115" y="-10"/>
    </contour>
    <contour>
      <point x="280" y="44" type="curve" smooth="yes"/>
      <point x="178" y="44"/>
      <point x="142" y="160"/>
      <point x="142" y="358" type="curve" smooth="yes"/>
      <point x="142" y="556"/>
      <point x="178" y="670"/>
      <point x="281" y="670" type="curve" smooth="yes"/>
      <point x="382" y="670"/>
      <point x="417" y="556"/>
      <point x="417" y="358" type="curve" smooth="yes"/>
      <point x="417" y="160"/>
      <point x="382" y="44"/>
    </contour>
  </outline>
</glyph>
<glyph name="one.sinh" format="2">
  <advance width="559"/>
  <unicode hex="0031"/>
  <outline>
    <contour>
      <point x="98" y="42" type="line"/>
      <point x="98" y="0" type="line"/>
      <point x="479" y="0" type="line"/>
      <point x="479" y="42" type="line"/>
      <point x="427" y="42" type="line" smooth="yes"/>
      <point x="382" y="42"/>
      <point x="345" y="51"/>
      <point x="345" y="114" type="curve" smooth="yes"/>
      <point x="345" y="718" type="line"/>
      <point x="284" y="718" type="line"/>
      <point x="214" y="666" type="line" smooth="yes"/>
      <point x="148" y="617"/>
      <point x="108" y="599"/>
      <point x="68" y="589" type="curve"/>
      <point x="68" y="557"/>
      <point x="89" y="535"/>
      <point x="118" y="535" type="curve" smooth="yes"/>
      <point x="158" y="535"/>
      <point x="200" y="578"/>
      <point x="251" y="640" type="curve"/>
      <point x="251" y="114" type="line" smooth="yes"/>
      <point x="251" y="51"/>
      <point x="214" y="42"/>
      <point x="169" y="42" type="curve" smooth="yes"/>
    </contour>
  </outline>
</glyph>
<glyph name="two.sinh" format="2">
  <advance width="559"/>
  <unicode hex="0032"/>
  <outline>
    <contour>
      <point x="51" y="73" type="line"/>
      <point x="51" y="0" type="line"/>
      <point x="481" y="0" type="line"/>
      <point x="486" y="173" type="line"/>
      <point x="444" y="173" type="line"/>
      <point x="440" y="155" type="line" smooth="yes"/>
      <point x="430" y="113"/>
      <point x="424" y="80"/>
      <point x="356" y="80" type="curve" smooth="yes"/>
      <point x="125" y="80" type="line"/>
      <point x="294" y="267" type="line" smooth="yes"/>
      <point x="399" y="383"/>
      <point x="461" y="464"/>
      <point x="461" y="557" type="curve" smooth="yes"/>
      <point x="461" y="658"/>
      <point x="384" y="724"/>
      <point x="258" y="724" type="curve" smooth="yes"/>
      <point x="129" y="724"/>
      <point x="62" y="667"/>
      <point x="62" y="590" type="curve" smooth="yes"/>
      <point x="62" y="539"/>
      <point x="95" y="525"/>
      <point x="143" y="525" type="curve"/>
      <point x="143" y="604"/>
      <point x="166" y="672"/>
      <point x="258" y="672" type="curve" smooth="yes"/>
      <point x="331" y="672"/>
      <point x="364" y="620"/>
      <point x="364" y="547" type="curve" smooth="yes"/>
      <point x="364" y="455"/>
      <point x="330" y="396"/>
      <point x="218" y="266" type="curve" smooth="yes"/>
    </contour>
  </outline>
</glyph>
<glyph name="three.sinh" format="2">
  <advance width="559"/>
  <unicode hex="0033"/>
  <outline>
    <contour>
      <point x="244" y="-10" type="curve"/>
      <point x="359" y="-10"/>
      <point x="498" y="43"/>
      <point x="498" y="200" type="curve" smooth="yes"/>
      <point x="498" y="336"/>
      <point x="387" y="373"/>
      <point x="313" y="381" type="curve"/>
      <point x="405" y="403"/>
      <point x="472" y="475"/>
      <point x="472" y="565" type="curve" smooth="yes"/>
      <point x="472" y="666"/>
      <point x="389" y="724"/>
      <point x="263" y="724" type="curve" smooth="yes"/>
      <point x="139" y="724"/>
      <point x="67" y="667"/>
      <point x="67" y="590" type="curve" smooth="yes"/>
      <point x="67" y="539"/>
      <point x="101" y="525"/>
      <point x="149" y="525" type="curve"/>
      <point x="149" y="604"/>
      <point x="172" y="672"/>
      <point x="263" y="672" type="curve" smooth="yes"/>
      <point x="344" y="672"/>
      <point x="375" y="628"/>
      <point x="375" y="550" type="curve" smooth="yes"/>
      <point x="375" y="455"/>
      <point x="307" y="395"/>
      <point x="213" y="395" type="curve"/>
      <point x="181" y="395" type="line"/>
      <point x="181" y="344" type="line"/>
      <point x="213" y="344" type="line" smooth="yes"/>
      <point x="333" y="344"/>
      <point x="400" y="289"/>
      <point x="400" y="198" type="curve" smooth="yes"/>
      <point x="400" y="83"/>
      <point x="335" y="44"/>
      <point x="245" y="44" type="curve" smooth="yes"/>
      <point x="159" y="44"/>
      <point x="118" y="95"/>
      <point x="118" y="165" type="curve"/>
      <point x="80" y="165"/>
      <point x="55" y="141"/>
      <point x="55" y="101" type="curve" smooth="yes"/>
      <point x="55" y="42"/>
      <point x="112" y="-10"/>
    </contour>
  </outline>
</glyph>
<glyph name="four.sinh" format="2">
  <advance width="559"/>
  <unicode hex="0034"/>
  <outline>
    <contour>
      <point x="215" y="42" type="line"/>
      <point x="215" y="0" type="line"/>
      <point x="516" y="0" type="line"/>
      <point x="516" y="42" type="line"/>
      <point x="501" y="42" type="line" smooth="yes"/>
      <point x="456" y="42"/>
      <point x="419" y="51"/>
      <point x="419" y="114" type="curve" smooth="yes"/>
      <point x="419" y="196" type="line"/>
      <point x="545" y="196" type="line"/>
      <point x="545" y="252" type="line"/>
      <point x="419" y="252" type="line"/>
      <point x="419" y="714" type="line"/>
      <point x="326" y="714" type="line"/>
      <point x="17" y="237" type="line"/>
      <point x="17" y="196" type="line"/>
      <point x="328" y="196" type="line"/>
      <point x="328" y="114" type="line" smooth="yes"/>
      <point x="328" y="51"/>
      <point x="291" y="42"/>
      <point x="246" y="42" type="curve" smooth="yes"/>
    </contour>
    <contour>
      <point x="328" y="252" type="line"/>
      <point x="89" y="252" type="line"/>
      <point x="242" y="490" type="line" smooth="yes"/>
      <point x="265" y="526"/>
      <point x="322" y="622"/>
      <point x="335" y="649" type="curve"/>
      <point x="330" y="587"/>
      <point x="328" y="495"/>
      <point x="328" y="437" type="curve" smooth="yes"/>
    </contour>
  </outline>
</glyph>
<glyph name="five.sinh" format="2">
  <advance width="559"/>
  <unicode hex="0035"/>
  <outline>
    <contour>
      <point x="245" y="-10" type="curve" smooth="yes"/>
      <point x="398" y="-10"/>
      <point x="487" y="82"/>
      <point x="487" y="218" type="curve" smooth="yes"/>
      <point x="487" y="359"/>
      <point x="388" y="429"/>
      <point x="259" y="429" type="curve" smooth="yes"/>
      <point x="200" y="429"/>
      <point x="162" y="420"/>
      <point x="142" y="413" type="curve"/>
      <point x="161" y="633" type="line"/>
      <point x="355" y="633" type="line" smooth="yes"/>
      <point x="397" y="633"/>
      <point x="406" y="620"/>
      <point x="409" y="592" type="curve" smooth="yes"/>
      <point x="413" y="562" type="line"/>
      <point x="455" y="562" type="line"/>
      <point x="450" y="713" type="line"/>
      <point x="116" y="713" type="line"/>
      <point x="84" y="359" type="line"/>
      <point x="108" y="352" type="line"/>
      <point x="133" y="363"/>
      <point x="166" y="374"/>
      <point x="233" y="374" type="curve" smooth="yes"/>
      <point x="330" y="374"/>
      <point x="390" y="323"/>
      <point x="390" y="217" type="curve" smooth="yes"/>
      <point x="390" y="86"/>
      <point x="328" y="44"/>
      <point x="240" y="44" type="curve" smooth="yes"/>
      <point x="156" y="44"/>
      <point x="116" y="93"/>
      <point x="116" y="150" type="curve"/>
      <point x="73" y="150"/>
      <point x="56" y="128"/>
      <point x="56" y="91" type="curve" smooth="yes"/>
      <point x="56" y="46"/>
      <point x="97" y="-10"/>
    </contour>
  </outline>
</glyph>
<glyph name="six.sinh" format="2">
  <advance width="559"/>
  <unicode hex="0036"/>
  <outline>
    <contour>
      <point x="293" y="-10" type="curve" smooth="yes"/>
      <point x="429" y="-10"/>
      <point x="508" y="88"/>
      <point x="508" y="226" type="curve" smooth="yes"/>
      <point x="508" y="357"/>
      <point x="429" y="434"/>
      <point x="313" y="434" type="curve" smooth="yes"/>
      <point x="243" y="434"/>
      <point x="189" y="406"/>
      <point x="156" y="380" type="curve"/>
      <point x="163" y="576"/>
      <point x="220" y="672"/>
      <point x="322" y="672" type="curve" smooth="yes"/>
      <point x="389" y="672"/>
      <point x="413" y="624"/>
      <point x="413" y="559" type="curve"/>
      <point x="463" y="559"/>
      <point x="487" y="581"/>
      <point x="487" y="619" type="curve" smooth="yes"/>
      <point x="487" y="673"/>
      <point x="433" y="724"/>
      <point x="326" y="724" type="curve" smooth="yes"/>
      <point x="148" y="724"/>
      <point x="61" y="550"/>
      <point x="61" y="356" type="curve" smooth="yes"/>
      <point x="61" y="97"/>
      <point x="160" y="-10"/>
    </contour>
    <contour>
      <point x="296" y="44" type="curve" smooth="yes"/>
      <point x="212" y="44"/>
      <point x="157" y="123"/>
      <point x="155" y="323" type="curve"/>
      <point x="182" y="351"/>
      <point x="235" y="383"/>
      <point x="292" y="383" type="curve" smooth="yes"/>
      <point x="372" y="383"/>
      <point x="412" y="333"/>
      <point x="412" y="219" type="curve" smooth="yes"/>
      <point x="412" y="98"/>
      <point x="372" y="44"/>
    </contour>
  </outline>
</glyph>
<glyph name="seven.sinh" format="2">
  <advance width="559"/>
  <unicode hex="0037"/>
  <outline>
    <contour>
      <point x="422" y="633" type="line"/>
      <point x="186" y="0" type="line"/>
      <point x="261" y="0" type="line"/>
      <point x="507" y="684" type="line"/>
      <point x="507" y="713" type="line"/>
      <point x="60" y="713" type="line"/>
      <point x="55" y="532" type="line"/>
      <point x="97" y="532" type="line"/>
      <point x="101" y="582" type="line"/>
      <point x="104" y="615"/>
      <point x="123" y="633"/>
      <point x="159" y="633" type="curve"/>
    </contour>
  </outline>
</glyph>
<glyph name="eight.sinh" format="2">
  <advance width="559"/>
  <unicode hex="0038"/>
  <outline>
    <contour>
      <point x="273" y="-10" type="curve" smooth="yes"/>
      <point x="419" y="-10"/>
      <point x="513" y="64"/>
      <point x="513" y="191" type="curve" smooth="yes"/>
      <point x="513" y="278"/>
      <point x="444" y="335"/>
      <point x="345" y="382" type="curve"/>
      <point x="426" y="422"/>
      <point x="486" y="468"/>
      <point x="486" y="556" type="curve" smooth="yes"/>
      <point x="486" y="656"/>
      <point x="415" y="724"/>
      <point x="281" y="724" type="curve" smooth="yes"/>
      <point x="133" y="724"/>
      <point x="70" y="637"/>
      <point x="70" y="545" type="curve" smooth="yes"/>
      <point x="70" y="461"/>
      <point x="124" y="407"/>
      <point x="200" y="364" type="curve"/>
      <point x="113" y="322"/>
      <point x="46" y="275"/>
      <point x="46" y="172" type="curve" smooth="yes"/>
      <point x="46" y="71"/>
      <point x="123" y="-10"/>
    </contour>
    <contour>
      <point x="278" y="40" type="curve" smooth="yes"/>
      <point x="189" y="40"/>
      <point x="138" y="87"/>
      <point x="138" y="175" type="curve" smooth="yes"/>
      <point x="138" y="250"/>
      <point x="185" y="306"/>
      <point x="248" y="340" type="curve"/>
      <point x="377" y="284"/>
      <point x="425" y="237"/>
      <point x="425" y="169" type="curve" smooth="yes"/>
      <point x="425" y="85"/>
      <point x="371" y="40"/>
    </contour>
    <contour>
      <point x="296" y="405" type="curve"/>
      <point x="207" y="446"/>
      <point x="157" y="485"/>
      <point x="157" y="557" type="curve" smooth="yes"/>
      <point x="157" y="626"/>
      <point x="202" y="675"/>
      <point x="279" y="675" type="curve" smooth="yes"/>
      <point x="363" y="675"/>
      <point x="398" y="618"/>
      <point x="398" y="554" type="curve" smooth="yes"/>
      <point x="398" y="484"/>
      <point x="371" y="442"/>
    </contour>
  </outline>
</glyph>
<glyph name="nine.sinh" format="2">
  <advance width="559"/>
  <unicode hex="0039"/>
  <outline>
    <contour>
      <point x="227" y="-11" type="curve"/>
      <point x="421" y="-11"/>
      <point x="498" y="178"/>
      <point x="498" y="388" type="curve"/>
      <point x="498" y="623"/>
      <point x="400" y="724"/>
      <point x="265" y="724" type="curve" smooth="yes"/>
      <point x="131" y="724"/>
      <point x="51" y="622"/>
      <point x="51" y="478" type="curve" smooth="yes"/>
      <point x="51" y="343"/>
      <point x="132" y="275"/>
      <point x="248" y="275" type="curve" smooth="yes"/>
      <point x="318" y="275"/>
      <point x="373" y="311"/>
      <point x="402" y="346" type="curve"/>
      <point x="395" y="139"/>
      <point x="341" y="44"/>
      <point x="228" y="44" type="curve" smooth="yes"/>
      <point x="165" y="44"/>
      <point x="130" y="81"/>
      <point x="112" y="123" type="curve"/>
      <point x="97" y="118"/>
      <point x="82" y="100"/>
      <point x="82" y="75" type="curve" smooth="yes"/>
      <point x="82" y="33"/>
      <point x="114" y="-11"/>
    </contour>
    <contour>
      <point x="270" y="334" type="curve"/>
      <point x="187" y="334"/>
      <point x="146" y="378"/>
      <point x="146" y="488" type="curve" smooth="yes"/>
      <point x="146" y="607"/>
      <point x="188" y="671"/>
      <point x="265" y="671" type="curve" smooth="yes"/>
      <point x="349" y="671"/>
      <point x="398" y="601"/>
      <point x="403" y="418" type="curve"/>
      <point x="385" y="375"/>
      <point x="336" y="335"/>
    </contour>
  </outline>
</glyph>
<glyph name="colon.sinh" format="2">
  <advance width="287"/>
  <unicode hex="003A"/>
  <outline>
    <contour>
      <point x="144" y="391" type="curve" smooth="yes"/>
      <point x="178" y="391"/>
      <point x="207" y="408"/>
      <point x="207" y="459" type="curve" smooth="yes"/>
      <point x="207" y="511"/>
      <point x="178" y="527"/>
      <point x="144" y="527" type="curve" smooth="yes"/>
      <point x="109" y="527"/>
      <point x="81" y="511"/>
      <point x="81" y="459" type="curve" smooth="yes"/>
      <point x="81" y="408"/>
      <point x="109" y="391"/>
    </contour>
    <contour>
      <point x="144" y="-7" type="curve" smooth="yes"/>
      <point x="178" y="-7"/>
      <point x="207" y="10"/>
      <point x="207" y="61" type="curve" smooth="yes"/>
      <point x="207" y="113"/>
      <point x="178" y="129"/>
      <point x="144" y="129" type="curve" smooth="yes"/>
      <point x="109" y="129"/>
      <point x="81" y="113"/>
      <point x="81" y="61" type="curve" smooth="yes"/>
      <point x="81" y="10"/>
      <point x="109" y="-7"/>
    </contour>
  </outline>
</glyph>
<glyph name="semicolon.sinh" format="2">
  <advance width="287"/>
  <unicode hex="003B"/>
  <outline>
    <contour>
      <point x="144" y="391" type="curve" smooth="yes"/>
      <point x="178" y="391"/>
      <point x="207" y="408"/>
      <point x="207" y="459" type="curve" smooth="yes"/>
      <point x="207" y="511"/>
      <point x="178" y="527"/>
      <point x="144" y="527" type="curve" smooth="yes"/>
      <point x="109" y="527"/>
      <point x="81" y="511"/>
      <point x="81" y="459" type="curve" smooth="yes"/>
      <point x="81" y="408"/>
      <point x="109" y="391"/>
    </contour>
    <component base="comma.sinh" xOffset="6"/>
  </outline>
</glyph>
<glyph name="less.sinh" format="2">
  <advance width="559"/>
  <unicode hex="003C"/>
  <outline>
    <contour>
      <point x="65" y="340" type="line"/>
      <point x="494" y="110" type="line"/>
      <point x="494" y="177" type="line"/>
      <point x="155" y="357" type="line"/>
      <point x="494" y="539" type="line"/>
      <point x="494" y="606" type="line"/>
      <point x="65" y="375" type="line"/>
    </contour>
  </outline>
</glyph>
<glyph name="greater.sinh" format="2">
  <advance width="559"/>
  <unicode hex="003E"/>
  <outline>
    <contour>
      <point x="65" y="177" type="line"/>
      <point x="65" y="110" type="line"/>
      <point x="494" y="341" type="line"/>
      <point x="494" y="376" type="line"/>
      <point x="65" y="606" type="line"/>
      <point x="65" y="539" type="line"/>
      <point x="404" y="359" type="line"/>
    </contour>
  </outline>
</glyph>
<glyph name="question.sinh" format="2">
  <advance width="474"/>
  <unicode hex="003F"/>
  <outline>
    <contour>
      <point x="220" y="724" type="curve" smooth="yes"/>
      <point x="93" y="724"/>
      <point x="33" y="674"/>
      <point x="33" y="609" type="curve" smooth="yes"/>
      <point x="33" y="568"/>
      <point x="68" y="546"/>
      <point x="116" y="546" type="curve"/>
      <point x="116" y="615"/>
      <point x="145" y="675"/>
      <point x="228" y="675" type="curve" smooth="yes"/>
      <point x="306" y="675"/>
      <point x="339" y="629"/>
      <point x="339" y="560" type="curve" smooth="yes"/>
      <point x="339" y="480"/>
      <point x="303" y="401"/>
      <point x="184" y="353" type="curve"/>
      <point x="188" y="201" type="line"/>
      <point x="242" y="201" type="line"/>
      <point x="245" y="314" type="line"/>
      <point x="364" y="365"/>
      <point x="436" y="433"/>
      <point x="436" y="543" type="curve" smooth="yes"/>
      <point x="436" y="657"/>
      <point x="346" y="724"/>
    </contour>
    <contour>
      <point x="213" y="-7" type="curve" smooth="yes"/>
      <point x="247" y="-7"/>
      <point x="276" y="10"/>
      <point x="276" y="61" type="curve" smooth="yes"/>
      <point x="276" y="113"/>
      <point x="247" y="129"/>
      <point x="213" y="129" type="curve" smooth="yes"/>
      <point x="178" y="129"/>
      <point x="150" y="113"/>
      <point x="150" y="61" type="curve" smooth="yes"/>
      <point x="150" y="10"/>
      <point x="178" y="-7"/>
    </contour>
  </outline>
</glyph>
<glyph name="bracketleft.sinh" format="2">
  <advance width="353"/>
  <unicode hex="005B"/>
  <outline>
    <contour>
      <point x="93" y="799" type="line"/>
      <point x="93" y="-259" type="line"/>
      <point x="311" y="-259" type="line"/>
      <point x="311" y="-217" type="line"/>
      <point x="259" y="-217" type="line" smooth="yes"/>
      <point x="214" y="-217"/>
      <point x="181" y="-208"/>
      <point x="181" y="-145" type="curve" smooth="yes"/>
      <point x="181" y="685" type="line" smooth="yes"/>
      <point x="181" y="748"/>
      <point x="214" y="757"/>
      <point x="259" y="757" type="curve" smooth="yes"/>
      <point x="311" y="757" type="line"/>
      <point x="311" y="799" type="line"/>
    </contour>
  </outline>
</glyph>
<glyph name="backslash.sinh" format="2">
  <advance width="423"/>
  <unicode hex="005C"/>
  <outline>
    <contour>
      <point x="387" y="-259" type="line"/>
      <point x="99" y="799" type="line"/>
      <point x="36" y="799" type="line"/>
      <point x="324" y="-259" type="line"/>
    </contour>
  </outline>
</glyph>
<glyph name="braceleft.sinh" format="2">
  <advance width="414"/>
  <unicode hex="007B"/>
  <outline>
    <contour>
      <point x="372" y="-259" type="line"/>
      <point x="372" y="-216" type="line"/>
      <point x="329" y="-216" type="line" smooth="yes"/>
      <point x="270" y="-216"/>
      <point x="247" y="-179"/>
      <point x="247" y="-111" type="curve" smooth="yes"/>
      <point x="247" y="137" type="line" smooth="yes"/>
      <point x="247" y="212"/>
      <point x="217" y="257"/>
      <point x="141" y="270" type="curve"/>
      <point x="141" y="271" type="line"/>
      <point x="215" y="283"/>
      <point x="247" y="329"/>
      <point x="247" y="402" type="curve" smooth="yes"/>
      <point x="247" y="651" type="line" smooth="yes"/>
      <point x="247" y="720"/>
      <point x="270" y="756"/>
      <point x="329" y="756" type="curve" smooth="yes"/>
      <point x="372" y="756" type="line"/>
      <point x="372" y="799" type="line"/>
      <point x="302" y="799" type="line" smooth="yes"/>
      <point x="208" y="799"/>
      <point x="158" y="747"/>
      <point x="158" y="656" type="curve" smooth="yes"/>
      <point x="158" y="396" type="line" smooth="yes"/>
      <point x="158" y="315"/>
      <point x="106" y="293"/>
      <point x="40" y="291" type="curve"/>
      <point x="40" y="249" type="line"/>
      <point x="106" y="246"/>
      <point x="158" y="225"/>
      <point x="158" y="143" type="curve" smooth="yes"/>
      <point x="158" y="-115" type="line" smooth="yes"/>
      <point x="158" y="-203"/>
      <point x="208" y="-259"/>
      <point x="302" y="-259" type="curve" smooth="yes"/>
    </contour>
  </outline>
</glyph>
<glyph name="braceright.sinh" format="2">
  <advance width="414"/>
  <unicode hex="007D"/>
  <outline>
    <contour>
      <point x="42" y="799" type="line"/>
      <point x="42" y="756" type="line"/>
      <point x="85" y="756" type="line" smooth="yes"/>
      <point x="144" y="756"/>
      <point x="167" y="719"/>
      <point x="167" y="651" type="curve" smooth="yes"/>
      <point x="167" y="403" type="line" smooth="yes"/>
      <point x="167" y="328"/>
      <point x="197" y="283"/>
      <point x="273" y="270" type="curve"/>
      <point x="273" y="269" type="line"/>
      <point x="199" y="257"/>
      <point x="167" y="211"/>
      <point x="167" y="138" type="curve" smooth="yes"/>
      <point x="167" y="-111" type="line" smooth="yes"/>
      <point x="167" y="-180"/>
      <point x="144" y="-216"/>
      <point x="85" y="-216" type="curve" smooth="yes"/>
      <point x="42" y="-216" type="line"/>
      <point x="42" y="-259" type="line"/>
      <point x="112" y="-259" type="line" smooth="yes"/>
      <point x="206" y="-259"/>
      <point x="256" y="-207"/>
      <point x="256" y="-116" type="curve" smooth="yes"/>
      <point x="256" y="144" type="line" smooth="yes"/>
      <point x="256" y="225"/>
      <point x="308" y="247"/>
      <point x="374" y="249" type="curve"/>
      <point x="374" y="291" type="line"/>
      <point x="308" y="294"/>
      <point x="256" y="315"/>
      <point x="256" y="397" type="curve" smooth="yes"/>
      <point x="256" y="655" type="line" smooth="yes"/>
      <point x="256" y="743"/>
      <point x="206" y="799"/>
      <point x="112" y="799" type="curve"/>
    </contour>
  </outline>
</glyph>
<glyph name="danda.sinh" format="2">
  <advance width="337"/>
  <unicode hex="0964"/>
  <outline>
    <contour>
      <point x="191" y="662" type="line"/>
      <point x="191" y="-65" type="line"/>
      <point x="255" y="-65" type="line"/>
      <point x="255" y="662" type="line"/>
    </contour>
  </outline>
</glyph>
<glyph name="anusvarasinh" format="2">
  <advance width="470"/>
  <unicode hex="0D82"/>
  <outline>
    <contour>
      <point x="32" y="272" type="curve" smooth="yes"/>
      <point x="32" y="138"/>
      <point x="109" y="54"/>
      <point x="234" y="54" type="curve" smooth="yes"/>
      <point x="360" y="54"/>
      <point x="438" y="136"/>
      <point x="438" y="272" type="curve" smooth="yes"/>
      <point x="438" y="388"/>
      <point x="360" y="475"/>
      <point x="236" y="475" type="curve" smooth="yes"/>
      <point x="110" y="475"/>
      <point x="32" y="387"/>
    </contour>
    <contour>
      <point x="91" y="282" type="curve" smooth="yes"/>
      <point x="91" y="372"/>
      <point x="147" y="424"/>
      <point x="234" y="424" type="curve" smooth="yes"/>
      <point x="323" y="424"/>
      <point x="379" y="372"/>
      <point x="379" y="281" type="curve" smooth="yes"/>
      <point x="379" y="203"/>
      <point x="336" y="146"/>
      <point x="234" y="146" type="curve" smooth="yes"/>
      <point x="134" y="146"/>
      <point x="91" y="204"/>
    </contour>
  </outline>
</glyph>
<glyph name="visargasinh" format="2">
  <advance width="309"/>
  <unicode hex="0D83"/>
  <outline>
    <contour>
      <point x="279" y="420" type="curve" smooth="yes"/>
      <point x="279" y="490"/>
      <point x="230" y="536"/>
      <point x="154" y="536" type="curve" smooth="yes"/>
      <point x="78" y="536"/>
      <point x="30" y="484"/>
      <point x="30" y="418" type="curve" smooth="yes"/>
      <point x="30" y="351"/>
      <point x="72" y="300"/>
      <point x="155" y="300" type="curve" smooth="yes"/>
      <point x="230" y="300"/>
      <point x="279" y="345"/>
    </contour>
    <contour>
      <point x="224" y="420" type="curve" smooth="yes"/>
      <point x="224" y="375"/>
      <point x="194" y="354"/>
      <point x="153" y="354" type="curve" smooth="yes"/>
      <point x="106" y="354"/>
      <point x="85" y="386"/>
      <point x="85" y="418" type="curve" smooth="yes"/>
      <point x="85" y="462"/>
      <point x="113" y="486"/>
      <point x="154" y="486" type="curve" smooth="yes"/>
      <point x="201" y="486"/>
      <point x="224" y="457"/>
    </contour>
    <contour>
      <point x="279" y="120" type="curve" smooth="yes"/>
      <point x="279" y="189"/>
      <point x="230" y="236"/>
      <point x="154" y="236" type="curve" smooth="yes"/>
      <point x="78" y="236"/>
      <point x="30" y="184"/>
      <point x="30" y="118" type="curve" smooth="yes"/>
      <point x="30" y="50"/>
      <point x="72" y="0"/>
      <point x="155" y="0" type="curve" smooth="yes"/>
      <point x="230" y="0"/>
      <point x="279" y="45"/>
    </contour>
    <contour>
      <point x="224" y="121" type="curve" smooth="yes"/>
      <point x="224" y="75"/>
      <point x="194" y="54"/>
      <point x="153" y="54" type="curve" smooth="yes"/>
      <point x="106" y="54"/>
      <point x="85" y="86"/>
      <point x="85" y="118" type="curve" smooth="yes"/>
      <point x="85" y="162"/>
      <point x="113" y="186"/>
      <point x="154" y="186" type="curve" smooth="yes"/>
      <point x="201" y="186"/>
      <point x="224" y="157"/>
    </contour>
  </outline>
</glyph>
<glyph name="asinh" format="2">
  <advance width="707"/>
  <unicode hex="0D85"/>
  <outline>
    <contour>
      <point x="327" y="-10" type="curve" smooth="yes"/>
      <point x="461" y="-10"/>
      <point x="534" y="16"/>
      <point x="628" y="60" type="curve"/>
      <point x="606" y="113" type="line"/>
      <point x="511" y="63"/>
      <point x="440" y="48"/>
      <point x="337" y="48" type="curve" smooth="yes"/>
      <point x="205" y="48"/>
      <point x="137" y="120"/>
      <point x="137" y="217" type="curve" smooth="yes"/>
      <point x="137" y="344"/>
      <point x="214" y="391"/>
      <point x="373" y="391" type="curve" smooth="yes"/>
      <point x="495" y="391" type="line"/>
      <point x="495" y="400" type="line" smooth="yes"/>
      <point x="495" y="517"/>
      <point x="439" y="589"/>
      <point x="321" y="589" type="curve" smooth="yes"/>
      <point x="249" y="589"/>
      <point x="195" y="555"/>
      <point x="195" y="490" type="curve" smooth="yes"/>
      <point x="195" y="466"/>
      <point x="201" y="453"/>
      <point x="206" y="442" type="curve"/>
      <point x="284" y="452" type="line"/>
      <point x="282" y="458"/>
      <point x="280" y="471"/>
      <point x="280" y="481" type="curve" smooth="yes"/>
      <point x="280" y="506"/>
      <point x="291" y="534"/>
      <point x="336" y="534" type="curve" smooth="yes"/>
      <point x="407" y="534"/>
      <point x="435" y="492"/>
      <point x="443" y="442" type="curve"/>
      <point x="376" y="442" type="line" smooth="yes"/>
      <point x="204" y="442"/>
      <point x="36" y="397"/>
      <point x="36" y="212" type="curve" smooth="yes"/>
      <point x="36" y="78"/>
      <point x="137" y="-10"/>
    </contour>
    <contour>
      <point x="440" y="-226" type="line"/>
      <point x="498" y="-226" type="line"/>
      <point x="498" y="366" type="line" smooth="yes"/>
      <point x="498" y="447"/>
      <point x="530" y="502"/>
      <point x="596" y="551" type="curve"/>
      <point x="549" y="590" type="line"/>
      <point x="480" y="529"/>
      <point x="440" y="442"/>
      <point x="440" y="351" type="curve" smooth="yes"/>
    </contour>
    <contour>
      <point x="573" y="250" type="curve" smooth="yes"/>
      <point x="634" y="250"/>
      <point x="682" y="279"/>
      <point x="682" y="345" type="curve" smooth="yes"/>
      <point x="682" y="382"/>
      <point x="662" y="412"/>
      <point x="623" y="456" type="curve" smooth="yes"/>
      <point x="584" y="500"/>
      <point x="580" y="515"/>
      <point x="580" y="531" type="curve" smooth="yes"/>
      <point x="580" y="538"/>
      <point x="582" y="544"/>
      <point x="585" y="551" type="curve"/>
      <point x="534" y="514" type="line"/>
      <point x="534" y="489"/>
      <point x="541" y="465"/>
      <point x="582" y="421" type="curve" smooth="yes"/>
      <point x="611" y="390"/>
      <point x="622" y="371"/>
      <point x="622" y="345" type="curve" smooth="yes"/>
      <point x="622" y="315"/>
      <point x="603" y="302"/>
      <point x="571" y="302" type="curve" smooth="yes"/>
      <point x="530" y="302"/>
      <point x="501" y="320"/>
      <point x="475" y="346" type="curve"/>
      <point x="453" y="294" type="line"/>
      <point x="484" y="271"/>
      <point x="531" y="250"/>
    </contour>
  </outline>
</glyph>
<glyph name="isinh" format="2">
  <advance width="745"/>
  <unicode hex="0D89"/>
  <outline>
    <contour>
      <point x="282" y="82" type="curve" smooth="yes"/>
      <point x="394" y="82"/>
      <point x="493" y="125"/>
      <point x="493" y="260" type="curve" smooth="yes"/>
      <point x="493" y="366"/>
      <point x="431" y="406"/>
      <point x="367" y="406" type="curve" smooth="yes"/>
      <point x="288" y="406"/>
      <point x="249" y="353"/>
      <point x="249" y="296" type="curve" smooth="yes"/>
      <point x="249" y="230"/>
      <point x="292" y="186"/>
      <point x="366" y="186" type="curve" smooth="yes"/>
      <point x="413" y="186"/>
      <point x="439" y="206"/>
      <point x="454" y="238" type="curve"/>
      <point x="445" y="242" type="line"/>
      <point x="435" y="156"/>
      <point x="358" y="134"/>
      <point x="279" y="134" type="curve" smooth="yes"/>
      <point x="170" y="134"/>
      <point x="98" y="188"/>
      <point x="98" y="302" type="curve" smooth="yes"/>
      <point x="98" y="440"/>
      <point x="210" y="496"/>
      <point x="361" y="496" type="curve" smooth="yes"/>
      <point x="552" y="496"/>
      <point x="647" y="413"/>
      <point x="647" y="275" type="curve" smooth="yes"/>
      <point x="647" y="136"/>
      <point x="557" y="52"/>
      <point x="375" y="52" type="curve" smooth="yes"/>
      <point x="343" y="52" type="line"/>
      <point x="342" y="0" type="line"/>
      <point x="370" y="0" type="line" smooth="yes"/>
      <point x="611" y="0"/>
      <point x="707" y="125"/>
      <point x="707" y="307" type="curve" smooth="yes"/>
      <point x="707" y="474"/>
      <point x="590" y="589"/>
      <point x="368" y="589" type="curve" smooth="yes"/>
      <point x="170" y="589"/>
      <point x="38" y="485"/>
      <point x="38" y="318" type="curve" smooth="yes"/>
      <point x="38" y="168"/>
      <point x="132" y="82"/>
    </contour>
    <contour>
      <point x="368" y="237" type="curve" smooth="yes"/>
      <point x="325" y="237"/>
      <point x="306" y="262"/>
      <point x="306" y="298" type="curve" smooth="yes"/>
      <point x="306" y="333"/>
      <point x="332" y="355"/>
      <point x="367" y="355" type="curve" smooth="yes"/>
      <point x="411" y="355"/>
      <point x="428" y="327"/>
      <point x="428" y="298" type="curve" smooth="yes"/>
      <point x="428" y="257"/>
      <point x="405" y="237"/>
    </contour>
    <contour>
      <point x="259" y="-13" type="curve"/>
      <point x="194" y="2" type="line"/>
      <point x="182" y="-22"/>
      <point x="175" y="-47"/>
      <point x="175" y="-77" type="curve" smooth="yes"/>
      <point x="175" y="-163"/>
      <point x="225" y="-245"/>
      <point x="375" y="-245" type="curve" smooth="yes"/>
      <point x="500" y="-245"/>
      <point x="571" y="-188"/>
      <point x="571" y="-82" type="curve" smooth="yes"/>
      <point x="571" y="-38"/>
      <point x="558" y="2"/>
      <point x="524" y="40" type="curve"/>
      <point x="470" y="21" type="line"/>
      <point x="494" y="2"/>
      <point x="511" y="-36"/>
      <point x="511" y="-79" type="curve" smooth="yes"/>
      <point x="511" y="-161"/>
      <point x="462" y="-193"/>
      <point x="378" y="-193" type="curve" smooth="yes"/>
      <point x="299" y="-193"/>
      <point x="245" y="-156"/>
      <point x="245" y="-79" type="curve" smooth="yes"/>
      <point x="245" y="-53"/>
      <point x="250" y="-31"/>
    </contour>
  </outline>
</glyph>
<glyph name="iisinh" format="2">
  <advance width="688"/>
  <unicode hex="0D8A"/>
  <outline>
    <contour>
      <point x="344" y="-10" type="curve" smooth="yes"/>
      <point x="531" y="-10"/>
      <point x="647" y="95"/>
      <point x="647" y="282" type="curve" smooth="yes"/>
      <point x="647" y="444"/>
      <point x="532" y="572"/>
      <point x="344" y="572" type="curve" smooth="yes"/>
      <point x="167" y="572"/>
      <point x="41" y="453"/>
      <point x="41" y="282" type="curve" smooth="yes"/>
      <point x="41" y="102"/>
      <point x="151" y="-10"/>
    </contour>
    <contour>
      <point x="345" y="95" type="curve" smooth="yes"/>
      <point x="219" y="95"/>
      <point x="104" y="148"/>
      <point x="104" y="307" type="curve" smooth="yes"/>
      <point x="104" y="443"/>
      <point x="211" y="522"/>
      <point x="344" y="522" type="curve" smooth="yes"/>
      <point x="470" y="522"/>
      <point x="584" y="448"/>
      <point x="584" y="310" type="curve" smooth="yes"/>
      <point x="584" y="149"/>
      <point x="470" y="95"/>
    </contour>
    <contour>
      <point x="213" y="535" type="curve"/>
      <point x="303" y="536" type="line"/>
      <point x="417" y="609"/>
      <point x="586" y="732"/>
      <point x="664" y="800" type="curve"/>
      <point x="616" y="856" type="line"/>
      <point x="527" y="774"/>
      <point x="372" y="643"/>
    </contour>
    <contour>
      <point x="392" y="727" type="curve" smooth="yes"/>
      <point x="392" y="781"/>
      <point x="355" y="815"/>
      <point x="298" y="815" type="curve" smooth="yes"/>
      <point x="241" y="815"/>
      <point x="204" y="776"/>
      <point x="204" y="725" type="curve" smooth="yes"/>
      <point x="204" y="675"/>
      <point x="236" y="636"/>
      <point x="299" y="636" type="curve" smooth="yes"/>
      <point x="355" y="636"/>
      <point x="392" y="671"/>
    </contour>
    <contour>
      <point x="344" y="726" type="curve" smooth="yes"/>
      <point x="344" y="697"/>
      <point x="326" y="681"/>
      <point x="298" y="681" type="curve" smooth="yes"/>
      <point x="264" y="681"/>
      <point x="252" y="704"/>
      <point x="252" y="724" type="curve" smooth="yes"/>
      <point x="252" y="753"/>
      <point x="271" y="771"/>
      <point x="299" y="771" type="curve" smooth="yes"/>
      <point x="329" y="771"/>
      <point x="344" y="751"/>
    </contour>
    <contour>
      <point x="681" y="608" type="curve" smooth="yes"/>
      <point x="681" y="661"/>
      <point x="644" y="696"/>
      <point x="587" y="696" type="curve" smooth="yes"/>
      <point x="530" y="696"/>
      <point x="493" y="657"/>
      <point x="493" y="606" type="curve" smooth="yes"/>
      <point x="493" y="556"/>
      <point x="525" y="517"/>
      <point x="588" y="517" type="curve" smooth="yes"/>
      <point x="644" y="517"/>
      <point x="681" y="552"/>
    </contour>
    <contour>
      <point x="633" y="608" type="curve" smooth="yes"/>
      <point x="633" y="579"/>
      <point x="614" y="562"/>
      <point x="586" y="562" type="curve" smooth="yes"/>
      <point x="553" y="562"/>
      <point x="541" y="585"/>
      <point x="541" y="605" type="curve" smooth="yes"/>
      <point x="541" y="635"/>
      <point x="560" y="652"/>
      <point x="588" y="652" type="curve" smooth="yes"/>
      <point x="618" y="652"/>
      <point x="633" y="632"/>
    </contour>
  </outline>
</glyph>
<glyph name="usinh" format="2">
  <advance width="766"/>
  <unicode hex="0D8B"/>
  <outline>
    <contour>
      <point x="390" y="-256" type="curve" smooth="yes"/>
      <point x="638" y="-256"/>
      <point x="754" y="-124"/>
      <point x="754" y="60" type="curve" smooth="yes"/>
      <point x="754" y="87"/>
      <point x="752" y="114"/>
      <point x="749" y="134" type="curve"/>
      <point x="694" y="131" type="line"/>
      <point x="697" y="110"/>
      <point x="698" y="85"/>
      <point x="698" y="69" type="curve" smooth="yes"/>
      <point x="698" y="-83"/>
      <point x="608" y="-180"/>
      <point x="402" y="-180" type="curve" smooth="yes"/>
      <point x="201" y="-180"/>
      <point x="123" y="-61"/>
      <point x="123" y="83" type="curve" smooth="yes"/>
      <point x="123" y="280"/>
      <point x="256" y="391"/>
      <point x="527" y="391" type="curve" smooth="yes"/>
      <point x="667" y="391" type="line"/>
      <point x="667" y="400" type="line" smooth="yes"/>
      <point x="667" y="508"/>
      <point x="609" y="589"/>
      <point x="480" y="589" type="curve" smooth="yes"/>
      <point x="399" y="589"/>
      <point x="346" y="552"/>
      <point x="346" y="487" type="curve" smooth="yes"/>
      <point x="346" y="475"/>
      <point x="349" y="456"/>
      <point x="355" y="444" type="curve"/>
      <point x="434" y="453" type="line"/>
      <point x="432" y="460"/>
      <point x="431" y="476"/>
      <point x="431" y="481" type="curve" smooth="yes"/>
      <point x="431" y="506"/>
      <point x="445" y="534"/>
      <point x="493" y="534" type="curve" smooth="yes"/>
      <point x="564" y="534"/>
      <point x="601" y="490"/>
      <point x="610" y="442" type="curve"/>
      <point x="529" y="442" type="line" smooth="yes"/>
      <point x="226" y="442"/>
      <point x="30" y="326"/>
      <point x="30" y="73" type="curve" smooth="yes"/>
      <point x="30" y="-77"/>
      <point x="109" y="-256"/>
    </contour>
  </outline>
</glyph>
<glyph name="lvocalicsinh" format="2">
  <advance width="1058"/>
  <unicode hex="0D8F"/>
  <outline>
    <contour>
      <point x="788" y="427" type="curve"/>
      <point x="839" y="414" type="line"/>
      <point x="844" y="432"/>
      <point x="846" y="451"/>
      <point x="846" y="468" type="curve" smooth="yes"/>
      <point x="846" y="538"/>
      <point x="794" y="589"/>
      <point x="717" y="589" type="curve" smooth="yes"/>
      <point x="618" y="589"/>
      <point x="548" y="514"/>
      <point x="548" y="396" type="curve" smooth="yes"/>
      <point x="548" y="391" type="line"/>
      <point x="604" y="391" type="line" smooth="yes"/>
      <point x="733" y="391"/>
      <point x="814" y="360"/>
      <point x="814" y="255" type="curve" smooth="yes"/>
      <point x="814" y="151"/>
      <point x="717" y="95"/>
      <point x="528" y="95" type="curve" smooth="yes"/>
      <point x="342" y="95"/>
      <point x="244" y="150"/>
      <point x="244" y="255" type="curve" smooth="yes"/>
      <point x="244" y="360"/>
      <point x="325" y="391"/>
      <point x="454" y="391" type="curve" smooth="yes"/>
      <point x="516" y="391" type="line"/>
      <point x="516" y="405" type="line" smooth="yes"/>
      <point x="516" y="516"/>
      <point x="453" y="589"/>
      <point x="340" y="589" type="curve" smooth="yes"/>
      <point x="277" y="589"/>
      <point x="216" y="555"/>
      <point x="216" y="490" type="curve" smooth="yes"/>
      <point x="216" y="466"/>
      <point x="223" y="444"/>
      <point x="235" y="426" type="curve"/>
      <point x="303" y="444" type="line"/>
      <point x="299" y="457"/>
      <point x="297" y="470"/>
      <point x="297" y="481" type="curve" smooth="yes"/>
      <point x="297" y="515"/>
      <point x="317" y="534"/>
      <point x="357" y="534" type="curve" smooth="yes"/>
      <point x="423" y="534"/>
      <point x="452" y="487"/>
      <point x="460" y="437" type="curve"/>
      <point x="466" y="442" type="line"/>
      <point x="447" y="442" type="line" smooth="yes"/>
      <point x="264" y="442"/>
      <point x="184" y="368"/>
      <point x="184" y="239" type="curve" smooth="yes"/>
      <point x="184" y="83"/>
      <point x="303" y="-10"/>
      <point x="528" y="-10" type="curve" smooth="yes"/>
      <point x="755" y="-10"/>
      <point x="874" y="83"/>
      <point x="874" y="238" type="curve" smooth="yes"/>
      <point x="874" y="368"/>
      <point x="794" y="442"/>
      <point x="611" y="442" type="curve" smooth="yes"/>
      <point x="597" y="442" type="line"/>
      <point x="605" y="438" type="line"/>
      <point x="617" y="492"/>
      <point x="649" y="529"/>
      <point x="709" y="529" type="curve" smooth="yes"/>
      <point x="760" y="529"/>
      <point x="792" y="506"/>
      <point x="792" y="460" type="curve" smooth="yes"/>
      <point x="792" y="452"/>
      <point x="791" y="439"/>
    </contour>
    <contour>
      <point x="40" y="329" type="curve" smooth="yes"/>
      <point x="40" y="205"/>
      <point x="98" y="111"/>
      <point x="182" y="41" type="curve"/>
      <point x="219" y="79" type="line"/>
      <point x="148" y="139"/>
      <point x="100" y="217"/>
      <point x="100" y="324" type="curve" smooth="yes"/>
      <point x="100" y="470"/>
      <point x="200" y="543"/>
      <point x="299" y="543" type="curve" smooth="yes"/>
      <point x="307" y="543"/>
      <point x="316" y="542"/>
      <point x="325" y="542" type="curve"/>
      <point x="357" y="584" type="line"/>
      <point x="341" y="587"/>
      <point x="325" y="589"/>
      <point x="309" y="589" type="curve" smooth="yes"/>
      <point x="171" y="589"/>
      <point x="40" y="504"/>
    </contour>
    <contour>
      <point x="1018" y="338" type="curve" smooth="yes"/>
      <point x="1018" y="504"/>
      <point x="892" y="589"/>
      <point x="756" y="589" type="curve" smooth="yes"/>
      <point x="733" y="589"/>
      <point x="717" y="587"/>
      <point x="701" y="584" type="curve"/>
      <point x="733" y="542" type="line"/>
      <point x="742" y="542"/>
      <point x="751" y="543"/>
      <point x="769" y="543" type="curve" smooth="yes"/>
      <point x="864" y="543"/>
      <point x="958" y="475"/>
      <point x="958" y="329" type="curve" smooth="yes"/>
      <point x="958" y="217"/>
      <point x="910" y="139"/>
      <point x="839" y="79" type="curve"/>
      <point x="876" y="41" type="line"/>
      <point x="960" y="111"/>
      <point x="1018" y="205"/>
    </contour>
  </outline>
</glyph>
<glyph name="esinh" format="2">
  <advance width="796"/>
  <unicode hex="0D91"/>
  <outline>
    <contour>
      <point x="355" y="-10" type="curve" smooth="yes"/>
      <point x="631" y="-10"/>
      <point x="756" y="165"/>
      <point x="756" y="403" type="curve" smooth="yes"/>
      <point x="756" y="676"/>
      <point x="547" y="793"/>
      <point x="291" y="812" type="curve"/>
      <point x="284" y="756" type="line"/>
      <point x="497" y="746"/>
      <point x="693" y="671"/>
      <point x="693" y="408" type="curve" smooth="yes"/>
      <point x="693" y="255"/>
      <point x="614" y="95"/>
      <point x="350" y="95" type="curve" smooth="yes"/>
      <point x="173" y="95"/>
      <point x="119" y="153"/>
      <point x="119" y="240" type="curve" smooth="yes"/>
      <point x="119" y="320"/>
      <point x="180" y="373"/>
      <point x="286" y="398" type="curve"/>
      <point x="241" y="391" type="line"/>
      <point x="430" y="391" type="line"/>
      <point x="430" y="405" type="line" smooth="yes"/>
      <point x="430" y="516"/>
      <point x="367" y="589"/>
      <point x="254" y="589" type="curve" smooth="yes"/>
      <point x="182" y="589"/>
      <point x="126" y="555"/>
      <point x="126" y="490" type="curve" smooth="yes"/>
      <point x="126" y="482"/>
      <point x="128" y="463"/>
      <point x="132" y="452" type="curve"/>
      <point x="214" y="459" type="line"/>
      <point x="212" y="465"/>
      <point x="211" y="475"/>
      <point x="211" y="481" type="curve" smooth="yes"/>
      <point x="211" y="515"/>
      <point x="231" y="534"/>
      <point x="271" y="534" type="curve" smooth="yes"/>
      <point x="337" y="534"/>
      <point x="364" y="488"/>
      <point x="373" y="442" type="curve"/>
      <point x="24" y="442" type="line"/>
      <point x="24" y="391" type="line"/>
      <point x="59" y="391" type="line" smooth="yes"/>
      <point x="105" y="391"/>
      <point x="175" y="393"/>
      <point x="203" y="397" type="curve"/>
      <point x="223" y="416" type="line"/>
      <point x="126" y="391"/>
      <point x="57" y="313"/>
      <point x="57" y="214" type="curve" smooth="yes"/>
      <point x="57" y="77"/>
      <point x="151" y="-10"/>
    </contour>
    <contour>
      <point x="476" y="556" type="curve" smooth="yes"/>
      <point x="558" y="556"/>
      <point x="599" y="615"/>
      <point x="625" y="680" type="curve"/>
      <point x="576" y="709" type="line"/>
      <point x="556" y="648"/>
      <point x="529" y="617"/>
      <point x="483" y="617" type="curve" smooth="yes"/>
      <point x="434" y="617"/>
      <point x="411" y="641"/>
      <point x="396" y="696" type="curve" smooth="yes"/>
      <point x="382" y="745"/>
      <point x="356" y="771"/>
      <point x="307" y="797" type="curve"/>
      <point x="295" y="759" type="line"/>
      <point x="311" y="754"/>
      <point x="328" y="741"/>
      <point x="341" y="690" type="curve" smooth="yes"/>
      <point x="359" y="619"/>
      <point x="389" y="556"/>
    </contour>
  </outline>
</glyph>
<glyph name="eesinh" format="2">
  <advance width="796"/>
  <unicode hex="0D92"/>
  <outline>
    <contour>
      <point x="496" y="963" type="curve" smooth="yes"/>
      <point x="472" y="963"/>
      <point x="459" y="959"/>
      <point x="449" y="954" type="curve"/>
      <point x="457" y="909" type="line"/>
      <point x="461" y="910"/>
      <point x="469" y="911"/>
      <point x="481" y="911" type="curve" smooth="yes"/>
      <point x="501" y="911"/>
      <point x="526" y="899"/>
      <point x="526" y="848" type="curve" smooth="yes"/>
      <point x="526" y="829" type="line" smooth="yes"/>
      <point x="526" y="801"/>
      <point x="526" y="773"/>
      <point x="529" y="738" type="curve"/>
      <point x="578" y="703" type="line"/>
      <point x="578" y="748" type="line" smooth="yes"/>
      <point x="578" y="778"/>
      <point x="578" y="789"/>
      <point x="575" y="819" type="curve"/>
      <point x="578" y="836" type="line"/>
      <point x="578" y="901" type="line"/>
      <point x="567" y="901" type="line"/>
      <point x="557" y="941"/>
      <point x="527" y="963"/>
    </contour>
    <contour>
      <point x="632" y="963" type="curve" smooth="yes"/>
      <point x="590" y="963"/>
      <point x="557" y="937"/>
      <point x="537" y="896" type="curve"/>
      <point x="575" y="872" type="line"/>
      <point x="582" y="900"/>
      <point x="598" y="919"/>
      <point x="624" y="919" type="curve" smooth="yes"/>
      <point x="653" y="919"/>
      <point x="667" y="900"/>
      <point x="667" y="865" type="curve" smooth="yes"/>
      <point x="667" y="832"/>
      <point x="652" y="814"/>
      <point x="626" y="814" type="curve" smooth="yes"/>
      <point x="594" y="814"/>
      <point x="581" y="834"/>
      <point x="574" y="862" type="curve"/>
      <point x="556" y="815" type="line"/>
      <point x="569" y="784"/>
      <point x="603" y="769"/>
      <point x="631" y="769" type="curve" smooth="yes"/>
      <point x="691" y="769"/>
      <point x="719" y="810"/>
      <point x="719" y="866" type="curve" smooth="yes"/>
      <point x="719" y="922"/>
      <point x="688" y="963"/>
    </contour>
    <component base="esinh"/>
  </outline>
</glyph>
<glyph name="osinh" format="2">
  <advance width="862"/>
  <unicode hex="0D94"/>
  <outline>
    <contour>
      <point x="597" y="-10" type="curve" smooth="yes"/>
      <point x="720" y="-10"/>
      <point x="817" y="78"/>
      <point x="817" y="345" type="curve" smooth="yes"/>
      <point x="817" y="656"/>
      <point x="659" y="804"/>
      <point x="397" y="804" type="curve" smooth="yes"/>
      <point x="238" y="804"/>
      <point x="140" y="760"/>
      <point x="50" y="699" type="curve"/>
      <point x="84" y="653" type="line"/>
      <point x="177" y="722"/>
      <point x="276" y="752"/>
      <point x="397" y="752" type="curve" smooth="yes"/>
      <point x="640" y="752"/>
      <point x="754" y="607"/>
      <point x="754" y="361" type="curve" smooth="yes"/>
      <point x="754" y="150"/>
      <point x="674" y="95"/>
      <point x="583" y="95" type="curve" smooth="yes"/>
      <point x="504" y="95"/>
      <point x="444" y="131"/>
      <point x="437" y="204" type="curve"/>
      <point x="384" y="204" type="line"/>
      <point x="369" y="146"/>
      <point x="336" y="95"/>
      <point x="245" y="95" type="curve" smooth="yes"/>
      <point x="140" y="95"/>
      <point x="105" y="188"/>
      <point x="105" y="278" type="curve" smooth="yes"/>
      <point x="105" y="438"/>
      <point x="174" y="501"/>
      <point x="209" y="501" type="curve" smooth="yes"/>
      <point x="233" y="501"/>
      <point x="237" y="488"/>
      <point x="237" y="473" type="curve" smooth="yes"/>
      <point x="237" y="442"/>
      <point x="228" y="423"/>
      <point x="228" y="386" type="curve" smooth="yes"/>
      <point x="228" y="295"/>
      <point x="294" y="228"/>
      <point x="430" y="228" type="curve" smooth="yes"/>
      <point x="540" y="228"/>
      <point x="628" y="287"/>
      <point x="628" y="409" type="curve" smooth="yes"/>
      <point x="628" y="504"/>
      <point x="557" y="571"/>
      <point x="454" y="571" type="curve" smooth="yes"/>
      <point x="364" y="571"/>
      <point x="324" y="521"/>
      <point x="324" y="460" type="curve" smooth="yes"/>
      <point x="324" y="395"/>
      <point x="363" y="352"/>
      <point x="440" y="352" type="curve" smooth="yes"/>
      <point x="505" y="352"/>
      <point x="548" y="387"/>
      <point x="548" y="449" type="curve" smooth="yes"/>
      <point x="548" y="476"/>
      <point x="539" y="504"/>
      <point x="513" y="524" type="curve"/>
      <point x="512" y="521" type="line"/>
      <point x="544" y="502"/>
      <point x="572" y="466"/>
      <point x="572" y="412" type="curve" smooth="yes"/>
      <point x="572" y="334"/>
      <point x="521" y="289"/>
      <point x="427" y="289" type="curve" smooth="yes"/>
      <point x="343" y="289"/>
      <point x="284" y="321"/>
      <point x="284" y="392" type="curve" smooth="yes"/>
      <point x="284" y="435"/>
      <point x="294" y="457"/>
      <point x="294" y="487" type="curve" smooth="yes"/>
      <point x="294" y="517"/>
      <point x="282" y="557"/>
      <point x="214" y="557" type="curve" smooth="yes"/>
      <point x="138" y="557"/>
      <point x="45" y="461"/>
      <point x="45" y="264" type="curve" smooth="yes"/>
      <point x="45" y="69"/>
      <point x="123" y="-10"/>
      <point x="239" y="-10" type="curve" smooth="yes"/>
      <point x="335" y="-10"/>
      <point x="387" y="59"/>
      <point x="410" y="129" type="curve"/>
      <point x="439" y="44"/>
      <point x="491" y="-10"/>
    </contour>
    <contour>
      <point x="500" y="461" type="curve" smooth="yes"/>
      <point x="500" y="430"/>
      <point x="484" y="403"/>
      <point x="440" y="403" type="curve" smooth="yes"/>
      <point x="399" y="403"/>
      <point x="381" y="425"/>
      <point x="381" y="462" type="curve" smooth="yes"/>
      <point x="381" y="494"/>
      <point x="404" y="518"/>
      <point x="440" y="518" type="curve" smooth="yes"/>
      <point x="482" y="518"/>
      <point x="500" y="492"/>
    </contour>
  </outline>
</glyph>
<glyph name="oosinh" format="2">
  <advance width="862"/>
  <unicode hex="0D95"/>
  <outline>
    <contour>
      <point x="597" y="-10" type="curve" smooth="yes"/>
      <point x="720" y="-10"/>
      <point x="817" y="75"/>
      <point x="817" y="310" type="curve" smooth="yes"/>
      <point x="817" y="591"/>
      <point x="665" y="723"/>
      <point x="382" y="723" type="curve" smooth="yes"/>
      <point x="259" y="723"/>
      <point x="170" y="708"/>
      <point x="66" y="678" type="curve"/>
      <point x="82" y="626" type="line"/>
      <point x="183" y="657"/>
      <point x="260" y="671"/>
      <point x="378" y="671" type="curve" smooth="yes"/>
      <point x="651" y="671"/>
      <point x="754" y="544"/>
      <point x="754" y="328" type="curve" smooth="yes"/>
      <point x="754" y="151"/>
      <point x="674" y="95"/>
      <point x="583" y="95" type="curve" smooth="yes"/>
      <point x="504" y="95"/>
      <point x="444" y="131"/>
      <point x="437" y="204" type="curve"/>
      <point x="384" y="204" type="line"/>
      <point x="369" y="146"/>
      <point x="336" y="95"/>
      <point x="245" y="95" type="curve" smooth="yes"/>
      <point x="140" y="95"/>
      <point x="105" y="188"/>
      <point x="105" y="278" type="curve" smooth="yes"/>
      <point x="105" y="438"/>
      <point x="174" y="501"/>
      <point x="209" y="501" type="curve" smooth="yes"/>
      <point x="233" y="501"/>
      <point x="237" y="488"/>
      <point x="237" y="473" type="curve" smooth="yes"/>
      <point x="237" y="442"/>
      <point x="228" y="423"/>
      <point x="228" y="386" type="curve" smooth="yes"/>
      <point x="228" y="295"/>
      <point x="294" y="228"/>
      <point x="430" y="228" type="curve" smooth="yes"/>
      <point x="540" y="228"/>
      <point x="628" y="287"/>
      <point x="628" y="409" type="curve" smooth="yes"/>
      <point x="628" y="504"/>
      <point x="557" y="571"/>
      <point x="454" y="571" type="curve" smooth="yes"/>
      <point x="364" y="571"/>
      <point x="324" y="521"/>
      <point x="324" y="460" type="curve" smooth="yes"/>
      <point x="324" y="395"/>
      <point x="363" y="352"/>
      <point x="440" y="352" type="curve" smooth="yes"/>
      <point x="505" y="352"/>
      <point x="548" y="387"/>
      <point x="548" y="449" type="curve" smooth="yes"/>
      <point x="548" y="476"/>
      <point x="539" y="504"/>
      <point x="513" y="524" type="curve"/>
      <point x="512" y="521" type="line"/>
      <point x="544" y="502"/>
      <point x="572" y="466"/>
      <point x="572" y="412" type="curve" smooth="yes"/>
      <point x="572" y="334"/>
      <point x="521" y="289"/>
      <point x="427" y="289" type="curve" smooth="yes"/>
      <point x="343" y="289"/>
      <point x="284" y="321"/>
      <point x="284" y="392" type="curve" smooth="yes"/>
      <point x="284" y="435"/>
      <point x="294" y="457"/>
      <point x="294" y="487" type="curve" smooth="yes"/>
      <point x="294" y="517"/>
      <point x="282" y="557"/>
      <point x="214" y="557" type="curve" smooth="yes"/>
      <point x="138" y="557"/>
      <point x="45" y="461"/>
      <point x="45" y="264" type="curve" smooth="yes"/>
      <point x="45" y="69"/>
      <point x="123" y="-10"/>
      <point x="239" y="-10" type="curve" smooth="yes"/>
      <point x="335" y="-10"/>
      <point x="387" y="59"/>
      <point x="410" y="129" type="curve"/>
      <point x="439" y="44"/>
      <point x="491" y="-10"/>
    </contour>
    <contour>
      <point x="500" y="461" type="curve" smooth="yes"/>
      <point x="500" y="430"/>
      <point x="484" y="403"/>
      <point x="440" y="403" type="curve" smooth="yes"/>
      <point x="399" y="403"/>
      <point x="381" y="425"/>
      <point x="381" y="462" type="curve" smooth="yes"/>
      <point x="381" y="494"/>
      <point x="404" y="518"/>
      <point x="440" y="518" type="curve" smooth="yes"/>
      <point x="482" y="518"/>
      <point x="500" y="492"/>
    </contour>
    <contour>
      <point x="400" y="945" type="curve" smooth="yes"/>
      <point x="212" y="945"/>
      <point x="131" y="875"/>
      <point x="131" y="788" type="curve" smooth="yes"/>
      <point x="131" y="737"/>
      <point x="155" y="698"/>
      <point x="195" y="664" type="curve"/>
      <point x="244" y="687" type="line"/>
      <point x="204" y="710"/>
      <point x="189" y="740"/>
      <point x="189" y="776" type="curve" smooth="yes"/>
      <point x="189" y="828"/>
      <point x="235" y="868"/>
      <point x="398" y="868" type="curve" smooth="yes"/>
      <point x="633" y="868"/>
      <point x="693" y="804"/>
      <point x="693" y="741" type="curve" smooth="yes"/>
      <point x="693" y="695"/>
      <point x="664" y="663"/>
      <point x="609" y="650" type="curve"/>
      <point x="669" y="608" type="line"/>
      <point x="716" y="640"/>
      <point x="747" y="682"/>
      <point x="747" y="752" type="curve" smooth="yes"/>
      <point x="747" y="834"/>
      <point x="693" y="945"/>
    </contour>
  </outline>
</glyph>
<glyph name="kasinh" format="2">
  <advance width="1007"/>
  <unicode hex="0D9A"/>
  <outline>
    <contour>
      <point x="523" y="-10" type="curve" smooth="yes"/>
      <point x="628" y="-10"/>
      <point x="685" y="71"/>
      <point x="685" y="199" type="curve" smooth="yes"/>
      <point x="685" y="349"/>
      <point x="589" y="442"/>
      <point x="404" y="442" type="curve" smooth="yes"/>
      <point x="354" y="442"/>
      <point x="294" y="431"/>
      <point x="264" y="424" type="curve"/>
      <point x="253" y="384" type="line"/>
      <point x="281" y="388"/>
      <point x="321" y="391"/>
      <point x="394" y="391" type="curve" smooth="yes"/>
      <point x="572" y="391"/>
      <point x="629" y="295"/>
      <point x="629" y="207" type="curve" smooth="yes"/>
      <point x="629" y="130"/>
      <point x="595" y="95"/>
      <point x="523" y="95" type="curve" smooth="yes"/>
      <point x="458" y="95"/>
      <point x="410" y="120"/>
      <point x="406" y="200" type="curve"/>
      <point x="355" y="200" type="line"/>
      <point x="355" y="134"/>
      <point x="320" y="95"/>
      <point x="247" y="95" type="curve" smooth="yes"/>
      <point x="191" y="95"/>
      <point x="156" y="118"/>
      <point x="156" y="187" type="curve" smooth="yes"/>
      <point x="156" y="197"/>
      <point x="157" y="206"/>
      <point x="160" y="214" type="curve"/>
      <point x="90" y="220" type="line"/>
      <point x="72" y="211" type="line"/>
      <point x="60" y="167" type="line"/>
      <point x="135" y="157" type="line"/>
      <point x="110" y="207" type="line"/>
      <point x="105" y="189"/>
      <point x="103" y="176"/>
      <point x="103" y="153" type="curve" smooth="yes"/>
      <point x="103" y="66"/>
      <point x="149" y="-10"/>
      <point x="238" y="-10" type="curve" smooth="yes"/>
      <point x="321" y="-10"/>
      <point x="360" y="42"/>
      <point x="382" y="109" type="curve"/>
      <point x="399" y="31"/>
      <point x="455" y="-10"/>
    </contour>
    <contour>
      <point x="748" y="-8" type="curve" smooth="yes"/>
      <point x="891" y="-8"/>
      <point x="966" y="99"/>
      <point x="966" y="264" type="curve" smooth="yes"/>
      <point x="966" y="445"/>
      <point x="858" y="589"/>
      <point x="633" y="589" type="curve" smooth="yes"/>
      <point x="444" y="589"/>
      <point x="310" y="502"/>
      <point x="17" y="201" type="curve"/>
      <point x="60" y="167" type="line"/>
      <point x="161" y="277"/>
      <point x="242" y="355"/>
      <point x="315" y="408" type="curve"/>
      <point x="342" y="429" type="line"/>
      <point x="436" y="491"/>
      <point x="508" y="504"/>
      <point x="611" y="504" type="curve" smooth="yes"/>
      <point x="782" y="504"/>
      <point x="902" y="416"/>
      <point x="902" y="238" type="curve" smooth="yes"/>
      <point x="902" y="128"/>
      <point x="858" y="44"/>
      <point x="739" y="44" type="curve" smooth="yes"/>
      <point x="708" y="44"/>
      <point x="684" y="50"/>
      <point x="670" y="57" type="curve"/>
      <point x="657" y="7" type="line"/>
      <point x="681" y="-4"/>
      <point x="715" y="-8"/>
    </contour>
    <contour>
      <point x="163" y="571" type="curve" smooth="yes"/>
      <point x="90" y="571"/>
      <point x="34" y="530"/>
      <point x="34" y="448" type="curve" smooth="yes"/>
      <point x="34" y="420"/>
      <point x="44" y="387"/>
      <point x="57" y="367" type="curve"/>
      <point x="133" y="386" type="line"/>
      <point x="126" y="401"/>
      <point x="119" y="422"/>
      <point x="119" y="450" type="curve" smooth="yes"/>
      <point x="119" y="478"/>
      <point x="131" y="514"/>
      <point x="173" y="514" type="curve" smooth="yes"/>
      <point x="217" y="514"/>
      <point x="244" y="480"/>
      <point x="267" y="419" type="curve"/>
      <point x="316" y="439" type="line"/>
      <point x="291" y="507"/>
      <point x="244" y="571"/>
    </contour>
  </outline>
</glyph>
<glyph name="khasinh" format="2">
  <advance width="863"/>
  <unicode hex="0D9B"/>
  <outline>
    <contour>
      <point x="261" y="-10" type="curve" smooth="yes"/>
      <point x="339" y="-10"/>
      <point x="387" y="35"/>
      <point x="387" y="111" type="curve" smooth="yes"/>
      <point x="387" y="180"/>
      <point x="343" y="229"/>
      <point x="260" y="229" type="curve" smooth="yes"/>
      <point x="194" y="229"/>
      <point x="142" y="189"/>
      <point x="142" y="119" type="curve" smooth="yes"/>
      <point x="142" y="96"/>
      <point x="151" y="68"/>
      <point x="169" y="55" type="curve"/>
      <point x="166" y="64" type="line"/>
      <point x="123" y="110"/>
      <point x="101" y="150"/>
      <point x="101" y="233" type="curve" smooth="yes"/>
      <point x="101" y="375"/>
      <point x="188" y="455"/>
      <point x="315" y="455" type="curve" smooth="yes"/>
      <point x="423" y="455"/>
      <point x="497" y="398"/>
      <point x="497" y="286" type="curve" smooth="yes"/>
      <point x="497" y="244"/>
      <point x="480" y="186"/>
      <point x="454" y="138" type="curve" smooth="yes"/>
      <point x="432" y="97"/>
      <point x="414" y="61"/>
      <point x="392" y="11" type="curve"/>
      <point x="447" y="-9" type="line"/>
      <point x="464" y="34"/>
      <point x="481" y="75"/>
      <point x="502" y="116" type="curve" smooth="yes"/>
      <point x="515" y="140" type="line" smooth="yes"/>
      <point x="544" y="196"/>
      <point x="568" y="262"/>
      <point x="568" y="324" type="curve" smooth="yes"/>
      <point x="568" y="452"/>
      <point x="482" y="548"/>
      <point x="327" y="548" type="curve" smooth="yes"/>
      <point x="179" y="548"/>
      <point x="41" y="451"/>
      <point x="41" y="249" type="curve" smooth="yes"/>
      <point x="41" y="95"/>
      <point x="132" y="-10"/>
    </contour>
    <contour>
      <point x="634" y="-10" type="curve" smooth="yes"/>
      <point x="729" y="-10"/>
      <point x="818" y="70"/>
      <point x="818" y="337" type="curve" smooth="yes"/>
      <point x="818" y="649"/>
      <point x="657" y="804"/>
      <point x="393" y="804" type="curve" smooth="yes"/>
      <point x="232" y="804"/>
      <point x="135" y="760"/>
      <point x="41" y="699" type="curve"/>
      <point x="75" y="653" type="line"/>
      <point x="169" y="720"/>
      <point x="265" y="752"/>
      <point x="393" y="752" type="curve" smooth="yes"/>
      <point x="639" y="752"/>
      <point x="755" y="599"/>
      <point x="755" y="347" type="curve" smooth="yes"/>
      <point x="755" y="136"/>
      <point x="686" y="92"/>
      <point x="632" y="92" type="curve" smooth="yes"/>
      <point x="579" y="92"/>
      <point x="562" y="125"/>
      <point x="560" y="169" type="curve"/>
      <point x="482" y="170" type="line"/>
      <point x="460" y="110" type="line"/>
      <point x="533" y="108" type="line"/>
      <point x="512" y="138" type="line"/>
      <point x="514" y="74"/>
      <point x="534" y="-10"/>
    </contour>
    <contour>
      <point x="260" y="178" type="curve" smooth="yes"/>
      <point x="309" y="178"/>
      <point x="330" y="150"/>
      <point x="330" y="108" type="curve" smooth="yes"/>
      <point x="330" y="68"/>
      <point x="301" y="43"/>
      <point x="261" y="43" type="curve" smooth="yes"/>
      <point x="212" y="43"/>
      <point x="193" y="75"/>
      <point x="193" y="108" type="curve" smooth="yes"/>
      <point x="193" y="154"/>
      <point x="220" y="178"/>
    </contour>
  </outline>
</glyph>
<glyph name="gasinh" format="2">
  <advance width="900"/>
  <unicode hex="0D9C"/>
  <outline>
    <contour>
      <point x="599" y="-8" type="curve" smooth="yes"/>
      <point x="742" y="-8"/>
      <point x="858" y="78"/>
      <point x="858" y="288" type="curve" smooth="yes"/>
      <point x="858" y="456"/>
      <point x="775" y="589"/>
      <point x="615" y="589" type="curve" smooth="yes"/>
      <point x="478" y="589"/>
      <point x="374" y="493"/>
      <point x="344" y="292" type="curve"/>
      <point x="381" y="282" type="line"/>
      <point x="391" y="283"/>
      <point x="399" y="284"/>
      <point x="407" y="284" type="curve" smooth="yes"/>
      <point x="448" y="284"/>
      <point x="483" y="271"/>
      <point x="483" y="210" type="curve" smooth="yes"/>
      <point x="483" y="155"/>
      <point x="444" y="95"/>
      <point x="310" y="95" type="curve" smooth="yes"/>
      <point x="166" y="95"/>
      <point x="102" y="179"/>
      <point x="102" y="299" type="curve" smooth="yes"/>
      <point x="102" y="451"/>
      <point x="197" y="537"/>
      <point x="337" y="537" type="curve" smooth="yes"/>
      <point x="361" y="537"/>
      <point x="380" y="535"/>
      <point x="393" y="533" type="curve"/>
      <point x="397" y="585" type="line"/>
      <point x="382" y="587"/>
      <point x="355" y="589"/>
      <point x="336" y="589" type="curve" smooth="yes"/>
      <point x="170" y="589"/>
      <point x="41" y="487"/>
      <point x="41" y="282" type="curve" smooth="yes"/>
      <point x="41" y="107"/>
      <point x="134" y="-10"/>
      <point x="308" y="-10" type="curve" smooth="yes"/>
      <point x="482" y="-10"/>
      <point x="542" y="101"/>
      <point x="542" y="195" type="curve" smooth="yes"/>
      <point x="542" y="296"/>
      <point x="488" y="334"/>
      <point x="415" y="334" type="curve" smooth="yes"/>
      <point x="397" y="334"/>
      <point x="383" y="332"/>
      <point x="371" y="329" type="curve"/>
      <point x="400" y="317" type="line"/>
      <point x="429" y="435"/>
      <point x="494" y="501"/>
      <point x="602" y="501" type="curve" smooth="yes"/>
      <point x="728" y="501"/>
      <point x="794" y="405"/>
      <point x="794" y="263" type="curve" smooth="yes"/>
      <point x="794" y="124"/>
      <point x="723" y="44"/>
      <point x="598" y="44" type="curve" smooth="yes"/>
      <point x="560" y="44"/>
      <point x="539" y="47"/>
      <point x="515" y="54" type="curve"/>
      <point x="502" y="2" type="line"/>
      <point x="524" y="-4"/>
      <point x="560" y="-8"/>
    </contour>
  </outline>
</glyph>
<glyph name="ghasinh" format="2">
  <advance width="800"/>
  <unicode hex="0D9D"/>
  <outline>
    <contour>
      <point x="250" y="-10" type="curve" smooth="yes"/>
      <point x="295" y="-10"/>
      <point x="340" y="-2"/>
      <point x="366" y="10" type="curve"/>
      <point x="324" y="97" type="line"/>
      <point x="298" y="90"/>
      <point x="275" y="88"/>
      <point x="238" y="88" type="curve" smooth="yes"/>
      <point x="168" y="88"/>
      <point x="110" y="117"/>
      <point x="110" y="214" type="curve" smooth="yes"/>
      <point x="110" y="304"/>
      <point x="174" y="378"/>
      <point x="311" y="397" type="curve"/>
      <point x="253" y="391" type="line"/>
      <point x="395" y="391" type="line"/>
      <point x="395" y="405" type="line" smooth="yes"/>
      <point x="395" y="516"/>
      <point x="332" y="589"/>
      <point x="219" y="589" type="curve" smooth="yes"/>
      <point x="147" y="589"/>
      <point x="91" y="555"/>
      <point x="91" y="490" type="curve" smooth="yes"/>
      <point x="91" y="482"/>
      <point x="93" y="463"/>
      <point x="97" y="452" type="curve"/>
      <point x="179" y="459" type="line"/>
      <point x="177" y="465"/>
      <point x="176" y="475"/>
      <point x="176" y="481" type="curve" smooth="yes"/>
      <point x="176" y="515"/>
      <point x="196" y="534"/>
      <point x="236" y="534" type="curve" smooth="yes"/>
      <point x="302" y="534"/>
      <point x="329" y="488"/>
      <point x="338" y="442" type="curve"/>
      <point x="24" y="442" type="line"/>
      <point x="24" y="391" type="line"/>
      <point x="72" y="391" type="line" smooth="yes"/>
      <point x="118" y="391"/>
      <point x="188" y="393"/>
      <point x="216" y="397" type="curve"/>
      <point x="223" y="415" type="line"/>
      <point x="121" y="382"/>
      <point x="48" y="308"/>
      <point x="48" y="187" type="curve" smooth="yes"/>
      <point x="48" y="53"/>
      <point x="128" y="-10"/>
    </contour>
    <contour>
      <point x="557" y="-10" type="curve" smooth="yes"/>
      <point x="701" y="-10"/>
      <point x="759" y="72"/>
      <point x="759" y="201" type="curve" smooth="yes"/>
      <point x="759" y="375"/>
      <point x="617" y="442"/>
      <point x="461" y="442" type="curve"/>
      <point x="484" y="438" type="line"/>
      <point x="496" y="492"/>
      <point x="528" y="529"/>
      <point x="588" y="529" type="curve" smooth="yes"/>
      <point x="639" y="529"/>
      <point x="671" y="506"/>
      <point x="671" y="460" type="curve" smooth="yes"/>
      <point x="671" y="446"/>
      <point x="668" y="428"/>
      <point x="662" y="413" type="curve"/>
      <point x="712" y="397" type="line"/>
      <point x="720" y="419"/>
      <point x="725" y="442"/>
      <point x="725" y="468" type="curve" smooth="yes"/>
      <point x="725" y="538"/>
      <point x="686" y="589"/>
      <point x="595" y="589" type="curve" smooth="yes"/>
      <point x="499" y="589"/>
      <point x="427" y="515"/>
      <point x="427" y="397" type="curve" smooth="yes"/>
      <point x="427" y="391" type="line"/>
      <point x="443" y="391" type="line" smooth="yes"/>
      <point x="624" y="391"/>
      <point x="699" y="319"/>
      <point x="699" y="216" type="curve" smooth="yes"/>
      <point x="699" y="125"/>
      <point x="645" y="88"/>
      <point x="568" y="88" type="curve" smooth="yes"/>
      <point x="540" y="88"/>
      <point x="512" y="90"/>
      <point x="484" y="98" type="curve"/>
      <point x="441" y="10" type="line"/>
      <point x="468" y="0"/>
      <point x="513" y="-10"/>
    </contour>
    <contour>
      <point x="403" y="208" type="curve" smooth="yes"/>
      <point x="470" y="208"/>
      <point x="488" y="180"/>
      <point x="488" y="152" type="curve" smooth="yes"/>
      <point x="488" y="130"/>
      <point x="477" y="113"/>
      <point x="458" y="100" type="curve"/>
      <point x="441" y="10" type="line"/>
      <point x="486" y="64" type="line"/>
      <point x="525" y="85"/>
      <point x="548" y="113"/>
      <point x="548" y="156" type="curve" smooth="yes"/>
      <point x="548" y="223"/>
      <point x="493" y="260"/>
      <point x="403" y="260" type="curve" smooth="yes"/>
      <point x="314" y="260"/>
      <point x="259" y="223"/>
      <point x="259" y="156" type="curve" smooth="yes"/>
      <point x="259" y="114"/>
      <point x="284" y="84"/>
      <point x="323" y="63" type="curve"/>
      <point x="366" y="10" type="line"/>
      <point x="349" y="100" type="line"/>
      <point x="329" y="116"/>
      <point x="319" y="131"/>
      <point x="319" y="152" type="curve" smooth="yes"/>
      <point x="319" y="180"/>
      <point x="337" y="208"/>
    </contour>
  </outline>
</glyph>
<glyph name="ngasinh" format="2">
  <advance width="853"/>
  <unicode hex="0D9E"/>
  <outline>
    <contour>
      <point x="599" y="-10" type="curve" smooth="yes"/>
      <point x="717" y="-10"/>
      <point x="809" y="78"/>
      <point x="809" y="345" type="curve" smooth="yes"/>
      <point x="809" y="656"/>
      <point x="651" y="804"/>
      <point x="401" y="804" type="curve" smooth="yes"/>
      <point x="257" y="804"/>
      <point x="159" y="760"/>
      <point x="69" y="699" type="curve"/>
      <point x="103" y="653" type="line"/>
      <point x="196" y="722"/>
      <point x="295" y="752"/>
      <point x="401" y="752" type="curve" smooth="yes"/>
      <point x="631" y="752"/>
      <point x="746" y="607"/>
      <point x="746" y="361" type="curve" smooth="yes"/>
      <point x="746" y="148"/>
      <point x="671" y="95"/>
      <point x="585" y="95" type="curve" smooth="yes"/>
      <point x="511" y="95"/>
      <point x="451" y="131"/>
      <point x="444" y="204" type="curve"/>
      <point x="391" y="204" type="line"/>
      <point x="376" y="147"/>
      <point x="342" y="95"/>
      <point x="233" y="95" type="curve" smooth="yes"/>
      <point x="159" y="95"/>
      <point x="114" y="122"/>
      <point x="114" y="181" type="curve" smooth="yes"/>
      <point x="114" y="257"/>
      <point x="178" y="283"/>
      <point x="267" y="313" type="curve" smooth="yes"/>
      <point x="433" y="369"/>
      <point x="472" y="401"/>
      <point x="472" y="472" type="curve" smooth="yes"/>
      <point x="472" y="537"/>
      <point x="407" y="589"/>
      <point x="274" y="589" type="curve" smooth="yes"/>
      <point x="104" y="589"/>
      <point x="20" y="528"/>
      <point x="20" y="450" type="curve" smooth="yes"/>
      <point x="20" y="377"/>
      <point x="69" y="337"/>
      <point x="137" y="337" type="curve" smooth="yes"/>
      <point x="201" y="337"/>
      <point x="256" y="367"/>
      <point x="256" y="446" type="curve" smooth="yes"/>
      <point x="256" y="501"/>
      <point x="217" y="538"/>
      <point x="163" y="538" type="curve" smooth="yes"/>
      <point x="153" y="538"/>
      <point x="137" y="537"/>
      <point x="129" y="535" type="curve"/>
      <point x="139" y="517" type="line"/>
      <point x="168" y="529"/>
      <point x="208" y="537"/>
      <point x="277" y="537" type="curve" smooth="yes"/>
      <point x="353" y="537"/>
      <point x="412" y="515"/>
      <point x="412" y="467" type="curve" smooth="yes"/>
      <point x="412" y="426"/>
      <point x="383" y="408"/>
      <point x="252" y="363" type="curve" smooth="yes"/>
      <point x="129" y="321"/>
      <point x="52" y="279"/>
      <point x="52" y="164" type="curve" smooth="yes"/>
      <point x="52" y="50"/>
      <point x="120" y="-10"/>
      <point x="235" y="-10" type="curve" smooth="yes"/>
      <point x="335" y="-10"/>
      <point x="394" y="59"/>
      <point x="417" y="129" type="curve"/>
      <point x="446" y="44"/>
      <point x="498" y="-10"/>
    </contour>
    <contour>
      <point x="199" y="449" type="curve" smooth="yes"/>
      <point x="199" y="408"/>
      <point x="176" y="388"/>
      <point x="139" y="388" type="curve" smooth="yes"/>
      <point x="96" y="388"/>
      <point x="77" y="413"/>
      <point x="77" y="449" type="curve" smooth="yes"/>
      <point x="77" y="484"/>
      <point x="103" y="506"/>
      <point x="138" y="506" type="curve" smooth="yes"/>
      <point x="182" y="506"/>
      <point x="199" y="478"/>
    </contour>
  </outline>
</glyph>
<glyph name="casinh" format="2">
  <advance width="792"/>
  <unicode hex="0DA0"/>
  <outline>
    <contour>
      <point x="349" y="-10" type="curve" smooth="yes"/>
      <point x="628" y="-10"/>
      <point x="752" y="173"/>
      <point x="752" y="402" type="curve" smooth="yes"/>
      <point x="752" y="690"/>
      <point x="565" y="804"/>
      <point x="362" y="804" type="curve" smooth="yes"/>
      <point x="227" y="804"/>
      <point x="128" y="761"/>
      <point x="39" y="699" type="curve"/>
      <point x="73" y="653" type="line"/>
      <point x="170" y="726"/>
      <point x="265" y="752"/>
      <point x="367" y="752" type="curve" smooth="yes"/>
      <point x="515" y="752"/>
      <point x="689" y="674"/>
      <point x="689" y="422" type="curve" smooth="yes"/>
      <point x="689" y="259"/>
      <point x="610" y="95"/>
      <point x="344" y="95" type="curve" smooth="yes"/>
      <point x="174" y="95"/>
      <point x="115" y="153"/>
      <point x="115" y="245" type="curve" smooth="yes"/>
      <point x="115" y="320"/>
      <point x="176" y="373"/>
      <point x="282" y="398" type="curve"/>
      <point x="237" y="391" type="line"/>
      <point x="426" y="391" type="line"/>
      <point x="426" y="405" type="line" smooth="yes"/>
      <point x="426" y="516"/>
      <point x="363" y="589"/>
      <point x="250" y="589" type="curve" smooth="yes"/>
      <point x="178" y="589"/>
      <point x="122" y="555"/>
      <point x="122" y="490" type="curve" smooth="yes"/>
      <point x="122" y="482"/>
      <point x="124" y="463"/>
      <point x="128" y="452" type="curve"/>
      <point x="210" y="459" type="line"/>
      <point x="208" y="465"/>
      <point x="207" y="475"/>
      <point x="207" y="481" type="curve" smooth="yes"/>
      <point x="207" y="515"/>
      <point x="227" y="534"/>
      <point x="267" y="534" type="curve" smooth="yes"/>
      <point x="333" y="534"/>
      <point x="360" y="488"/>
      <point x="369" y="442" type="curve"/>
      <point x="20" y="442" type="line"/>
      <point x="20" y="391" type="line"/>
      <point x="55" y="391" type="line" smooth="yes"/>
      <point x="101" y="391"/>
      <point x="171" y="393"/>
      <point x="199" y="397" type="curve"/>
      <point x="219" y="416" type="line"/>
      <point x="122" y="391"/>
      <point x="53" y="313"/>
      <point x="53" y="219" type="curve" smooth="yes"/>
      <point x="53" y="77"/>
      <point x="151" y="-10"/>
    </contour>
  </outline>
</glyph>
<glyph name="chasinh" format="2">
  <advance width="772"/>
  <unicode hex="0DA1"/>
  <outline>
    <contour>
      <point x="385" y="-10" type="curve" smooth="yes"/>
      <point x="612" y="-10"/>
      <point x="731" y="83"/>
      <point x="731" y="239" type="curve" smooth="yes"/>
      <point x="731" y="366"/>
      <point x="647" y="442"/>
      <point x="468" y="442" type="curve" smooth="yes"/>
      <point x="453" y="442" type="line"/>
      <point x="459" y="428" type="line"/>
      <point x="464" y="490"/>
      <point x="497" y="538"/>
      <point x="563" y="538" type="curve" smooth="yes"/>
      <point x="621" y="538"/>
      <point x="650" y="501"/>
      <point x="650" y="433" type="curve" smooth="yes"/>
      <point x="650" y="344"/>
      <point x="610" y="290"/>
      <point x="539" y="290" type="curve" smooth="yes"/>
      <point x="485" y="290"/>
      <point x="458" y="320"/>
      <point x="458" y="403" type="curve"/>
      <point x="447" y="440" type="line"/>
      <point x="480" y="538" type="line"/>
      <point x="531" y="630"/>
      <point x="623" y="685"/>
      <point x="738" y="713" type="curve"/>
      <point x="715" y="787" type="line"/>
      <point x="573" y="748"/>
      <point x="405" y="607"/>
      <point x="405" y="406" type="curve" smooth="yes"/>
      <point x="405" y="286"/>
      <point x="458" y="239"/>
      <point x="534" y="239" type="curve" smooth="yes"/>
      <point x="652" y="239"/>
      <point x="706" y="335"/>
      <point x="706" y="437" type="curve" smooth="yes"/>
      <point x="706" y="522"/>
      <point x="669" y="589"/>
      <point x="579" y="589" type="curve" smooth="yes"/>
      <point x="505" y="589"/>
      <point x="437" y="524"/>
      <point x="437" y="430" type="curve" smooth="yes"/>
      <point x="437" y="391" type="line"/>
      <point x="461" y="391" type="line" smooth="yes"/>
      <point x="590" y="391"/>
      <point x="671" y="360"/>
      <point x="671" y="255" type="curve" smooth="yes"/>
      <point x="671" y="151"/>
      <point x="574" y="95"/>
      <point x="385" y="95" type="curve" smooth="yes"/>
      <point x="199" y="95"/>
      <point x="101" y="150"/>
      <point x="101" y="256" type="curve" smooth="yes"/>
      <point x="101" y="360"/>
      <point x="184" y="391"/>
      <point x="311" y="391" type="curve" smooth="yes"/>
      <point x="373" y="391" type="line"/>
      <point x="373" y="405" type="line" smooth="yes"/>
      <point x="373" y="516"/>
      <point x="310" y="589"/>
      <point x="197" y="589" type="curve" smooth="yes"/>
      <point x="125" y="589"/>
      <point x="69" y="555"/>
      <point x="69" y="490" type="curve" smooth="yes"/>
      <point x="69" y="467"/>
      <point x="75" y="444"/>
      <point x="88" y="426" type="curve"/>
      <point x="160" y="444" type="line"/>
      <point x="156" y="457"/>
      <point x="154" y="470"/>
      <point x="154" y="481" type="curve" smooth="yes"/>
      <point x="154" y="515"/>
      <point x="173" y="534"/>
      <point x="214" y="534" type="curve" smooth="yes"/>
      <point x="280" y="534"/>
      <point x="309" y="487"/>
      <point x="317" y="437" type="curve"/>
      <point x="323" y="442" type="line"/>
      <point x="304" y="442" type="line" smooth="yes"/>
      <point x="121" y="442"/>
      <point x="41" y="368"/>
      <point x="41" y="241" type="curve" smooth="yes"/>
      <point x="41" y="83"/>
      <point x="160" y="-10"/>
    </contour>
  </outline>
</glyph>
<glyph name="jhasinh" format="2">
  <advance width="1420"/>
  <unicode hex="0DA3"/>
  <outline>
    <contour>
      <point x="523" y="-10" type="curve" smooth="yes"/>
      <point x="628" y="-10"/>
      <point x="675" y="68"/>
      <point x="675" y="206" type="curve" smooth="yes"/>
      <point x="675" y="353"/>
      <point x="589" y="442"/>
      <point x="404" y="442" type="curve" smooth="yes"/>
      <point x="354" y="442"/>
      <point x="294" y="431"/>
      <point x="264" y="424" type="curve"/>
      <point x="253" y="384" type="line"/>
      <point x="281" y="388"/>
      <point x="321" y="391"/>
      <point x="394" y="391" type="curve" smooth="yes"/>
      <point x="572" y="391"/>
      <point x="629" y="295"/>
      <point x="629" y="207" type="curve" smooth="yes"/>
      <point x="629" y="130"/>
      <point x="595" y="95"/>
      <point x="523" y="95" type="curve" smooth="yes"/>
      <point x="458" y="95"/>
      <point x="410" y="120"/>
      <point x="406" y="200" type="curve"/>
      <point x="355" y="200" type="line"/>
      <point x="355" y="134"/>
      <point x="320" y="95"/>
      <point x="247" y="95" type="curve" smooth="yes"/>
      <point x="191" y="95"/>
      <point x="156" y="118"/>
      <point x="156" y="187" type="curve" smooth="yes"/>
      <point x="156" y="197"/>
      <point x="157" y="206"/>
      <point x="160" y="214" type="curve"/>
      <point x="90" y="220" type="line"/>
      <point x="72" y="211" type="line"/>
      <point x="60" y="167" type="line"/>
      <point x="135" y="157" type="line"/>
      <point x="110" y="207" type="line"/>
      <point x="105" y="189"/>
      <point x="103" y="176"/>
      <point x="103" y="153" type="curve" smooth="yes"/>
      <point x="103" y="66"/>
      <point x="149" y="-10"/>
      <point x="238" y="-10" type="curve" smooth="yes"/>
      <point x="321" y="-10"/>
      <point x="360" y="42"/>
      <point x="382" y="109" type="curve"/>
      <point x="399" y="31"/>
      <point x="455" y="-10"/>
    </contour>
    <contour>
      <point x="644" y="589" type="curve" smooth="yes"/>
      <point x="444" y="589"/>
      <point x="310" y="504"/>
      <point x="17" y="201" type="curve"/>
      <point x="60" y="167" type="line"/>
      <point x="161" y="277"/>
      <point x="242" y="355"/>
      <point x="315" y="408" type="curve"/>
      <point x="341" y="429" type="line"/>
      <point x="443" y="503"/>
      <point x="531" y="535"/>
      <point x="642" y="535" type="curve" smooth="yes"/>
      <point x="746" y="535"/>
      <point x="824" y="512"/>
      <point x="916" y="467" type="curve"/>
      <point x="993" y="490" type="line"/>
      <point x="888" y="545"/>
      <point x="776" y="589"/>
    </contour>
    <contour>
      <point x="163" y="571" type="curve" smooth="yes"/>
      <point x="90" y="571"/>
      <point x="34" y="530"/>
      <point x="34" y="448" type="curve" smooth="yes"/>
      <point x="34" y="420"/>
      <point x="44" y="387"/>
      <point x="57" y="367" type="curve"/>
      <point x="133" y="386" type="line"/>
      <point x="126" y="401"/>
      <point x="119" y="422"/>
      <point x="119" y="450" type="curve" smooth="yes"/>
      <point x="119" y="478"/>
      <point x="131" y="514"/>
      <point x="173" y="514" type="curve" smooth="yes"/>
      <point x="217" y="514"/>
      <point x="244" y="480"/>
      <point x="267" y="419" type="curve"/>
      <point x="316" y="439" type="line"/>
      <point x="291" y="507"/>
      <point x="244" y="571"/>
    </contour>
    <contour>
      <point x="1165" y="-10" type="curve" smooth="yes"/>
      <point x="1283" y="-10"/>
      <point x="1375" y="78"/>
      <point x="1375" y="345" type="curve" smooth="yes"/>
      <point x="1375" y="656"/>
      <point x="1217" y="804"/>
      <point x="967" y="804" type="curve" smooth="yes"/>
      <point x="823" y="804"/>
      <point x="725" y="760"/>
      <point x="635" y="699" type="curve"/>
      <point x="669" y="653" type="line"/>
      <point x="762" y="722"/>
      <point x="861" y="752"/>
      <point x="967" y="752" type="curve" smooth="yes"/>
      <point x="1197" y="752"/>
      <point x="1312" y="607"/>
      <point x="1312" y="361" type="curve" smooth="yes"/>
      <point x="1312" y="150"/>
      <point x="1237" y="95"/>
      <point x="1151" y="95" type="curve" smooth="yes"/>
      <point x="1077" y="95"/>
      <point x="1017" y="131"/>
      <point x="1010" y="204" type="curve"/>
      <point x="957" y="204" type="line"/>
      <point x="942" y="147"/>
      <point x="908" y="95"/>
      <point x="820" y="95" type="curve" smooth="yes"/>
      <point x="734" y="95"/>
      <point x="684" y="140"/>
      <point x="684" y="245" type="curve" smooth="yes"/>
      <point x="684" y="378"/>
      <point x="760" y="451"/>
      <point x="888" y="451" type="curve" smooth="yes"/>
      <point x="920" y="451"/>
      <point x="950" y="447"/>
      <point x="977" y="442" type="curve"/>
      <point x="993" y="490" type="line"/>
      <point x="967" y="496"/>
      <point x="922" y="498"/>
      <point x="900" y="498" type="curve" smooth="yes"/>
      <point x="740" y="498"/>
      <point x="630" y="419"/>
      <point x="630" y="242" type="curve" smooth="yes"/>
      <point x="630" y="79"/>
      <point x="691" y="-10"/>
      <point x="810" y="-10" type="curve" smooth="yes"/>
      <point x="906" y="-10"/>
      <point x="960" y="59"/>
      <point x="983" y="129" type="curve"/>
      <point x="1012" y="44"/>
      <point x="1064" y="-10"/>
    </contour>
  </outline>
</glyph>
<glyph name="ttasinh" format="2">
  <advance width="783"/>
  <unicode hex="0DA7"/>
  <outline>
    <contour>
      <point x="349" y="-10" type="curve" smooth="yes"/>
      <point x="619" y="-10"/>
      <point x="743" y="171"/>
      <point x="743" y="402" type="curve" smooth="yes"/>
      <point x="743" y="688"/>
      <point x="556" y="804"/>
      <point x="359" y="804" type="curve" smooth="yes"/>
      <point x="229" y="804"/>
      <point x="130" y="761"/>
      <point x="41" y="699" type="curve"/>
      <point x="75" y="653" type="line"/>
      <point x="172" y="726"/>
      <point x="266" y="752"/>
      <point x="363" y="752" type="curve" smooth="yes"/>
      <point x="506" y="752"/>
      <point x="680" y="674"/>
      <point x="680" y="422" type="curve" smooth="yes"/>
      <point x="680" y="259"/>
      <point x="595" y="95"/>
      <point x="349" y="95" type="curve" smooth="yes"/>
      <point x="193" y="95"/>
      <point x="102" y="153"/>
      <point x="102" y="279" type="curve" smooth="yes"/>
      <point x="102" y="384"/>
      <point x="168" y="452"/>
      <point x="307" y="452" type="curve" smooth="yes"/>
      <point x="343" y="452"/>
      <point x="381" y="447"/>
      <point x="412" y="441" type="curve"/>
      <point x="422" y="492" type="line"/>
      <point x="393" y="499"/>
      <point x="352" y="504"/>
      <point x="310" y="504" type="curve" smooth="yes"/>
      <point x="150" y="504"/>
      <point x="41" y="417"/>
      <point x="41" y="266" type="curve" smooth="yes"/>
      <point x="41" y="86"/>
      <point x="155" y="-10"/>
    </contour>
  </outline>
</glyph>
<glyph name="tthasinh" format="2">
  <advance width="837"/>
  <unicode hex="0DA8"/>
  <outline>
    <contour>
      <point x="582" y="-10" type="curve" smooth="yes"/>
      <point x="700" y="-10"/>
      <point x="792" y="81"/>
      <point x="792" y="323" type="curve" smooth="yes"/>
      <point x="792" y="656"/>
      <point x="554" y="790"/>
      <point x="283" y="812" type="curve"/>
      <point x="276" y="756" type="line"/>
      <point x="544" y="743"/>
      <point x="729" y="613"/>
      <point x="729" y="330" type="curve" smooth="yes"/>
      <point x="729" y="163"/>
      <point x="659" y="95"/>
      <point x="568" y="95" type="curve" smooth="yes"/>
      <point x="495" y="95"/>
      <point x="434" y="131"/>
      <point x="427" y="204" type="curve"/>
      <point x="374" y="204" type="line"/>
      <point x="359" y="147"/>
      <point x="325" y="95"/>
      <point x="237" y="95" type="curve" smooth="yes"/>
      <point x="151" y="95"/>
      <point x="101" y="140"/>
      <point x="101" y="247" type="curve" smooth="yes"/>
      <point x="101" y="378"/>
      <point x="174" y="452"/>
      <point x="314" y="452" type="curve" smooth="yes"/>
      <point x="342" y="452"/>
      <point x="366" y="450"/>
      <point x="395" y="444" type="curve"/>
      <point x="405" y="495" type="line"/>
      <point x="385" y="500"/>
      <point x="351" y="504"/>
      <point x="318" y="504" type="curve" smooth="yes"/>
      <point x="156" y="504"/>
      <point x="40" y="410"/>
      <point x="40" y="226" type="curve" smooth="yes"/>
      <point x="40" y="79"/>
      <point x="103" y="-10"/>
      <point x="227" y="-10" type="curve" smooth="yes"/>
      <point x="323" y="-10"/>
      <point x="377" y="59"/>
      <point x="400" y="129" type="curve"/>
      <point x="429" y="44"/>
      <point x="481" y="-10"/>
    </contour>
    <contour>
      <point x="468" y="556" type="curve" smooth="yes"/>
      <point x="550" y="556"/>
      <point x="591" y="615"/>
      <point x="617" y="680" type="curve"/>
      <point x="568" y="709" type="line"/>
      <point x="548" y="648"/>
      <point x="521" y="617"/>
      <point x="475" y="617" type="curve" smooth="yes"/>
      <point x="426" y="617"/>
      <point x="403" y="641"/>
      <point x="388" y="696" type="curve" smooth="yes"/>
      <point x="374" y="745"/>
      <point x="348" y="771"/>
      <point x="299" y="797" type="curve"/>
      <point x="287" y="759" type="line"/>
      <point x="303" y="754"/>
      <point x="320" y="741"/>
      <point x="333" y="690" type="curve" smooth="yes"/>
      <point x="351" y="619"/>
      <point x="381" y="556"/>
    </contour>
  </outline>
</glyph>
<glyph name="ddasinh" format="2">
  <advance width="840"/>
  <unicode hex="0DA9"/>
  <outline>
    <contour>
      <point x="585" y="-10" type="curve" smooth="yes"/>
      <point x="703" y="-10"/>
      <point x="795" y="78"/>
      <point x="795" y="345" type="curve" smooth="yes"/>
      <point x="795" y="656"/>
      <point x="637" y="804"/>
      <point x="387" y="804" type="curve" smooth="yes"/>
      <point x="243" y="804"/>
      <point x="145" y="760"/>
      <point x="55" y="699" type="curve"/>
      <point x="89" y="653" type="line"/>
      <point x="182" y="722"/>
      <point x="281" y="752"/>
      <point x="387" y="752" type="curve" smooth="yes"/>
      <point x="617" y="752"/>
      <point x="732" y="607"/>
      <point x="732" y="361" type="curve" smooth="yes"/>
      <point x="732" y="150"/>
      <point x="657" y="95"/>
      <point x="571" y="95" type="curve" smooth="yes"/>
      <point x="497" y="95"/>
      <point x="437" y="131"/>
      <point x="430" y="204" type="curve"/>
      <point x="377" y="204" type="line"/>
      <point x="362" y="146"/>
      <point x="328" y="95"/>
      <point x="239" y="95" type="curve" smooth="yes"/>
      <point x="155" y="95"/>
      <point x="110" y="134"/>
      <point x="110" y="214" type="curve" smooth="yes"/>
      <point x="110" y="304"/>
      <point x="174" y="378"/>
      <point x="311" y="397" type="curve"/>
      <point x="253" y="391" type="line"/>
      <point x="405" y="391" type="line"/>
      <point x="405" y="405" type="line" smooth="yes"/>
      <point x="405" y="516"/>
      <point x="342" y="589"/>
      <point x="229" y="589" type="curve" smooth="yes"/>
      <point x="157" y="589"/>
      <point x="101" y="555"/>
      <point x="101" y="490" type="curve" smooth="yes"/>
      <point x="101" y="482"/>
      <point x="103" y="463"/>
      <point x="107" y="452" type="curve"/>
      <point x="189" y="459" type="line"/>
      <point x="187" y="465"/>
      <point x="186" y="475"/>
      <point x="186" y="481" type="curve" smooth="yes"/>
      <point x="186" y="515"/>
      <point x="206" y="534"/>
      <point x="246" y="534" type="curve" smooth="yes"/>
      <point x="312" y="534"/>
      <point x="339" y="488"/>
      <point x="348" y="442" type="curve"/>
      <point x="24" y="442" type="line"/>
      <point x="24" y="391" type="line"/>
      <point x="72" y="391" type="line" smooth="yes"/>
      <point x="118" y="391"/>
      <point x="188" y="393"/>
      <point x="216" y="397" type="curve"/>
      <point x="223" y="415" type="line"/>
      <point x="121" y="382"/>
      <point x="48" y="308"/>
      <point x="48" y="187" type="curve" smooth="yes"/>
      <point x="48" y="62"/>
      <point x="118" y="-10"/>
      <point x="223" y="-10" type="curve" smooth="yes"/>
      <point x="323" y="-10"/>
      <point x="380" y="59"/>
      <point x="403" y="129" type="curve"/>
      <point x="432" y="44"/>
      <point x="484" y="-10"/>
    </contour>
  </outline>
</glyph>
<glyph name="ddhasinh" format="2">
  <advance width="840"/>
  <unicode hex="0DAA"/>
  <outline>
    <contour>
      <point x="585" y="-10" type="curve" smooth="yes"/>
      <point x="703" y="-10"/>
      <point x="795" y="81"/>
      <point x="795" y="323" type="curve" smooth="yes"/>
      <point x="795" y="656"/>
      <point x="557" y="790"/>
      <point x="286" y="812" type="curve"/>
      <point x="279" y="756" type="line"/>
      <point x="547" y="743"/>
      <point x="732" y="613"/>
      <point x="732" y="330" type="curve" smooth="yes"/>
      <point x="732" y="161"/>
      <point x="662" y="95"/>
      <point x="571" y="95" type="curve" smooth="yes"/>
      <point x="498" y="95"/>
      <point x="437" y="131"/>
      <point x="430" y="204" type="curve"/>
      <point x="377" y="204" type="line"/>
      <point x="362" y="146"/>
      <point x="328" y="95"/>
      <point x="239" y="95" type="curve" smooth="yes"/>
      <point x="155" y="95"/>
      <point x="110" y="134"/>
      <point x="110" y="214" type="curve" smooth="yes"/>
      <point x="110" y="304"/>
      <point x="174" y="378"/>
      <point x="311" y="397" type="curve"/>
      <point x="253" y="391" type="line"/>
      <point x="405" y="391" type="line"/>
      <point x="405" y="405" type="line" smooth="yes"/>
      <point x="405" y="516"/>
      <point x="342" y="589"/>
      <point x="229" y="589" type="curve" smooth="yes"/>
      <point x="157" y="589"/>
      <point x="101" y="555"/>
      <point x="101" y="490" type="curve" smooth="yes"/>
      <point x="101" y="482"/>
      <point x="103" y="463"/>
      <point x="107" y="452" type="curve"/>
      <point x="189" y="459" type="line"/>
      <point x="187" y="465"/>
      <point x="186" y="475"/>
      <point x="186" y="481" type="curve" smooth="yes"/>
      <point x="186" y="515"/>
      <point x="206" y="534"/>
      <point x="246" y="534" type="curve" smooth="yes"/>
      <point x="312" y="534"/>
      <point x="339" y="488"/>
      <point x="348" y="442" type="curve"/>
      <point x="24" y="442" type="line"/>
      <point x="24" y="391" type="line"/>
      <point x="72" y="391" type="line" smooth="yes"/>
      <point x="118" y="391"/>
      <point x="188" y="393"/>
      <point x="216" y="397" type="curve"/>
      <point x="223" y="415" type="line"/>
      <point x="121" y="382"/>
      <point x="48" y="308"/>
      <point x="48" y="187" type="curve" smooth="yes"/>
      <point x="48" y="62"/>
      <point x="118" y="-10"/>
      <point x="223" y="-10" type="curve" smooth="yes"/>
      <point x="323" y="-10"/>
      <point x="380" y="59"/>
      <point x="403" y="129" type="curve"/>
      <point x="432" y="44"/>
      <point x="484" y="-10"/>
    </contour>
    <contour>
      <point x="471" y="556" type="curve" smooth="yes"/>
      <point x="553" y="556"/>
      <point x="594" y="615"/>
      <point x="620" y="680" type="curve"/>
      <point x="571" y="709" type="line"/>
      <point x="551" y="648"/>
      <point x="524" y="617"/>
      <point x="478" y="617" type="curve" smooth="yes"/>
      <point x="429" y="617"/>
      <point x="406" y="641"/>
      <point x="391" y="696" type="curve" smooth="yes"/>
      <point x="377" y="745"/>
      <point x="351" y="771"/>
      <point x="302" y="797" type="curve"/>
      <point x="290" y="759" type="line"/>
      <point x="306" y="754"/>
      <point x="323" y="741"/>
      <point x="336" y="690" type="curve" smooth="yes"/>
      <point x="354" y="619"/>
      <point x="384" y="556"/>
    </contour>
  </outline>
</glyph>
<glyph name="nnasinh" format="2">
  <advance width="1155"/>
  <unicode hex="0DAB"/>
  <outline>
    <contour>
      <point x="36" y="125" type="line"/>
      <point x="69" y="153" type="line"/>
      <point x="381" y="422"/>
      <point x="510" y="527"/>
      <point x="894" y="800" type="curve"/>
      <point x="848" y="856" type="line"/>
      <point x="606" y="667"/>
      <point x="240" y="366"/>
      <point x="-4" y="161" type="curve"/>
    </contour>
    <contour>
      <point x="363" y="170" type="curve" smooth="yes"/>
      <point x="473" y="170"/>
      <point x="526" y="216"/>
      <point x="526" y="285" type="curve" smooth="yes"/>
      <point x="526" y="353"/>
      <point x="482" y="399"/>
      <point x="407" y="399" type="curve" smooth="yes"/>
      <point x="347" y="399"/>
      <point x="290" y="358"/>
      <point x="290" y="294" type="curve" smooth="yes"/>
      <point x="290" y="267"/>
      <point x="301" y="236"/>
      <point x="327" y="219" type="curve"/>
      <point x="330" y="223" type="line"/>
      <point x="203" y="241"/>
      <point x="149" y="308"/>
      <point x="149" y="384" type="curve" smooth="yes"/>
      <point x="149" y="482"/>
      <point x="232" y="537"/>
      <point x="370" y="537" type="curve" smooth="yes"/>
      <point x="529" y="537"/>
      <point x="644" y="446"/>
      <point x="644" y="309" type="curve" smooth="yes"/>
      <point x="644" y="172"/>
      <point x="553" y="89"/>
      <point x="377" y="89" type="curve" smooth="yes"/>
      <point x="256" y="89"/>
      <point x="170" y="119"/>
      <point x="94" y="196" type="curve"/>
      <point x="53" y="165" type="line"/>
      <point x="36" y="125" type="line"/>
      <point x="78" y="131" type="line"/>
      <point x="148" y="59"/>
      <point x="231" y="-10"/>
      <point x="382" y="-10" type="curve" smooth="yes"/>
      <point x="571" y="-10"/>
      <point x="703" y="80"/>
      <point x="703" y="294" type="curve" smooth="yes"/>
      <point x="703" y="467"/>
      <point x="582" y="589"/>
      <point x="365" y="589" type="curve" smooth="yes"/>
      <point x="189" y="589"/>
      <point x="89" y="504"/>
      <point x="89" y="386" type="curve" smooth="yes"/>
      <point x="89" y="268"/>
      <point x="194" y="170"/>
    </contour>
    <contour>
      <point x="347" y="287" type="curve" smooth="yes"/>
      <point x="347" y="327"/>
      <point x="371" y="348"/>
      <point x="407" y="348" type="curve" smooth="yes"/>
      <point x="450" y="348"/>
      <point x="469" y="323"/>
      <point x="469" y="290" type="curve" smooth="yes"/>
      <point x="469" y="254"/>
      <point x="448" y="227"/>
      <point x="407" y="227" type="curve" smooth="yes"/>
      <point x="366" y="227"/>
      <point x="347" y="253"/>
    </contour>
    <contour>
      <point x="644" y="332" type="curve"/>
      <point x="699" y="329" type="line"/>
      <point x="699" y="394"/>
      <point x="713" y="432"/>
      <point x="749" y="432" type="curve" smooth="yes"/>
      <point x="783" y="432"/>
      <point x="804" y="387"/>
      <point x="806" y="308" type="curve"/>
      <point x="858" y="308" type="line"/>
      <point x="858" y="404"/>
      <point x="884" y="454"/>
      <point x="936" y="454" type="curve" smooth="yes"/>
      <point x="995" y="454"/>
      <point x="1021" y="376"/>
      <point x="1021" y="248" type="curve" smooth="yes"/>
      <point x="1021" y="112"/>
      <point x="996" y="40"/>
      <point x="916" y="40" type="curve" smooth="yes"/>
      <point x="862" y="40"/>
      <point x="831" y="65"/>
      <point x="797" y="144" type="curve"/>
      <point x="746" y="122" type="line"/>
      <point x="777" y="38"/>
      <point x="832" y="-10"/>
      <point x="923" y="-10" type="curve" smooth="yes"/>
      <point x="1044" y="-10"/>
      <point x="1113" y="58"/>
      <point x="1113" y="248" type="curve" smooth="yes"/>
      <point x="1113" y="433"/>
      <point x="1041" y="504"/>
      <point x="946" y="504" type="curve" smooth="yes"/>
      <point x="889" y="504"/>
      <point x="853" y="476"/>
      <point x="827" y="434" type="curve"/>
      <point x="808" y="461"/>
      <point x="788" y="484"/>
      <point x="741" y="484" type="curve" smooth="yes"/>
      <point x="678" y="484"/>
      <point x="644" y="419"/>
    </contour>
  </outline>
</glyph>
<glyph name="nnddasinh" format="2">
  <advance width="990"/>
  <unicode hex="0DAC"/>
  <outline>
    <contour>
      <point x="735" y="-10" type="curve" smooth="yes"/>
      <point x="853" y="-10"/>
      <point x="945" y="78"/>
      <point x="945" y="345" type="curve" smooth="yes"/>
      <point x="945" y="656"/>
      <point x="787" y="804"/>
      <point x="537" y="804" type="curve" smooth="yes"/>
      <point x="393" y="804"/>
      <point x="295" y="760"/>
      <point x="205" y="699" type="curve"/>
      <point x="239" y="653" type="line"/>
      <point x="332" y="722"/>
      <point x="431" y="752"/>
      <point x="537" y="752" type="curve" smooth="yes"/>
      <point x="767" y="752"/>
      <point x="882" y="607"/>
      <point x="882" y="361" type="curve" smooth="yes"/>
      <point x="882" y="150"/>
      <point x="807" y="95"/>
      <point x="721" y="95" type="curve" smooth="yes"/>
      <point x="647" y="95"/>
      <point x="587" y="131"/>
      <point x="580" y="204" type="curve"/>
      <point x="527" y="204" type="line"/>
      <point x="512" y="146"/>
      <point x="478" y="95"/>
      <point x="389" y="95" type="curve" smooth="yes"/>
      <point x="305" y="95"/>
      <point x="260" y="134"/>
      <point x="260" y="214" type="curve" smooth="yes"/>
      <point x="260" y="304"/>
      <point x="324" y="378"/>
      <point x="461" y="397" type="curve"/>
      <point x="403" y="391" type="line"/>
      <point x="555" y="391" type="line"/>
      <point x="555" y="405" type="line" smooth="yes"/>
      <point x="555" y="516"/>
      <point x="492" y="589"/>
      <point x="379" y="589" type="curve" smooth="yes"/>
      <point x="310" y="589"/>
      <point x="255" y="551"/>
      <point x="255" y="493" type="curve" smooth="yes"/>
      <point x="255" y="482"/>
      <point x="257" y="463"/>
      <point x="261" y="452" type="curve"/>
      <point x="339" y="459" type="line"/>
      <point x="337" y="465"/>
      <point x="336" y="475"/>
      <point x="336" y="481" type="curve" smooth="yes"/>
      <point x="336" y="515"/>
      <point x="356" y="534"/>
      <point x="396" y="534" type="curve" smooth="yes"/>
      <point x="462" y="534"/>
      <point x="489" y="488"/>
      <point x="498" y="442" type="curve"/>
      <point x="174" y="442" type="line"/>
      <point x="174" y="391" type="line"/>
      <point x="222" y="391" type="line" smooth="yes"/>
      <point x="268" y="391"/>
      <point x="338" y="393"/>
      <point x="366" y="397" type="curve"/>
      <point x="373" y="415" type="line"/>
      <point x="271" y="382"/>
      <point x="198" y="308"/>
      <point x="198" y="187" type="curve" smooth="yes"/>
      <point x="198" y="62"/>
      <point x="268" y="-10"/>
      <point x="373" y="-10" type="curve" smooth="yes"/>
      <point x="473" y="-10"/>
      <point x="530" y="59"/>
      <point x="553" y="129" type="curve"/>
      <point x="582" y="44"/>
      <point x="634" y="-10"/>
    </contour>
    <contour>
      <point x="40" y="329" type="curve" smooth="yes"/>
      <point x="40" y="218"/>
      <point x="86" y="131"/>
      <point x="156" y="64" type="curve"/>
      <point x="194" y="102" type="line"/>
      <point x="137" y="159"/>
      <point x="100" y="230"/>
      <point x="100" y="324" type="curve" smooth="yes"/>
      <point x="100" y="470"/>
      <point x="200" y="540"/>
      <point x="299" y="540" type="curve" smooth="yes"/>
      <point x="307" y="540"/>
      <point x="316" y="539"/>
      <point x="325" y="539" type="curve"/>
      <point x="357" y="584" type="line"/>
      <point x="341" y="587"/>
      <point x="325" y="589"/>
      <point x="309" y="589" type="curve" smooth="yes"/>
      <point x="171" y="589"/>
      <point x="40" y="504"/>
    </contour>
  </outline>
</glyph>
<glyph name="tasinh" format="2">
  <advance width="942"/>
  <unicode hex="0DAD"/>
  <outline>
    <contour>
      <point x="342" y="-10" type="curve" smooth="yes"/>
      <point x="556" y="-10"/>
      <point x="595" y="123"/>
      <point x="595" y="224" type="curve" smooth="yes"/>
      <point x="595" y="282"/>
      <point x="576" y="442"/>
      <point x="352" y="442" type="curve" smooth="yes"/>
      <point x="308" y="442"/>
      <point x="279" y="431"/>
      <point x="253" y="424" type="curve"/>
      <point x="222" y="386" type="line"/>
      <point x="267" y="391"/>
      <point x="329" y="391"/>
      <point x="340" y="391" type="curve" smooth="yes"/>
      <point x="501" y="391"/>
      <point x="539" y="314"/>
      <point x="539" y="237" type="curve" smooth="yes"/>
      <point x="539" y="157"/>
      <point x="482" y="95"/>
      <point x="340" y="95" type="curve" smooth="yes"/>
      <point x="242" y="95"/>
      <point x="151" y="120"/>
      <point x="151" y="199" type="curve" smooth="yes"/>
      <point x="151" y="205"/>
      <point x="152" y="209"/>
      <point x="154" y="219" type="curve"/>
      <point x="85" y="228" type="line"/>
      <point x="61" y="172" type="line"/>
      <point x="130" y="162" type="line"/>
      <point x="107" y="207" type="line"/>
      <point x="102" y="193"/>
      <point x="100" y="179"/>
      <point x="100" y="167" type="curve" smooth="yes"/>
      <point x="100" y="33"/>
      <point x="232" y="-10"/>
    </contour>
    <contour>
      <point x="667" y="-8" type="curve" smooth="yes"/>
      <point x="824" y="-8"/>
      <point x="901" y="112"/>
      <point x="901" y="275" type="curve" smooth="yes"/>
      <point x="901" y="466"/>
      <point x="791" y="589"/>
      <point x="603" y="589" type="curve" smooth="yes"/>
      <point x="409" y="589"/>
      <point x="246" y="428"/>
      <point x="17" y="206" type="curve"/>
      <point x="61" y="172" type="line"/>
      <point x="141" y="256"/>
      <point x="223" y="340"/>
      <point x="322" y="414" type="curve"/>
      <point x="329" y="419"/>
      <point x="334" y="426"/>
      <point x="341" y="430" type="curve"/>
      <point x="418" y="481"/>
      <point x="482" y="504"/>
      <point x="590" y="504" type="curve" smooth="yes"/>
      <point x="760" y="504"/>
      <point x="837" y="392"/>
      <point x="837" y="259" type="curve" smooth="yes"/>
      <point x="837" y="128"/>
      <point x="788" y="44"/>
      <point x="657" y="44" type="curve" smooth="yes"/>
      <point x="631" y="44"/>
      <point x="602" y="50"/>
      <point x="576" y="60" type="curve"/>
      <point x="560" y="11" type="line"/>
      <point x="599" y="-4"/>
      <point x="630" y="-8"/>
    </contour>
    <contour>
      <point x="163" y="571" type="curve" smooth="yes"/>
      <point x="90" y="571"/>
      <point x="34" y="530"/>
      <point x="34" y="448" type="curve" smooth="yes"/>
      <point x="34" y="420"/>
      <point x="44" y="387"/>
      <point x="57" y="367" type="curve"/>
      <point x="133" y="386" type="line"/>
      <point x="126" y="401"/>
      <point x="119" y="422"/>
      <point x="119" y="450" type="curve" smooth="yes"/>
      <point x="119" y="478"/>
      <point x="131" y="514"/>
      <point x="173" y="514" type="curve" smooth="yes"/>
      <point x="217" y="514"/>
      <point x="244" y="480"/>
      <point x="267" y="419" type="curve"/>
      <point x="316" y="439" type="line"/>
      <point x="291" y="507"/>
      <point x="244" y="571"/>
    </contour>
  </outline>
</glyph>
<glyph name="thasinh" format="2">
  <advance width="782"/>
  <unicode hex="0DAE"/>
  <outline>
    <contour>
      <point x="345" y="-10" type="curve" smooth="yes"/>
      <point x="617" y="-10"/>
      <point x="742" y="165"/>
      <point x="742" y="403" type="curve" smooth="yes"/>
      <point x="742" y="676"/>
      <point x="533" y="793"/>
      <point x="277" y="812" type="curve"/>
      <point x="270" y="756" type="line"/>
      <point x="483" y="746"/>
      <point x="679" y="671"/>
      <point x="679" y="408" type="curve" smooth="yes"/>
      <point x="679" y="255"/>
      <point x="600" y="95"/>
      <point x="347" y="95" type="curve" smooth="yes"/>
      <point x="197" y="95"/>
      <point x="101" y="153"/>
      <point x="101" y="279" type="curve" smooth="yes"/>
      <point x="101" y="384"/>
      <point x="167" y="452"/>
      <point x="306" y="452" type="curve" smooth="yes"/>
      <point x="342" y="452"/>
      <point x="380" y="447"/>
      <point x="411" y="441" type="curve"/>
      <point x="421" y="492" type="line"/>
      <point x="392" y="499"/>
      <point x="351" y="504"/>
      <point x="309" y="504" type="curve" smooth="yes"/>
      <point x="149" y="504"/>
      <point x="40" y="417"/>
      <point x="40" y="266" type="curve" smooth="yes"/>
      <point x="40" y="86"/>
      <point x="160" y="-10"/>
    </contour>
    <contour>
      <point x="462" y="556" type="curve" smooth="yes"/>
      <point x="544" y="556"/>
      <point x="585" y="615"/>
      <point x="611" y="680" type="curve"/>
      <point x="562" y="709" type="line"/>
      <point x="542" y="648"/>
      <point x="515" y="617"/>
      <point x="469" y="617" type="curve" smooth="yes"/>
      <point x="420" y="617"/>
      <point x="397" y="641"/>
      <point x="382" y="696" type="curve" smooth="yes"/>
      <point x="368" y="745"/>
      <point x="342" y="771"/>
      <point x="293" y="797" type="curve"/>
      <point x="281" y="759" type="line"/>
      <point x="297" y="754"/>
      <point x="314" y="741"/>
      <point x="327" y="690" type="curve" smooth="yes"/>
      <point x="345" y="619"/>
      <point x="375" y="556"/>
    </contour>
  </outline>
</glyph>
<glyph name="dasinh" format="2">
  <advance width="532"/>
  <unicode hex="0DAF"/>
  <outline>
    <contour>
      <point x="322" y="-10" type="curve" smooth="yes"/>
      <point x="391" y="-10"/>
      <point x="478" y="8"/>
      <point x="531" y="38" type="curve"/>
      <point x="511" y="90" type="line"/>
      <point x="441" y="57"/>
      <point x="410" y="48"/>
      <point x="341" y="48" type="curve" smooth="yes"/>
      <point x="207" y="48"/>
      <point x="137" y="123"/>
      <point x="137" y="217" type="curve" smooth="yes"/>
      <point x="137" y="344"/>
      <point x="215" y="391"/>
      <point x="373" y="391" type="curve" smooth="yes"/>
      <point x="499" y="391" type="line"/>
      <point x="499" y="405" type="line" smooth="yes"/>
      <point x="499" y="518"/>
      <point x="439" y="589"/>
      <point x="321" y="589" type="curve" smooth="yes"/>
      <point x="249" y="589"/>
      <point x="195" y="555"/>
      <point x="195" y="490" type="curve" smooth="yes"/>
      <point x="195" y="466"/>
      <point x="201" y="453"/>
      <point x="206" y="442" type="curve"/>
      <point x="284" y="452" type="line"/>
      <point x="282" y="458"/>
      <point x="280" y="471"/>
      <point x="280" y="481" type="curve" smooth="yes"/>
      <point x="280" y="506"/>
      <point x="291" y="534"/>
      <point x="336" y="534" type="curve" smooth="yes"/>
      <point x="407" y="534"/>
      <point x="435" y="492"/>
      <point x="443" y="442" type="curve"/>
      <point x="379" y="442" type="line" smooth="yes"/>
      <point x="205" y="442"/>
      <point x="36" y="397"/>
      <point x="36" y="212" type="curve" smooth="yes"/>
      <point x="36" y="80"/>
      <point x="141" y="-10"/>
    </contour>
    <contour>
      <point x="427" y="-284" type="curve" smooth="yes"/>
      <point x="493" y="-284"/>
      <point x="547" y="-259"/>
      <point x="583" y="-230" type="curve"/>
      <point x="557" y="-185" type="line"/>
      <point x="520" y="-214"/>
      <point x="491" y="-228"/>
      <point x="446" y="-228" type="curve" smooth="yes"/>
      <point x="391" y="-228"/>
      <point x="346" y="-198"/>
      <point x="346" y="-133" type="curve" smooth="yes"/>
      <point x="346" y="-76"/>
      <point x="378" y="-32"/>
      <point x="464" y="19" type="curve"/>
      <point x="389" y="10" type="line"/>
      <point x="310" y="-28"/>
      <point x="265" y="-77"/>
      <point x="265" y="-143" type="curve" smooth="yes"/>
      <point x="265" y="-225"/>
      <point x="310" y="-284"/>
    </contour>
  </outline>
</glyph>
<glyph name="dhasinh" format="2">
  <advance width="837"/>
  <unicode hex="0DB0"/>
  <outline>
    <contour>
      <point x="582" y="-10" type="curve" smooth="yes"/>
      <point x="700" y="-10"/>
      <point x="792" y="78"/>
      <point x="792" y="345" type="curve" smooth="yes"/>
      <point x="792" y="656"/>
      <point x="634" y="804"/>
      <point x="384" y="804" type="curve" smooth="yes"/>
      <point x="240" y="804"/>
      <point x="142" y="760"/>
      <point x="52" y="699" type="curve"/>
      <point x="86" y="653" type="line"/>
      <point x="179" y="722"/>
      <point x="278" y="752"/>
      <point x="384" y="752" type="curve" smooth="yes"/>
      <point x="614" y="752"/>
      <point x="729" y="607"/>
      <point x="729" y="361" type="curve" smooth="yes"/>
      <point x="729" y="150"/>
      <point x="654" y="95"/>
      <point x="568" y="95" type="curve" smooth="yes"/>
      <point x="494" y="95"/>
      <point x="434" y="131"/>
      <point x="427" y="204" type="curve"/>
      <point x="374" y="204" type="line"/>
      <point x="359" y="147"/>
      <point x="325" y="95"/>
      <point x="237" y="95" type="curve" smooth="yes"/>
      <point x="151" y="95"/>
      <point x="101" y="140"/>
      <point x="101" y="246" type="curve" smooth="yes"/>
      <point x="101" y="378"/>
      <point x="174" y="452"/>
      <point x="314" y="452" type="curve" smooth="yes"/>
      <point x="342" y="452"/>
      <point x="366" y="450"/>
      <point x="395" y="444" type="curve"/>
      <point x="405" y="495" type="line"/>
      <point x="385" y="500"/>
      <point x="351" y="504"/>
      <point x="318" y="504" type="curve" smooth="yes"/>
      <point x="156" y="504"/>
      <point x="40" y="410"/>
      <point x="40" y="226" type="curve" smooth="yes"/>
      <point x="40" y="79"/>
      <point x="103" y="-10"/>
      <point x="227" y="-10" type="curve" smooth="yes"/>
      <point x="323" y="-10"/>
      <point x="377" y="59"/>
      <point x="400" y="129" type="curve"/>
      <point x="429" y="44"/>
      <point x="481" y="-10"/>
    </contour>
  </outline>
</glyph>
<glyph name="nasinh" format="2">
  <advance width="931"/>
  <unicode hex="0DB1"/>
  <outline>
    <contour>
      <point x="326" y="-10" type="curve" smooth="yes"/>
      <point x="533" y="-10"/>
      <point x="585" y="122"/>
      <point x="585" y="232" type="curve" smooth="yes"/>
      <point x="585" y="367"/>
      <point x="502" y="442"/>
      <point x="353" y="442" type="curve" smooth="yes"/>
      <point x="341" y="442"/>
      <point x="320" y="442"/>
      <point x="311" y="441" type="curve"/>
      <point x="264" y="385" type="line"/>
      <point x="292" y="388"/>
      <point x="313" y="391"/>
      <point x="356" y="391" type="curve" smooth="yes"/>
      <point x="471" y="391"/>
      <point x="529" y="338"/>
      <point x="529" y="253" type="curve" smooth="yes"/>
      <point x="529" y="153"/>
      <point x="452" y="95"/>
      <point x="326" y="95" type="curve" smooth="yes"/>
      <point x="162" y="95"/>
      <point x="92" y="181"/>
      <point x="92" y="281" type="curve" smooth="yes"/>
      <point x="92" y="290"/>
      <point x="93" y="297"/>
      <point x="94" y="303" type="curve"/>
      <point x="43" y="307" type="line"/>
      <point x="42" y="300"/>
      <point x="41" y="293"/>
      <point x="41" y="284" type="curve" smooth="yes"/>
      <point x="41" y="114"/>
      <point x="137" y="-10"/>
    </contour>
    <contour>
      <point x="655" y="-8" type="curve" smooth="yes"/>
      <point x="809" y="-8"/>
      <point x="890" y="98"/>
      <point x="890" y="281" type="curve" smooth="yes"/>
      <point x="890" y="449"/>
      <point x="784" y="589"/>
      <point x="598" y="589" type="curve" smooth="yes"/>
      <point x="444" y="589"/>
      <point x="357" y="497"/>
      <point x="278" y="405" type="curve" smooth="yes"/>
      <point x="192" y="304"/>
      <point x="157" y="290"/>
      <point x="103" y="290" type="curve" smooth="yes"/>
      <point x="87" y="290"/>
      <point x="68" y="294"/>
      <point x="55" y="302" type="curve"/>
      <point x="46" y="257" type="line"/>
      <point x="58" y="246"/>
      <point x="76" y="236"/>
      <point x="109" y="236" type="curve" smooth="yes"/>
      <point x="174" y="236"/>
      <point x="229" y="261"/>
      <point x="310" y="361" type="curve" smooth="yes"/>
      <point x="327" y="381"/>
      <point x="342" y="400"/>
      <point x="359" y="416" type="curve"/>
      <point x="372" y="432" type="line"/>
      <point x="433" y="484"/>
      <point x="483" y="504"/>
      <point x="580" y="504" type="curve" smooth="yes"/>
      <point x="722" y="504"/>
      <point x="826" y="420"/>
      <point x="826" y="256" type="curve" smooth="yes"/>
      <point x="826" y="128"/>
      <point x="764" y="44"/>
      <point x="662" y="44" type="curve" smooth="yes"/>
      <point x="611" y="44"/>
      <point x="583" y="48"/>
      <point x="547" y="62" type="curve"/>
      <point x="534" y="11" type="line"/>
      <point x="558" y="0"/>
      <point x="600" y="-8"/>
    </contour>
    <contour>
      <point x="194" y="571" type="curve" smooth="yes"/>
      <point x="121" y="571"/>
      <point x="65" y="530"/>
      <point x="65" y="448" type="curve" smooth="yes"/>
      <point x="65" y="420"/>
      <point x="75" y="387"/>
      <point x="88" y="367" type="curve"/>
      <point x="165" y="387" type="line"/>
      <point x="156" y="403"/>
      <point x="150" y="424"/>
      <point x="150" y="450" type="curve" smooth="yes"/>
      <point x="150" y="478"/>
      <point x="162" y="514"/>
      <point x="204" y="514" type="curve" smooth="yes"/>
      <point x="248" y="514"/>
      <point x="275" y="480"/>
      <point x="298" y="419" type="curve"/>
      <point x="347" y="439" type="line"/>
      <point x="330" y="508"/>
      <point x="275" y="571"/>
    </contour>
  </outline>
</glyph>
<glyph name="ndasinh" format="2">
  <advance width="654"/>
  <unicode hex="0DB3"/>
  <outline>
    <contour>
      <point x="445" y="-10" type="curve" smooth="yes"/>
      <point x="517" y="-10"/>
      <point x="601" y="6"/>
      <point x="654" y="36" type="curve"/>
      <point x="634" y="88" type="line"/>
      <point x="564" y="55"/>
      <point x="533" y="48"/>
      <point x="468" y="48" type="curve" smooth="yes"/>
      <point x="341" y="48"/>
      <point x="270" y="123"/>
      <point x="270" y="217" type="curve" smooth="yes"/>
      <point x="270" y="344"/>
      <point x="347" y="391"/>
      <point x="510" y="391" type="curve" smooth="yes"/>
      <point x="621" y="391" type="line"/>
      <point x="621" y="405" type="line" smooth="yes"/>
      <point x="621" y="518"/>
      <point x="561" y="589"/>
      <point x="443" y="589" type="curve" smooth="yes"/>
      <point x="371" y="589"/>
      <point x="317" y="550"/>
      <point x="317" y="490" type="curve" smooth="yes"/>
      <point x="317" y="466"/>
      <point x="323" y="453"/>
      <point x="328" y="442" type="curve"/>
      <point x="406" y="452" type="line"/>
      <point x="404" y="458"/>
      <point x="402" y="471"/>
      <point x="402" y="481" type="curve" smooth="yes"/>
      <point x="402" y="506"/>
      <point x="413" y="534"/>
      <point x="458" y="534" type="curve" smooth="yes"/>
      <point x="529" y="534"/>
      <point x="557" y="492"/>
      <point x="565" y="442" type="curve"/>
      <point x="516" y="442" type="line" smooth="yes"/>
      <point x="341" y="442"/>
      <point x="172" y="397"/>
      <point x="172" y="212" type="curve" smooth="yes"/>
      <point x="172" y="80"/>
      <point x="281" y="-10"/>
    </contour>
    <contour>
      <point x="549" y="-284" type="curve" smooth="yes"/>
      <point x="615" y="-284"/>
      <point x="669" y="-259"/>
      <point x="705" y="-230" type="curve"/>
      <point x="679" y="-185" type="line"/>
      <point x="642" y="-214"/>
      <point x="613" y="-228"/>
      <point x="568" y="-228" type="curve" smooth="yes"/>
      <point x="513" y="-228"/>
      <point x="468" y="-198"/>
      <point x="468" y="-133" type="curve" smooth="yes"/>
      <point x="468" y="-76"/>
      <point x="500" y="-32"/>
      <point x="586" y="19" type="curve"/>
      <point x="511" y="10" type="line"/>
      <point x="432" y="-28"/>
      <point x="387" y="-77"/>
      <point x="387" y="-143" type="curve" smooth="yes"/>
      <point x="387" y="-225"/>
      <point x="432" y="-284"/>
    </contour>
    <contour>
      <point x="40" y="329" type="curve" smooth="yes"/>
      <point x="40" y="224"/>
      <point x="82" y="140"/>
      <point x="149" y="72" type="curve"/>
      <point x="188" y="108" type="line"/>
      <point x="134" y="164"/>
      <point x="100" y="233"/>
      <point x="100" y="324" type="curve" smooth="yes"/>
      <point x="100" y="470"/>
      <point x="196" y="538"/>
      <point x="309" y="538" type="curve" smooth="yes"/>
      <point x="322" y="538"/>
      <point x="340" y="536"/>
      <point x="355" y="534" type="curve"/>
      <point x="404" y="581" type="line"/>
      <point x="376" y="587"/>
      <point x="346" y="589"/>
      <point x="309" y="589" type="curve" smooth="yes"/>
      <point x="171" y="589"/>
      <point x="40" y="504"/>
    </contour>
  </outline>
</glyph>
<glyph name="pasinh" format="2">
  <advance width="772"/>
  <unicode hex="0DB4"/>
  <outline>
    <contour>
      <point x="645" y="427" type="curve"/>
      <point x="696" y="414" type="line"/>
      <point x="701" y="432"/>
      <point x="703" y="451"/>
      <point x="703" y="468" type="curve" smooth="yes"/>
      <point x="703" y="538"/>
      <point x="664" y="589"/>
      <point x="574" y="589" type="curve" smooth="yes"/>
      <point x="475" y="589"/>
      <point x="405" y="514"/>
      <point x="405" y="396" type="curve" smooth="yes"/>
      <point x="405" y="391" type="line"/>
      <point x="461" y="391" type="line" smooth="yes"/>
      <point x="590" y="391"/>
      <point x="671" y="360"/>
      <point x="671" y="255" type="curve" smooth="yes"/>
      <point x="671" y="151"/>
      <point x="574" y="95"/>
      <point x="385" y="95" type="curve" smooth="yes"/>
      <point x="199" y="95"/>
      <point x="101" y="150"/>
      <point x="101" y="255" type="curve" smooth="yes"/>
      <point x="101" y="360"/>
      <point x="182" y="391"/>
      <point x="311" y="391" type="curve" smooth="yes"/>
      <point x="373" y="391" type="line"/>
      <point x="373" y="405" type="line" smooth="yes"/>
      <point x="373" y="516"/>
      <point x="310" y="589"/>
      <point x="197" y="589" type="curve" smooth="yes"/>
      <point x="125" y="589"/>
      <point x="69" y="555"/>
      <point x="69" y="490" type="curve" smooth="yes"/>
      <point x="69" y="466"/>
      <point x="76" y="444"/>
      <point x="88" y="426" type="curve"/>
      <point x="160" y="444" type="line"/>
      <point x="156" y="457"/>
      <point x="154" y="470"/>
      <point x="154" y="481" type="curve" smooth="yes"/>
      <point x="154" y="515"/>
      <point x="174" y="534"/>
      <point x="214" y="534" type="curve" smooth="yes"/>
      <point x="280" y="534"/>
      <point x="309" y="487"/>
      <point x="317" y="437" type="curve"/>
      <point x="323" y="442" type="line"/>
      <point x="304" y="442" type="line" smooth="yes"/>
      <point x="121" y="442"/>
      <point x="41" y="368"/>
      <point x="41" y="239" type="curve" smooth="yes"/>
      <point x="41" y="83"/>
      <point x="160" y="-10"/>
      <point x="385" y="-10" type="curve" smooth="yes"/>
      <point x="612" y="-10"/>
      <point x="731" y="83"/>
      <point x="731" y="238" type="curve" smooth="yes"/>
      <point x="731" y="368"/>
      <point x="651" y="442"/>
      <point x="468" y="442" type="curve" smooth="yes"/>
      <point x="454" y="442" type="line"/>
      <point x="462" y="438" type="line"/>
      <point x="474" y="492"/>
      <point x="506" y="529"/>
      <point x="566" y="529" type="curve" smooth="yes"/>
      <point x="617" y="529"/>
      <point x="649" y="506"/>
      <point x="649" y="460" type="curve" smooth="yes"/>
      <point x="649" y="452"/>
      <point x="648" y="439"/>
    </contour>
  </outline>
</glyph>
<glyph name="phasinh" format="2">
  <advance width="792"/>
  <unicode hex="0DB5"/>
  <outline>
    <contour>
      <point x="356" y="-10" type="curve" smooth="yes"/>
      <point x="626" y="-10"/>
      <point x="752" y="165"/>
      <point x="752" y="403" type="curve" smooth="yes"/>
      <point x="752" y="676"/>
      <point x="543" y="793"/>
      <point x="287" y="812" type="curve"/>
      <point x="280" y="756" type="line"/>
      <point x="493" y="746"/>
      <point x="689" y="671"/>
      <point x="689" y="408" type="curve" smooth="yes"/>
      <point x="689" y="255"/>
      <point x="610" y="95"/>
      <point x="348" y="95" type="curve" smooth="yes"/>
      <point x="189" y="95"/>
      <point x="100" y="153"/>
      <point x="100" y="258" type="curve" smooth="yes"/>
      <point x="100" y="300"/>
      <point x="116" y="337"/>
      <point x="157" y="362" type="curve" smooth="yes"/>
      <point x="190" y="381"/>
      <point x="234" y="391"/>
      <point x="326" y="391" type="curve" smooth="yes"/>
      <point x="447" y="391" type="line"/>
      <point x="447" y="405" type="line" smooth="yes"/>
      <point x="447" y="518"/>
      <point x="387" y="589"/>
      <point x="269" y="589" type="curve" smooth="yes"/>
      <point x="197" y="589"/>
      <point x="143" y="555"/>
      <point x="143" y="490" type="curve" smooth="yes"/>
      <point x="143" y="466"/>
      <point x="149" y="453"/>
      <point x="154" y="442" type="curve"/>
      <point x="232" y="452" type="line"/>
      <point x="229" y="463"/>
      <point x="228" y="471"/>
      <point x="228" y="481" type="curve" smooth="yes"/>
      <point x="228" y="515"/>
      <point x="247" y="534"/>
      <point x="284" y="534" type="curve" smooth="yes"/>
      <point x="355" y="534"/>
      <point x="383" y="492"/>
      <point x="391" y="442" type="curve"/>
      <point x="319" y="442" type="line" smooth="yes"/>
      <point x="231" y="442"/>
      <point x="180" y="431"/>
      <point x="139" y="411" type="curve" smooth="yes"/>
      <point x="69" y="376"/>
      <point x="40" y="316"/>
      <point x="40" y="244" type="curve" smooth="yes"/>
      <point x="40" y="86"/>
      <point x="152" y="-10"/>
    </contour>
    <contour>
      <point x="472" y="556" type="curve" smooth="yes"/>
      <point x="554" y="556"/>
      <point x="595" y="615"/>
      <point x="621" y="680" type="curve"/>
      <point x="572" y="709" type="line"/>
      <point x="552" y="648"/>
      <point x="525" y="617"/>
      <point x="479" y="617" type="curve" smooth="yes"/>
      <point x="430" y="617"/>
      <point x="407" y="641"/>
      <point x="392" y="696" type="curve" smooth="yes"/>
      <point x="378" y="745"/>
      <point x="352" y="771"/>
      <point x="303" y="797" type="curve"/>
      <point x="291" y="759" type="line"/>
      <point x="307" y="754"/>
      <point x="324" y="741"/>
      <point x="337" y="690" type="curve" smooth="yes"/>
      <point x="355" y="619"/>
      <point x="385" y="556"/>
    </contour>
  </outline>
</glyph>
<glyph name="basinh" format="2">
  <advance width="841"/>
  <unicode hex="0DB6"/>
  <outline>
    <contour>
      <point x="548" y="-10" type="curve" smooth="yes"/>
      <point x="680" y="-10"/>
      <point x="798" y="104"/>
      <point x="798" y="344" type="curve" smooth="yes"/>
      <point x="798" y="635"/>
      <point x="657" y="804"/>
      <point x="394" y="804" type="curve" smooth="yes"/>
      <point x="238" y="804"/>
      <point x="133" y="759"/>
      <point x="41" y="699" type="curve"/>
      <point x="75" y="653" type="line"/>
      <point x="167" y="718"/>
      <point x="261" y="752"/>
      <point x="393" y="752" type="curve" smooth="yes"/>
      <point x="639" y="752"/>
      <point x="735" y="580"/>
      <point x="735" y="364" type="curve" smooth="yes"/>
      <point x="735" y="172"/>
      <point x="635" y="82"/>
      <point x="547" y="82" type="curve" smooth="yes"/>
      <point x="507" y="82"/>
      <point x="487" y="95"/>
      <point x="487" y="127" type="curve" smooth="yes"/>
      <point x="487" y="190"/>
      <point x="564" y="234"/>
      <point x="564" y="343" type="curve" smooth="yes"/>
      <point x="564" y="456"/>
      <point x="483" y="548"/>
      <point x="326" y="548" type="curve" smooth="yes"/>
      <point x="179" y="548"/>
      <point x="41" y="451"/>
      <point x="41" y="249" type="curve" smooth="yes"/>
      <point x="41" y="95"/>
      <point x="132" y="-10"/>
      <point x="261" y="-10" type="curve" smooth="yes"/>
      <point x="339" y="-10"/>
      <point x="387" y="35"/>
      <point x="387" y="111" type="curve" smooth="yes"/>
      <point x="387" y="180"/>
      <point x="343" y="229"/>
      <point x="260" y="229" type="curve" smooth="yes"/>
      <point x="194" y="229"/>
      <point x="142" y="192"/>
      <point x="142" y="119" type="curve" smooth="yes"/>
      <point x="142" y="96"/>
      <point x="151" y="68"/>
      <point x="169" y="55" type="curve"/>
      <point x="166" y="64" type="line"/>
      <point x="123" y="110"/>
      <point x="101" y="150"/>
      <point x="101" y="233" type="curve" smooth="yes"/>
      <point x="101" y="375"/>
      <point x="188" y="455"/>
      <point x="315" y="455" type="curve" smooth="yes"/>
      <point x="423" y="455"/>
      <point x="492" y="405"/>
      <point x="492" y="309" type="curve" smooth="yes"/>
      <point x="492" y="222"/>
      <point x="420" y="179"/>
      <point x="420" y="100" type="curve" smooth="yes"/>
      <point x="420" y="27"/>
      <point x="469" y="-10"/>
    </contour>
    <contour>
      <point x="260" y="178" type="curve" smooth="yes"/>
      <point x="309" y="178"/>
      <point x="330" y="150"/>
      <point x="330" y="108" type="curve" smooth="yes"/>
      <point x="330" y="68"/>
      <point x="301" y="43"/>
      <point x="261" y="43" type="curve" smooth="yes"/>
      <point x="212" y="43"/>
      <point x="193" y="75"/>
      <point x="193" y="108" type="curve" smooth="yes"/>
      <point x="193" y="154"/>
      <point x="220" y="178"/>
    </contour>
  </outline>
</glyph>
<glyph name="masinh" format="2">
  <advance width="824"/>
  <unicode hex="0DB8"/>
  <outline>
    <contour>
      <point x="396" y="-10" type="curve" smooth="yes"/>
      <point x="668" y="-10"/>
      <point x="784" y="171"/>
      <point x="784" y="401" type="curve" smooth="yes"/>
      <point x="784" y="696"/>
      <point x="597" y="804"/>
      <point x="380" y="804" type="curve" smooth="yes"/>
      <point x="240" y="804"/>
      <point x="134" y="761"/>
      <point x="45" y="699" type="curve"/>
      <point x="79" y="653" type="line"/>
      <point x="177" y="725"/>
      <point x="271" y="752"/>
      <point x="385" y="752" type="curve" smooth="yes"/>
      <point x="548" y="752"/>
      <point x="721" y="672"/>
      <point x="721" y="422" type="curve" smooth="yes"/>
      <point x="721" y="247"/>
      <point x="642" y="95"/>
      <point x="395" y="95" type="curve" smooth="yes"/>
      <point x="243" y="95"/>
      <point x="101" y="152"/>
      <point x="101" y="340" type="curve" smooth="yes"/>
      <point x="101" y="447"/>
      <point x="147" y="501"/>
      <point x="185" y="501" type="curve" smooth="yes"/>
      <point x="209" y="501"/>
      <point x="213" y="488"/>
      <point x="213" y="473" type="curve" smooth="yes"/>
      <point x="213" y="442"/>
      <point x="204" y="423"/>
      <point x="204" y="386" type="curve" smooth="yes"/>
      <point x="204" y="295"/>
      <point x="270" y="228"/>
      <point x="406" y="228" type="curve" smooth="yes"/>
      <point x="516" y="228"/>
      <point x="604" y="287"/>
      <point x="604" y="409" type="curve" smooth="yes"/>
      <point x="604" y="504"/>
      <point x="533" y="571"/>
      <point x="430" y="571" type="curve" smooth="yes"/>
      <point x="340" y="571"/>
      <point x="300" y="521"/>
      <point x="300" y="460" type="curve" smooth="yes"/>
      <point x="300" y="395"/>
      <point x="339" y="352"/>
      <point x="416" y="352" type="curve" smooth="yes"/>
      <point x="481" y="352"/>
      <point x="524" y="387"/>
      <point x="524" y="449" type="curve" smooth="yes"/>
      <point x="524" y="476"/>
      <point x="515" y="504"/>
      <point x="489" y="524" type="curve"/>
      <point x="488" y="521" type="line"/>
      <point x="520" y="502"/>
      <point x="548" y="466"/>
      <point x="548" y="412" type="curve" smooth="yes"/>
      <point x="548" y="334"/>
      <point x="497" y="289"/>
      <point x="403" y="289" type="curve" smooth="yes"/>
      <point x="319" y="289"/>
      <point x="260" y="321"/>
      <point x="260" y="392" type="curve" smooth="yes"/>
      <point x="260" y="435"/>
      <point x="270" y="457"/>
      <point x="270" y="487" type="curve" smooth="yes"/>
      <point x="270" y="517"/>
      <point x="258" y="557"/>
      <point x="190" y="557" type="curve" smooth="yes"/>
      <point x="111" y="557"/>
      <point x="41" y="468"/>
      <point x="41" y="327" type="curve" smooth="yes"/>
      <point x="41" y="104"/>
      <point x="179" y="-10"/>
    </contour>
    <contour>
      <point x="476" y="461" type="curve" smooth="yes"/>
      <point x="476" y="430"/>
      <point x="460" y="403"/>
      <point x="416" y="403" type="curve" smooth="yes"/>
      <point x="375" y="403"/>
      <point x="357" y="425"/>
      <point x="357" y="462" type="curve" smooth="yes"/>
      <point x="357" y="494"/>
      <point x="380" y="518"/>
      <point x="416" y="518" type="curve" smooth="yes"/>
      <point x="458" y="518"/>
      <point x="476" y="492"/>
    </contour>
  </outline>
</glyph>
<glyph name="mbasinh" format="2">
  <advance width="867"/>
  <unicode hex="0DB9"/>
  <outline>
    <contour>
      <point x="282" y="-10" type="curve" smooth="yes"/>
      <point x="311" y="-10"/>
      <point x="341" y="-5"/>
      <point x="367" y="3" type="curve"/>
      <point x="330" y="103" type="line"/>
      <point x="318" y="98"/>
      <point x="291" y="92"/>
      <point x="258" y="92" type="curve" smooth="yes"/>
      <point x="141" y="92"/>
      <point x="105" y="186"/>
      <point x="105" y="277" type="curve" smooth="yes"/>
      <point x="105" y="433"/>
      <point x="173" y="501"/>
      <point x="213" y="501" type="curve" smooth="yes"/>
      <point x="237" y="501"/>
      <point x="241" y="488"/>
      <point x="241" y="473" type="curve" smooth="yes"/>
      <point x="241" y="442"/>
      <point x="232" y="423"/>
      <point x="232" y="386" type="curve" smooth="yes"/>
      <point x="232" y="295"/>
      <point x="298" y="233"/>
      <point x="434" y="233" type="curve" smooth="yes"/>
      <point x="544" y="233"/>
      <point x="632" y="287"/>
      <point x="632" y="409" type="curve" smooth="yes"/>
      <point x="632" y="504"/>
      <point x="561" y="571"/>
      <point x="458" y="571" type="curve" smooth="yes"/>
      <point x="368" y="571"/>
      <point x="328" y="521"/>
      <point x="328" y="460" type="curve" smooth="yes"/>
      <point x="328" y="395"/>
      <point x="367" y="352"/>
      <point x="444" y="352" type="curve" smooth="yes"/>
      <point x="509" y="352"/>
      <point x="552" y="387"/>
      <point x="552" y="449" type="curve" smooth="yes"/>
      <point x="552" y="476"/>
      <point x="543" y="504"/>
      <point x="517" y="524" type="curve"/>
      <point x="516" y="521" type="line"/>
      <point x="548" y="502"/>
      <point x="576" y="466"/>
      <point x="576" y="412" type="curve" smooth="yes"/>
      <point x="576" y="334"/>
      <point x="525" y="289"/>
      <point x="431" y="289" type="curve" smooth="yes"/>
      <point x="347" y="289"/>
      <point x="288" y="321"/>
      <point x="288" y="392" type="curve" smooth="yes"/>
      <point x="288" y="435"/>
      <point x="298" y="457"/>
      <point x="298" y="487" type="curve" smooth="yes"/>
      <point x="298" y="517"/>
      <point x="286" y="557"/>
      <point x="218" y="557" type="curve" smooth="yes"/>
      <point x="137" y="557"/>
      <point x="45" y="453"/>
      <point x="45" y="267" type="curve" smooth="yes"/>
      <point x="45" y="79"/>
      <point x="129" y="-10"/>
    </contour>
    <contour>
      <point x="548" y="-9" type="curve" smooth="yes"/>
      <point x="723" y="-9"/>
      <point x="824" y="95"/>
      <point x="824" y="351" type="curve" smooth="yes"/>
      <point x="824" y="654"/>
      <point x="666" y="804"/>
      <point x="402" y="804" type="curve" smooth="yes"/>
      <point x="240" y="804"/>
      <point x="145" y="758"/>
      <point x="52" y="699" type="curve"/>
      <point x="86" y="653" type="line"/>
      <point x="177" y="718"/>
      <point x="278" y="752"/>
      <point x="402" y="752" type="curve" smooth="yes"/>
      <point x="646" y="752"/>
      <point x="761" y="607"/>
      <point x="761" y="366" type="curve" smooth="yes"/>
      <point x="761" y="155"/>
      <point x="678" y="92"/>
      <point x="551" y="92" type="curve" smooth="yes"/>
      <point x="538" y="92"/>
      <point x="528" y="93"/>
      <point x="506" y="95" type="curve"/>
      <point x="462" y="0" type="line"/>
      <point x="496" y="-7"/>
      <point x="530" y="-9"/>
    </contour>
    <contour>
      <point x="504" y="461" type="curve" smooth="yes"/>
      <point x="504" y="430"/>
      <point x="488" y="403"/>
      <point x="444" y="403" type="curve" smooth="yes"/>
      <point x="403" y="403"/>
      <point x="385" y="425"/>
      <point x="385" y="462" type="curve" smooth="yes"/>
      <point x="385" y="494"/>
      <point x="408" y="518"/>
      <point x="444" y="518" type="curve" smooth="yes"/>
      <point x="486" y="518"/>
      <point x="504" y="492"/>
    </contour>
    <contour>
      <point x="414" y="170" type="curve" smooth="yes"/>
      <point x="481" y="170"/>
      <point x="499" y="142"/>
      <point x="499" y="119" type="curve" smooth="yes"/>
      <point x="499" y="99"/>
      <point x="487" y="90"/>
      <point x="476" y="86" type="curve"/>
      <point x="462" y="0" type="line"/>
      <point x="495" y="25" type="line"/>
      <point x="530" y="49"/>
      <point x="559" y="79"/>
      <point x="559" y="122" type="curve" smooth="yes"/>
      <point x="559" y="185"/>
      <point x="507" y="222"/>
      <point x="414" y="222" type="curve" smooth="yes"/>
      <point x="322" y="222"/>
      <point x="270" y="185"/>
      <point x="270" y="122" type="curve" smooth="yes"/>
      <point x="270" y="79"/>
      <point x="299" y="49"/>
      <point x="334" y="25" type="curve" smooth="yes"/>
      <point x="367" y="3" type="line"/>
      <point x="353" y="86" type="line"/>
      <point x="337" y="92"/>
      <point x="330" y="101"/>
      <point x="330" y="119" type="curve" smooth="yes"/>
      <point x="330" y="142"/>
      <point x="348" y="170"/>
    </contour>
  </outline>
</glyph>
<glyph name="yasinh" format="2">
  <advance width="792"/>
  <unicode hex="0DBA"/>
  <outline>
    <contour>
      <point x="574" y="-10" type="curve" smooth="yes"/>
      <point x="689" y="-10"/>
      <point x="751" y="74"/>
      <point x="751" y="205" type="curve" smooth="yes"/>
      <point x="751" y="375"/>
      <point x="609" y="442"/>
      <point x="453" y="442" type="curve"/>
      <point x="478" y="438" type="line"/>
      <point x="490" y="492"/>
      <point x="522" y="529"/>
      <point x="584" y="529" type="curve" smooth="yes"/>
      <point x="639" y="529"/>
      <point x="671" y="506"/>
      <point x="671" y="460" type="curve" smooth="yes"/>
      <point x="671" y="446"/>
      <point x="668" y="428"/>
      <point x="662" y="413" type="curve"/>
      <point x="713" y="397" type="line"/>
      <point x="719" y="414"/>
      <point x="725" y="437"/>
      <point x="725" y="468" type="curve" smooth="yes"/>
      <point x="725" y="538"/>
      <point x="686" y="589"/>
      <point x="593" y="589" type="curve" smooth="yes"/>
      <point x="494" y="589"/>
      <point x="421" y="519"/>
      <point x="421" y="396" type="curve" smooth="yes"/>
      <point x="421" y="391" type="line"/>
      <point x="434" y="391" type="line" smooth="yes"/>
      <point x="616" y="391"/>
      <point x="691" y="319"/>
      <point x="691" y="219" type="curve" smooth="yes"/>
      <point x="691" y="138"/>
      <point x="643" y="95"/>
      <point x="560" y="95" type="curve" smooth="yes"/>
      <point x="483" y="95"/>
      <point x="430" y="136"/>
      <point x="422" y="204" type="curve"/>
      <point x="369" y="204" type="line"/>
      <point x="354" y="146"/>
      <point x="320" y="95"/>
      <point x="226" y="95" type="curve" smooth="yes"/>
      <point x="147" y="95"/>
      <point x="100" y="142"/>
      <point x="100" y="226" type="curve" smooth="yes"/>
      <point x="100" y="344"/>
      <point x="187" y="394"/>
      <point x="284" y="394" type="curve" smooth="yes"/>
      <point x="301" y="394"/>
      <point x="313" y="394"/>
      <point x="329" y="392" type="curve"/>
      <point x="334" y="443" type="line"/>
      <point x="323" y="445"/>
      <point x="301" y="446"/>
      <point x="286" y="446" type="curve" smooth="yes"/>
      <point x="141" y="446"/>
      <point x="40" y="352"/>
      <point x="40" y="201" type="curve" smooth="yes"/>
      <point x="40" y="58"/>
      <point x="110" y="-10"/>
      <point x="215" y="-10" type="curve" smooth="yes"/>
      <point x="311" y="-10"/>
      <point x="371" y="55"/>
      <point x="395" y="128" type="curve"/>
      <point x="421" y="49"/>
      <point x="473" y="-10"/>
    </contour>
  </outline>
</glyph>
<glyph name="rasinh" format="2">
  <advance width="688"/>
  <unicode hex="0DBB"/>
  <outline>
    <contour>
      <point x="344" y="-10" type="curve" smooth="yes"/>
      <point x="531" y="-10"/>
      <point x="647" y="95"/>
      <point x="647" y="282" type="curve" smooth="yes"/>
      <point x="647" y="444"/>
      <point x="532" y="572"/>
      <point x="344" y="572" type="curve" smooth="yes"/>
      <point x="167" y="572"/>
      <point x="41" y="453"/>
      <point x="41" y="282" type="curve" smooth="yes"/>
      <point x="41" y="102"/>
      <point x="151" y="-10"/>
    </contour>
    <contour>
      <point x="345" y="95" type="curve" smooth="yes"/>
      <point x="219" y="95"/>
      <point x="104" y="148"/>
      <point x="104" y="307" type="curve" smooth="yes"/>
      <point x="104" y="443"/>
      <point x="211" y="522"/>
      <point x="344" y="522" type="curve" smooth="yes"/>
      <point x="470" y="522"/>
      <point x="584" y="448"/>
      <point x="584" y="310" type="curve" smooth="yes"/>
      <point x="584" y="149"/>
      <point x="470" y="95"/>
    </contour>
    <contour>
      <point x="213" y="535" type="curve"/>
      <point x="303" y="536" type="line"/>
      <point x="420" y="609"/>
      <point x="581" y="725"/>
      <point x="664" y="800" type="curve"/>
      <point x="616" y="856" type="line"/>
      <point x="527" y="774"/>
      <point x="372" y="643"/>
    </contour>
  </outline>
</glyph>
<glyph name="lasinh" format="2">
  <advance width="850"/>
  <unicode hex="0DBD"/>
  <outline>
    <contour>
      <point x="453" y="-256" type="curve" smooth="yes"/>
      <point x="700" y="-256"/>
      <point x="829" y="-126"/>
      <point x="829" y="54" type="curve" smooth="yes"/>
      <point x="829" y="80"/>
      <point x="829" y="104"/>
      <point x="826" y="121" type="curve"/>
      <point x="770" y="118" type="line"/>
      <point x="772" y="103"/>
      <point x="773" y="80"/>
      <point x="773" y="69" type="curve" smooth="yes"/>
      <point x="773" y="-90"/>
      <point x="669" y="-180"/>
      <point x="475" y="-180" type="curve" smooth="yes"/>
      <point x="253" y="-180"/>
      <point x="128" y="-48"/>
      <point x="128" y="181" type="curve" smooth="yes"/>
      <point x="128" y="396"/>
      <point x="262" y="555"/>
      <point x="500" y="555" type="curve" smooth="yes"/>
      <point x="691" y="555"/>
      <point x="749" y="473"/>
      <point x="749" y="381" type="curve" smooth="yes"/>
      <point x="749" y="293"/>
      <point x="700" y="246"/>
      <point x="616" y="246" type="curve" smooth="yes"/>
      <point x="543" y="246"/>
      <point x="514" y="272"/>
      <point x="514" y="316" type="curve" smooth="yes"/>
      <point x="514" y="359"/>
      <point x="546" y="391"/>
      <point x="606" y="403" type="curve" smooth="yes"/>
      <point x="528" y="389" type="line"/>
      <point x="670" y="389" type="line"/>
      <point x="670" y="442" type="line"/>
      <point x="351" y="442" type="line"/>
      <point x="351" y="389" type="line"/>
      <point x="423" y="389" type="line" smooth="yes"/>
      <point x="455" y="389"/>
      <point x="490" y="391"/>
      <point x="519" y="395" type="curve"/>
      <point x="523" y="417" type="line"/>
      <point x="481" y="393"/>
      <point x="453" y="355"/>
      <point x="453" y="305" type="curve" smooth="yes"/>
      <point x="453" y="231"/>
      <point x="500" y="174"/>
      <point x="612" y="174" type="curve" smooth="yes"/>
      <point x="748" y="174"/>
      <point x="807" y="268"/>
      <point x="807" y="378" type="curve" smooth="yes"/>
      <point x="807" y="492"/>
      <point x="733" y="607"/>
      <point x="498" y="607" type="curve" smooth="yes"/>
      <point x="202" y="607"/>
      <point x="38" y="404"/>
      <point x="38" y="165" type="curve" smooth="yes"/>
      <point x="38" y="-112"/>
      <point x="207" y="-256"/>
    </contour>
  </outline>
</glyph>
<glyph name="vasinh" format="2">
  <advance width="793"/>
  <unicode hex="0DC0"/>
  <outline>
    <contour>
      <point x="357" y="-10" type="curve" smooth="yes"/>
      <point x="629" y="-10"/>
      <point x="753" y="173"/>
      <point x="753" y="402" type="curve" smooth="yes"/>
      <point x="753" y="689"/>
      <point x="566" y="804"/>
      <point x="363" y="804" type="curve" smooth="yes"/>
      <point x="229" y="804"/>
      <point x="131" y="762"/>
      <point x="42" y="700" type="curve"/>
      <point x="76" y="654" type="line"/>
      <point x="173" y="727"/>
      <point x="267" y="752"/>
      <point x="368" y="752" type="curve" smooth="yes"/>
      <point x="516" y="752"/>
      <point x="690" y="674"/>
      <point x="690" y="422" type="curve" smooth="yes"/>
      <point x="690" y="259"/>
      <point x="611" y="95"/>
      <point x="349" y="95" type="curve" smooth="yes"/>
      <point x="190" y="95"/>
      <point x="101" y="153"/>
      <point x="101" y="258" type="curve" smooth="yes"/>
      <point x="101" y="300"/>
      <point x="117" y="337"/>
      <point x="158" y="362" type="curve" smooth="yes"/>
      <point x="191" y="381"/>
      <point x="235" y="391"/>
      <point x="327" y="391" type="curve" smooth="yes"/>
      <point x="458" y="391" type="line"/>
      <point x="458" y="405" type="line" smooth="yes"/>
      <point x="458" y="518"/>
      <point x="398" y="589"/>
      <point x="280" y="589" type="curve" smooth="yes"/>
      <point x="208" y="589"/>
      <point x="154" y="555"/>
      <point x="154" y="490" type="curve" smooth="yes"/>
      <point x="154" y="466"/>
      <point x="160" y="453"/>
      <point x="165" y="442" type="curve"/>
      <point x="243" y="452" type="line"/>
      <point x="240" y="463"/>
      <point x="239" y="471"/>
      <point x="239" y="481" type="curve" smooth="yes"/>
      <point x="239" y="515"/>
      <point x="258" y="534"/>
      <point x="295" y="534" type="curve" smooth="yes"/>
      <point x="366" y="534"/>
      <point x="394" y="492"/>
      <point x="402" y="442" type="curve"/>
      <point x="320" y="442" type="line" smooth="yes"/>
      <point x="232" y="442"/>
      <point x="181" y="431"/>
      <point x="140" y="411" type="curve" smooth="yes"/>
      <point x="70" y="376"/>
      <point x="41" y="316"/>
      <point x="41" y="244" type="curve" smooth="yes"/>
      <point x="41" y="86"/>
      <point x="153" y="-10"/>
    </contour>
  </outline>
</glyph>
<glyph name="shasinh" format="2">
  <advance width="901"/>
  <unicode hex="0DC1"/>
  <outline>
    <contour>
      <point x="588" y="-6" type="curve" smooth="yes"/>
      <point x="739" y="-6"/>
      <point x="860" y="92"/>
      <point x="860" y="297" type="curve" smooth="yes"/>
      <point x="860" y="456"/>
      <point x="775" y="589"/>
      <point x="619" y="589" type="curve" smooth="yes"/>
      <point x="478" y="589"/>
      <point x="374" y="493"/>
      <point x="344" y="292" type="curve"/>
      <point x="381" y="282" type="line"/>
      <point x="391" y="283"/>
      <point x="399" y="284"/>
      <point x="407" y="284" type="curve" smooth="yes"/>
      <point x="448" y="284"/>
      <point x="483" y="271"/>
      <point x="483" y="210" type="curve" smooth="yes"/>
      <point x="483" y="155"/>
      <point x="444" y="95"/>
      <point x="310" y="95" type="curve" smooth="yes"/>
      <point x="166" y="95"/>
      <point x="102" y="179"/>
      <point x="102" y="299" type="curve" smooth="yes"/>
      <point x="102" y="451"/>
      <point x="197" y="537"/>
      <point x="337" y="537" type="curve" smooth="yes"/>
      <point x="361" y="537"/>
      <point x="380" y="535"/>
      <point x="393" y="533" type="curve"/>
      <point x="397" y="585" type="line"/>
      <point x="382" y="587"/>
      <point x="355" y="589"/>
      <point x="336" y="589" type="curve" smooth="yes"/>
      <point x="170" y="589"/>
      <point x="41" y="487"/>
      <point x="41" y="282" type="curve" smooth="yes"/>
      <point x="41" y="107"/>
      <point x="134" y="-10"/>
      <point x="307" y="-10" type="curve" smooth="yes"/>
      <point x="488" y="-10"/>
      <point x="542" y="101"/>
      <point x="542" y="195" type="curve" smooth="yes"/>
      <point x="542" y="296"/>
      <point x="488" y="334"/>
      <point x="415" y="334" type="curve" smooth="yes"/>
      <point x="397" y="334"/>
      <point x="383" y="332"/>
      <point x="371" y="329" type="curve"/>
      <point x="400" y="317" type="line"/>
      <point x="429" y="435"/>
      <point x="495" y="501"/>
      <point x="602" y="501" type="curve" smooth="yes"/>
      <point x="732" y="501"/>
      <point x="799" y="405"/>
      <point x="799" y="280" type="curve" smooth="yes"/>
      <point x="799" y="149"/>
      <point x="737" y="53"/>
      <point x="598" y="53" type="curve" smooth="yes"/>
      <point x="582" y="53"/>
      <point x="567" y="54"/>
      <point x="554" y="55" type="curve"/>
      <point x="549" y="-4" type="line"/>
      <point x="558" y="-5"/>
      <point x="579" y="-6"/>
    </contour>
    <contour>
      <point x="692" y="308" type="curve" smooth="yes"/>
      <point x="633" y="308"/>
      <point x="581" y="279"/>
      <point x="581" y="207" type="curve" smooth="yes"/>
      <point x="581" y="157"/>
      <point x="600" y="127"/>
      <point x="600" y="88" type="curve" smooth="yes"/>
      <point x="600" y="67"/>
      <point x="593" y="51"/>
      <point x="573" y="40" type="curve"/>
      <point x="631" y="32" type="line"/>
      <point x="652" y="51"/>
      <point x="657" y="79"/>
      <point x="657" y="102" type="curve" smooth="yes"/>
      <point x="657" y="136"/>
      <point x="642" y="170"/>
      <point x="642" y="199" type="curve" smooth="yes"/>
      <point x="642" y="239"/>
      <point x="667" y="256"/>
      <point x="699" y="256" type="curve" smooth="yes"/>
      <point x="745" y="256"/>
      <point x="783" y="230"/>
      <point x="806" y="200" type="curve"/>
      <point x="831" y="251" type="line"/>
      <point x="796" y="280"/>
      <point x="754" y="308"/>
    </contour>
  </outline>
</glyph>
<glyph name="ssasinh" format="2">
  <advance width="772"/>
  <unicode hex="0DC2"/>
  <outline>
    <contour>
      <point x="385" y="-10" type="curve" smooth="yes"/>
      <point x="612" y="-10"/>
      <point x="731" y="83"/>
      <point x="731" y="238" type="curve" smooth="yes"/>
      <point x="731" y="364"/>
      <point x="651" y="442"/>
      <point x="468" y="442" type="curve" smooth="yes"/>
      <point x="454" y="442" type="line"/>
      <point x="462" y="438" type="line"/>
      <point x="474" y="492"/>
      <point x="506" y="529"/>
      <point x="570" y="529" type="curve" smooth="yes"/>
      <point x="617" y="529"/>
      <point x="652" y="506"/>
      <point x="652" y="455" type="curve" smooth="yes"/>
      <point x="652" y="348"/>
      <point x="531" y="341"/>
      <point x="436" y="341" type="curve" smooth="yes"/>
      <point x="330" y="341" type="line" smooth="yes"/>
      <point x="268" y="341"/>
      <point x="198" y="324"/>
      <point x="198" y="251" type="curve" smooth="yes"/>
      <point x="198" y="184"/>
      <point x="255" y="149"/>
      <point x="378" y="149" type="curve" smooth="yes"/>
      <point x="528" y="149"/>
      <point x="571" y="195"/>
      <point x="571" y="251" type="curve" smooth="yes"/>
      <point x="571" y="288"/>
      <point x="547" y="308"/>
      <point x="526" y="316" type="curve"/>
      <point x="476" y="296" type="line"/>
      <point x="498" y="291"/>
      <point x="511" y="276"/>
      <point x="511" y="256" type="curve" smooth="yes"/>
      <point x="511" y="223"/>
      <point x="482" y="200"/>
      <point x="381" y="200" type="curve" smooth="yes"/>
      <point x="282" y="200"/>
      <point x="258" y="219"/>
      <point x="258" y="250" type="curve" smooth="yes"/>
      <point x="258" y="279"/>
      <point x="283" y="289"/>
      <point x="324" y="289" type="curve" smooth="yes"/>
      <point x="440" y="289" type="line" smooth="yes"/>
      <point x="556" y="289"/>
      <point x="710" y="322"/>
      <point x="710" y="461" type="curve" smooth="yes"/>
      <point x="710" y="540"/>
      <point x="665" y="589"/>
      <point x="577" y="589" type="curve" smooth="yes"/>
      <point x="475" y="589"/>
      <point x="405" y="514"/>
      <point x="405" y="396" type="curve" smooth="yes"/>
      <point x="405" y="391" type="line"/>
      <point x="461" y="391" type="line" smooth="yes"/>
      <point x="590" y="391"/>
      <point x="671" y="362"/>
      <point x="671" y="255" type="curve" smooth="yes"/>
      <point x="671" y="151"/>
      <point x="574" y="95"/>
      <point x="385" y="95" type="curve" smooth="yes"/>
      <point x="199" y="95"/>
      <point x="101" y="150"/>
      <point x="101" y="255" type="curve" smooth="yes"/>
      <point x="101" y="360"/>
      <point x="182" y="391"/>
      <point x="311" y="391" type="curve" smooth="yes"/>
      <point x="373" y="391" type="line"/>
      <point x="373" y="405" type="line" smooth="yes"/>
      <point x="373" y="516"/>
      <point x="310" y="589"/>
      <point x="197" y="589" type="curve" smooth="yes"/>
      <point x="125" y="589"/>
      <point x="69" y="555"/>
      <point x="69" y="490" type="curve" smooth="yes"/>
      <point x="69" y="466"/>
      <point x="76" y="444"/>
      <point x="88" y="426" type="curve"/>
      <point x="160" y="444" type="line"/>
      <point x="156" y="457"/>
      <point x="154" y="470"/>
      <point x="154" y="481" type="curve" smooth="yes"/>
      <point x="154" y="515"/>
      <point x="174" y="534"/>
      <point x="214" y="534" type="curve" smooth="yes"/>
      <point x="280" y="534"/>
      <point x="309" y="487"/>
      <point x="317" y="437" type="curve"/>
      <point x="323" y="442" type="line"/>
      <point x="304" y="442" type="line" smooth="yes"/>
      <point x="121" y="442"/>
      <point x="41" y="368"/>
      <point x="41" y="239" type="curve" smooth="yes"/>
      <point x="41" y="83"/>
      <point x="160" y="-10"/>
    </contour>
  </outline>
</glyph>
<glyph name="sasinh" format="2">
  <advance width="800"/>
  <unicode hex="0DC3"/>
  <outline>
    <contour>
      <point x="582" y="-10" type="curve" smooth="yes"/>
      <point x="697" y="-10"/>
      <point x="759" y="74"/>
      <point x="759" y="205" type="curve" smooth="yes"/>
      <point x="759" y="375"/>
      <point x="617" y="442"/>
      <point x="461" y="442" type="curve"/>
      <point x="484" y="438" type="line"/>
      <point x="496" y="492"/>
      <point x="528" y="529"/>
      <point x="588" y="529" type="curve" smooth="yes"/>
      <point x="639" y="529"/>
      <point x="671" y="506"/>
      <point x="671" y="460" type="curve" smooth="yes"/>
      <point x="671" y="446"/>
      <point x="668" y="428"/>
      <point x="662" y="413" type="curve"/>
      <point x="712" y="397" type="line"/>
      <point x="720" y="419"/>
      <point x="725" y="442"/>
      <point x="725" y="468" type="curve" smooth="yes"/>
      <point x="725" y="538"/>
      <point x="686" y="589"/>
      <point x="595" y="589" type="curve" smooth="yes"/>
      <point x="499" y="589"/>
      <point x="427" y="515"/>
      <point x="427" y="397" type="curve" smooth="yes"/>
      <point x="427" y="391" type="line"/>
      <point x="443" y="391" type="line" smooth="yes"/>
      <point x="624" y="391"/>
      <point x="699" y="319"/>
      <point x="699" y="219" type="curve" smooth="yes"/>
      <point x="699" y="137"/>
      <point x="651" y="95"/>
      <point x="568" y="95" type="curve" smooth="yes"/>
      <point x="491" y="95"/>
      <point x="438" y="136"/>
      <point x="430" y="204" type="curve"/>
      <point x="377" y="204" type="line"/>
      <point x="362" y="146"/>
      <point x="328" y="95"/>
      <point x="237" y="95" type="curve" smooth="yes"/>
      <point x="155" y="95"/>
      <point x="110" y="134"/>
      <point x="110" y="214" type="curve" smooth="yes"/>
      <point x="110" y="304"/>
      <point x="174" y="378"/>
      <point x="311" y="397" type="curve"/>
      <point x="253" y="391" type="line"/>
      <point x="395" y="391" type="line"/>
      <point x="395" y="405" type="line" smooth="yes"/>
      <point x="395" y="516"/>
      <point x="332" y="589"/>
      <point x="219" y="589" type="curve" smooth="yes"/>
      <point x="147" y="589"/>
      <point x="91" y="555"/>
      <point x="91" y="490" type="curve" smooth="yes"/>
      <point x="91" y="482"/>
      <point x="93" y="463"/>
      <point x="97" y="452" type="curve"/>
      <point x="179" y="459" type="line"/>
      <point x="177" y="465"/>
      <point x="176" y="475"/>
      <point x="176" y="481" type="curve" smooth="yes"/>
      <point x="176" y="515"/>
      <point x="196" y="534"/>
      <point x="236" y="534" type="curve" smooth="yes"/>
      <point x="302" y="534"/>
      <point x="329" y="488"/>
      <point x="338" y="442" type="curve"/>
      <point x="24" y="442" type="line"/>
      <point x="24" y="391" type="line"/>
      <point x="72" y="391" type="line" smooth="yes"/>
      <point x="118" y="391"/>
      <point x="188" y="393"/>
      <point x="216" y="397" type="curve"/>
      <point x="223" y="415" type="line"/>
      <point x="121" y="382"/>
      <point x="48" y="308"/>
      <point x="48" y="187" type="curve" smooth="yes"/>
      <point x="48" y="62"/>
      <point x="118" y="-10"/>
      <point x="223" y="-10" type="curve" smooth="yes"/>
      <point x="323" y="-10"/>
      <point x="380" y="59"/>
      <point x="403" y="129" type="curve"/>
      <point x="429" y="49"/>
      <point x="481" y="-10"/>
    </contour>
  </outline>
</glyph>
<glyph name="llasinh" format="2">
  <advance width="771"/>
  <unicode hex="0DC5"/>
  <outline>
    <contour>
      <point x="395" y="-256" type="curve" smooth="yes"/>
      <point x="643" y="-256"/>
      <point x="759" y="-124"/>
      <point x="759" y="60" type="curve" smooth="yes"/>
      <point x="759" y="75"/>
      <point x="759" y="88"/>
      <point x="758" y="98" type="curve"/>
      <point x="702" y="95" type="line"/>
      <point x="703" y="86"/>
      <point x="703" y="75"/>
      <point x="703" y="69" type="curve" smooth="yes"/>
      <point x="703" y="-83"/>
      <point x="613" y="-180"/>
      <point x="407" y="-180" type="curve" smooth="yes"/>
      <point x="191" y="-180"/>
      <point x="116" y="-60"/>
      <point x="116" y="83" type="curve" smooth="yes"/>
      <point x="116" y="280"/>
      <point x="238" y="391"/>
      <point x="529" y="391" type="curve" smooth="yes"/>
      <point x="701" y="391" type="line"/>
      <point x="701" y="406" type="line" smooth="yes"/>
      <point x="701" y="516"/>
      <point x="642" y="589"/>
      <point x="548" y="589" type="curve" smooth="yes"/>
      <point x="477" y="589"/>
      <point x="438" y="552"/>
      <point x="422" y="504" type="curve"/>
      <point x="461" y="508" type="line"/>
      <point x="450" y="540"/>
      <point x="416" y="589"/>
      <point x="346" y="589" type="curve" smooth="yes"/>
      <point x="248" y="589"/>
      <point x="183" y="514"/>
      <point x="183" y="371" type="curve" smooth="yes"/>
      <point x="183" y="357"/>
      <point x="185" y="337"/>
      <point x="187" y="320" type="curve"/>
      <point x="199" y="184"/>
      <point x="280" y="86"/>
      <point x="445" y="86" type="curve" smooth="yes"/>
      <point x="591" y="86"/>
      <point x="681" y="153"/>
      <point x="702" y="313" type="curve"/>
      <point x="652" y="320" type="line"/>
      <point x="634" y="206"/>
      <point x="570" y="172"/>
      <point x="445" y="172" type="curve" smooth="yes"/>
      <point x="314" y="172"/>
      <point x="237" y="247"/>
      <point x="237" y="370" type="curve" smooth="yes"/>
      <point x="237" y="377" type="line" smooth="yes"/>
      <point x="237" y="479"/>
      <point x="281" y="534"/>
      <point x="343" y="534" type="curve" smooth="yes"/>
      <point x="388" y="534"/>
      <point x="408" y="506"/>
      <point x="413" y="460" type="curve"/>
      <point x="485" y="460" type="line"/>
      <point x="487" y="506"/>
      <point x="507" y="534"/>
      <point x="553" y="534" type="curve" smooth="yes"/>
      <point x="605" y="534"/>
      <point x="636" y="500"/>
      <point x="644" y="442" type="curve"/>
      <point x="526" y="442" type="line" smooth="yes"/>
      <point x="225" y="442"/>
      <point x="30" y="315"/>
      <point x="30" y="73" type="curve" smooth="yes"/>
      <point x="30" y="-82"/>
      <point x="110" y="-256"/>
    </contour>
  </outline>
</glyph>
<glyph name="fasinh" format="2">
  <advance width="810"/>
  <unicode hex="0DC6"/>
  <outline>
    <contour>
      <point x="524" y="-10" type="curve" smooth="yes"/>
      <point x="679" y="-10"/>
      <point x="765" y="87"/>
      <point x="765" y="291" type="curve" smooth="yes"/>
      <point x="765" y="459"/>
      <point x="690" y="589"/>
      <point x="572" y="589" type="curve" smooth="yes"/>
      <point x="474" y="589"/>
      <point x="428" y="519"/>
      <point x="405" y="436" type="curve"/>
      <point x="388" y="513"/>
      <point x="346" y="589"/>
      <point x="250" y="589" type="curve" smooth="yes"/>
      <point x="121" y="589"/>
      <point x="45" y="453"/>
      <point x="45" y="289" type="curve" smooth="yes"/>
      <point x="45" y="95"/>
      <point x="125" y="-10"/>
      <point x="281" y="-10" type="curve" smooth="yes"/>
      <point x="297" y="-10"/>
      <point x="313" y="-10"/>
      <point x="329" y="-6" type="curve"/>
      <point x="323" y="45" type="line"/>
      <point x="309" y="43"/>
      <point x="293" y="42"/>
      <point x="280" y="42" type="curve" smooth="yes"/>
      <point x="160" y="42"/>
      <point x="108" y="118"/>
      <point x="108" y="271" type="curve" smooth="yes"/>
      <point x="108" y="414"/>
      <point x="175" y="493"/>
      <point x="251" y="493" type="curve" smooth="yes"/>
      <point x="336" y="493"/>
      <point x="371" y="427"/>
      <point x="379" y="346" type="curve"/>
      <point x="432" y="346" type="line"/>
      <point x="440" y="441"/>
      <point x="487" y="493"/>
      <point x="563" y="493" type="curve" smooth="yes"/>
      <point x="646" y="493"/>
      <point x="702" y="410"/>
      <point x="702" y="277" type="curve" smooth="yes"/>
      <point x="702" y="122"/>
      <point x="647" y="42"/>
      <point x="523" y="42" type="curve" smooth="yes"/>
      <point x="516" y="42"/>
      <point x="498" y="42"/>
      <point x="482" y="45" type="curve"/>
      <point x="477" y="-6" type="line"/>
      <point x="489" y="-9"/>
      <point x="509" y="-10"/>
    </contour>
  </outline>
</glyph>
<glyph name="viramasinh" format="2">
  <unicode hex="0DCA"/>
  <outline>
    <contour>
      <point x="-224" y="963" type="curve" smooth="yes"/>
      <point x="-248" y="963"/>
      <point x="-261" y="959"/>
      <point x="-271" y="954" type="curve"/>
      <point x="-263" y="909" type="line"/>
      <point x="-259" y="910"/>
      <point x="-251" y="911"/>
      <point x="-239" y="911" type="curve" smooth="yes"/>
      <point x="-219" y="911"/>
      <point x="-194" y="899"/>
      <point x="-194" y="848" type="curve" smooth="yes"/>
      <point x="-194" y="489" type="line"/>
      <point x="-142" y="489" type="line"/>
      <point x="-142" y="728" type="line" smooth="yes"/>
      <point x="-142" y="758"/>
      <point x="-142" y="789"/>
      <point x="-145" y="819" type="curve"/>
      <point x="-142" y="836" type="line"/>
      <point x="-142" y="901" type="line"/>
      <point x="-153" y="901" type="line"/>
      <point x="-163" y="941"/>
      <point x="-193" y="963"/>
    </contour>
    <contour>
      <point x="-88" y="963" type="curve" smooth="yes"/>
      <point x="-130" y="963"/>
      <point x="-163" y="937"/>
      <point x="-183" y="896" type="curve"/>
      <point x="-145" y="872" type="line"/>
      <point x="-138" y="900"/>
      <point x="-122" y="919"/>
      <point x="-96" y="919" type="curve" smooth="yes"/>
      <point x="-67" y="919"/>
      <point x="-53" y="900"/>
      <point x="-53" y="865" type="curve" smooth="yes"/>
      <point x="-53" y="832"/>
      <point x="-68" y="814"/>
      <point x="-94" y="814" type="curve" smooth="yes"/>
      <point x="-126" y="814"/>
      <point x="-139" y="834"/>
      <point x="-146" y="862" type="curve"/>
      <point x="-164" y="815" type="line"/>
      <point x="-151" y="784"/>
      <point x="-117" y="769"/>
      <point x="-89" y="769" type="curve" smooth="yes"/>
      <point x="-29" y="769"/>
      <point x="-1" y="810"/>
      <point x="-1" y="866" type="curve" smooth="yes"/>
      <point x="-1" y="922"/>
      <point x="-32" y="963"/>
    </contour>
  </outline>
</glyph>
<glyph name="aavowelsignsinh" format="2">
  <advance width="379"/>
  <unicode hex="0DCF"/>
  <outline>
    <contour>
      <point x="337" y="248" type="curve" smooth="yes"/>
      <point x="337" y="432"/>
      <point x="269" y="504"/>
      <point x="160" y="504" type="curve" smooth="yes"/>
      <point x="85" y="504"/>
      <point x="36" y="461"/>
      <point x="0" y="398" type="curve"/>
      <point x="52" y="373" type="line"/>
      <point x="73" y="418"/>
      <point x="101" y="454"/>
      <point x="150" y="454" type="curve" smooth="yes"/>
      <point x="216" y="454"/>
      <point x="249" y="394"/>
      <point x="249" y="248" type="curve" smooth="yes"/>
      <point x="249" y="101"/>
      <point x="216" y="40"/>
      <point x="150" y="40" type="curve" smooth="yes"/>
      <point x="101" y="40"/>
      <point x="75" y="77"/>
      <point x="51" y="125" type="curve"/>
      <point x="0" y="100" type="line"/>
      <point x="33" y="31"/>
      <point x="83" y="-10"/>
      <point x="160" y="-10" type="curve" smooth="yes"/>
      <point x="269" y="-10"/>
      <point x="337" y="62"/>
    </contour>
  </outline>
</glyph>
<glyph name="aevowelsignsinh" format="2">
  <advance width="299"/>
  <unicode hex="0DD0"/>
  <outline>
    <contour>
      <point x="10" y="391" type="line"/>
      <point x="10" y="338" type="line"/>
      <point x="148" y="338" type="line"/>
      <point x="180" y="338"/>
      <point x="205" y="339"/>
      <point x="225" y="341" type="curve"/>
      <point x="228" y="350" type="line"/>
      <point x="72" y="206"/>
      <point x="20" y="108"/>
      <point x="20" y="4" type="curve"/>
      <point x="20" y="-132"/>
      <point x="100" y="-181"/>
      <point x="198" y="-181" type="curve"/>
      <point x="250" y="-181"/>
      <point x="292" y="-167"/>
      <point x="336" y="-139" type="curve"/>
      <point x="313" y="-95" type="line"/>
      <point x="281" y="-116"/>
      <point x="257" y="-125"/>
      <point x="223" y="-125" type="curve"/>
      <point x="151" y="-125"/>
      <point x="107" y="-81"/>
      <point x="107" y="12" type="curve"/>
      <point x="107" y="133"/>
      <point x="170" y="224"/>
      <point x="283" y="337" type="curve"/>
      <point x="254" y="391" type="line"/>
    </contour>
  </outline>
</glyph>
<glyph name="aaevowelsignsinh" format="2">
  <advance width="299"/>
  <unicode hex="0DD1"/>
  <outline>
    <contour>
      <point x="189" y="-181" type="curve" smooth="yes"/>
      <point x="248" y="-181"/>
      <point x="292" y="-167"/>
      <point x="336" y="-139" type="curve"/>
      <point x="313" y="-95" type="line"/>
      <point x="281" y="-116"/>
      <point x="257" y="-125"/>
      <point x="219" y="-125" type="curve" smooth="yes"/>
      <point x="150" y="-125"/>
      <point x="107" y="-86"/>
      <point x="107" y="-22" type="curve" smooth="yes"/>
      <point x="107" y="59"/>
      <point x="151" y="107"/>
      <point x="273" y="185" type="curve"/>
      <point x="250" y="242" type="line"/>
      <point x="200" y="242" type="line" smooth="yes"/>
      <point x="158" y="242"/>
      <point x="111" y="239"/>
      <point x="74" y="234" type="curve"/>
      <point x="75" y="230" type="line"/>
      <point x="149" y="261"/>
      <point x="224" y="298"/>
      <point x="273" y="332" type="curve"/>
      <point x="251" y="391" type="line"/>
      <point x="10" y="391" type="line"/>
      <point x="10" y="338" type="line"/>
      <point x="89" y="338" type="line" smooth="yes"/>
      <point x="146" y="338"/>
      <point x="205" y="340"/>
      <point x="235" y="347" type="curve"/>
      <point x="246" y="359" type="line"/>
      <point x="169" y="327"/>
      <point x="102" y="291"/>
      <point x="29" y="246" type="curve"/>
      <point x="49" y="192" type="line"/>
      <point x="91" y="192" type="line" smooth="yes"/>
      <point x="162" y="192"/>
      <point x="196" y="195"/>
      <point x="230" y="199" type="curve"/>
      <point x="225" y="200" type="line"/>
      <point x="120" y="146"/>
      <point x="20" y="74"/>
      <point x="20" y="-32" type="curve" smooth="yes"/>
      <point x="20" y="-132"/>
      <point x="97" y="-181"/>
    </contour>
  </outline>
</glyph>
<glyph name="ivowelsignsinh" format="2">
  <unicode hex="0DD2"/>
  <outline>
    <contour>
      <point x="-322" y="852" type="curve" smooth="yes"/>
      <point x="-538" y="852"/>
      <point x="-594" y="759"/>
      <point x="-594" y="687" type="curve" smooth="yes"/>
      <point x="-594" y="624"/>
      <point x="-565" y="583"/>
      <point x="-526" y="547" type="curve"/>
      <point x="-488" y="576" type="line"/>
      <point x="-521" y="604"/>
      <point x="-537" y="631"/>
      <point x="-537" y="667" type="curve" smooth="yes"/>
      <point x="-537" y="738"/>
      <point x="-463" y="775"/>
      <point x="-320" y="775" type="curve" smooth="yes"/>
      <point x="-154" y="775"/>
      <point x="-82" y="728"/>
      <point x="-82" y="664" type="curve" smooth="yes"/>
      <point x="-82" y="626"/>
      <point x="-96" y="598"/>
      <point x="-132" y="574" type="curve"/>
      <point x="-88" y="534" type="line"/>
      <point x="-51" y="573"/>
      <point x="-28" y="607"/>
      <point x="-28" y="674" type="curve" smooth="yes"/>
      <point x="-28" y="750"/>
      <point x="-85" y="852"/>
    </contour>
  </outline>
</glyph>
<glyph name="iivowelsignsinh" format="2">
  <unicode hex="0DD3"/>
  <outline>
    <contour>
      <point x="-322" y="852" type="curve" smooth="yes"/>
      <point x="-538" y="852"/>
      <point x="-594" y="759"/>
      <point x="-594" y="687" type="curve" smooth="yes"/>
      <point x="-594" y="624"/>
      <point x="-565" y="583"/>
      <point x="-526" y="547" type="curve"/>
      <point x="-488" y="576" type="line"/>
      <point x="-521" y="604"/>
      <point x="-537" y="631"/>
      <point x="-537" y="666" type="curve" smooth="yes"/>
      <point x="-537" y="742"/>
      <point x="-459" y="780"/>
      <point x="-320" y="780" type="curve" smooth="yes"/>
      <point x="-268" y="780"/>
      <point x="-214" y="775"/>
      <point x="-164" y="762" type="curve"/>
      <point x="-65" y="749" type="line"/>
      <point x="-81" y="760"/>
      <point x="-103" y="770"/>
      <point x="-133" y="770" type="curve" smooth="yes"/>
      <point x="-186" y="770"/>
      <point x="-248" y="739"/>
      <point x="-248" y="664" type="curve" smooth="yes"/>
      <point x="-248" y="594"/>
      <point x="-201" y="559"/>
      <point x="-134" y="559" type="curve" smooth="yes"/>
      <point x="-51" y="559"/>
      <point x="-17" y="607"/>
      <point x="-17" y="670" type="curve" smooth="yes"/>
      <point x="-17" y="753"/>
      <point x="-98" y="852"/>
    </contour>
    <contour>
      <point x="-70" y="669" type="curve" smooth="yes"/>
      <point x="-70" y="633"/>
      <point x="-91" y="607"/>
      <point x="-134" y="607" type="curve" smooth="yes"/>
      <point x="-169" y="607"/>
      <point x="-197" y="627"/>
      <point x="-197" y="667" type="curve" smooth="yes"/>
      <point x="-197" y="706"/>
      <point x="-172" y="729"/>
      <point x="-134" y="729" type="curve" smooth="yes"/>
      <point x="-93" y="729"/>
      <point x="-70" y="704"/>
    </contour>
  </outline>
</glyph>
<glyph name="uvowelsignsinh" format="2">
  <unicode hex="0DD4"/>
  <outline>
    <contour>
      <point x="-621" y="-161" type="curve" smooth="yes"/>
      <point x="-621" y="-243"/>
      <point x="-563" y="-284"/>
      <point x="-429" y="-284" type="curve" smooth="yes"/>
      <point x="-4" y="-284" type="line"/>
      <point x="-4" y="72" type="line"/>
      <point x="-62" y="72" type="line"/>
      <point x="-62" y="-228" type="line"/>
      <point x="-414" y="-228" type="line" smooth="yes"/>
      <point x="-509" y="-228"/>
      <point x="-564" y="-219"/>
      <point x="-564" y="-158" type="curve" smooth="yes"/>
      <point x="-564" y="-122"/>
      <point x="-542" y="-93"/>
      <point x="-490" y="-93" type="curve" smooth="yes"/>
      <point x="-457" y="-93"/>
      <point x="-431" y="-102"/>
      <point x="-412" y="-111" type="curve"/>
      <point x="-393" y="-66" type="line"/>
      <point x="-420" y="-51"/>
      <point x="-453" y="-42"/>
      <point x="-492" y="-42" type="curve" smooth="yes"/>
      <point x="-570" y="-42"/>
      <point x="-621" y="-89"/>
    </contour>
  </outline>
</glyph>
<glyph name="uuvowelsignsinh" format="2">
  <unicode hex="0DD6"/>
  <outline>
    <contour>
      <point x="-621" y="-164" type="curve" smooth="yes"/>
      <point x="-621" y="-234"/>
      <point x="-574" y="-289"/>
      <point x="-486" y="-289" type="curve" smooth="yes"/>
      <point x="-423" y="-289"/>
      <point x="-365" y="-262"/>
      <point x="-320" y="-235" type="curve" smooth="yes"/>
      <point x="-260" y="-200"/>
      <point x="-239" y="-188"/>
      <point x="-202" y="-188" type="curve" smooth="yes"/>
      <point x="-143" y="-188"/>
      <point x="-111" y="-217"/>
      <point x="-49" y="-284" type="curve"/>
      <point x="-4" y="-284" type="line"/>
      <point x="-4" y="72" type="line"/>
      <point x="-62" y="72" type="line"/>
      <point x="-62" y="-127" type="line" smooth="yes"/>
      <point x="-62" y="-166"/>
      <point x="-61" y="-203"/>
      <point x="-58" y="-242" type="curve"/>
      <point x="-40" y="-227" type="line"/>
      <point x="-103" y="-160"/>
      <point x="-144" y="-135"/>
      <point x="-205" y="-135" type="curve" smooth="yes"/>
      <point x="-252" y="-135"/>
      <point x="-289" y="-154"/>
      <point x="-351" y="-190" type="curve" smooth="yes"/>
      <point x="-405" y="-221"/>
      <point x="-433" y="-236"/>
      <point x="-487" y="-236" type="curve" smooth="yes"/>
      <point x="-541" y="-236"/>
      <point x="-564" y="-205"/>
      <point x="-564" y="-165" type="curve" smooth="yes"/>
      <point x="-564" y="-121"/>
      <point x="-542" y="-93"/>
      <point x="-490" y="-93" type="curve" smooth="yes"/>
      <point x="-458" y="-93"/>
      <point x="-432" y="-102"/>
      <point x="-413" y="-111" type="curve"/>
      <point x="-394" y="-66" type="line"/>
      <point x="-421" y="-51"/>
      <point x="-453" y="-42"/>
      <point x="-492" y="-42" type="curve" smooth="yes"/>
      <point x="-570" y="-42"/>
      <point x="-621" y="-89"/>
    </contour>
  </outline>
</glyph>
<glyph name="rvocalicvowelsignsinh" format="2">
  <advance width="409"/>
  <unicode hex="0DD8"/>
  <outline>
    <contour>
      <point x="143" y="-4" type="curve" smooth="yes"/>
      <point x="192" y="-4"/>
      <point x="220" y="6"/>
      <point x="256" y="25" type="curve"/>
      <point x="302" y="0" type="line"/>
      <point x="320" y="56" type="line"/>
      <point x="255" y="85" type="line"/>
      <point x="224" y="62"/>
      <point x="192" y="52"/>
      <point x="158" y="52" type="curve" smooth="yes"/>
      <point x="98" y="52"/>
      <point x="73" y="80"/>
      <point x="73" y="132" type="curve" smooth="yes"/>
      <point x="73" y="210"/>
      <point x="148" y="232"/>
      <point x="233" y="232" type="curve" smooth="yes"/>
      <point x="324" y="232" type="line"/>
      <point x="328" y="283" type="line"/>
      <point x="246" y="283" type="line" smooth="yes"/>
      <point x="103" y="283"/>
      <point x="10" y="239"/>
      <point x="10" y="129" type="curve" smooth="yes"/>
      <point x="10" y="49"/>
      <point x="53" y="-4"/>
    </contour>
    <contour>
      <point x="188" y="504" type="curve" smooth="yes"/>
      <point x="109" y="504"/>
      <point x="60" y="461"/>
      <point x="24" y="398" type="curve"/>
      <point x="76" y="373" type="line"/>
      <point x="97" y="418"/>
      <point x="125" y="454"/>
      <point x="177" y="454" type="curve" smooth="yes"/>
      <point x="264" y="454"/>
      <point x="279" y="369"/>
      <point x="279" y="262" type="curve" smooth="yes"/>
      <point x="279" y="53" type="line"/>
      <point x="284" y="41" type="line"/>
      <point x="302" y="0" type="line"/>
      <point x="359" y="0" type="line"/>
      <point x="359" y="221" type="line" smooth="yes"/>
      <point x="359" y="355"/>
      <point x="345" y="401"/>
      <point x="321" y="437" type="curve" smooth="yes"/>
      <point x="292" y="480"/>
      <point x="248" y="504"/>
    </contour>
  </outline>
</glyph>
<glyph name="evowelsignsinh" format="2">
  <advance width="634"/>
  <unicode hex="0DD9"/>
  <outline>
    <contour>
      <point x="40" y="270" type="curve" smooth="yes"/>
      <point x="40" y="117"/>
      <point x="127" y="-10"/>
      <point x="336" y="-10" type="curve" smooth="yes"/>
      <point x="511" y="-10"/>
      <point x="597" y="84"/>
      <point x="597" y="214" type="curve" smooth="yes"/>
      <point x="597" y="316"/>
      <point x="521" y="398"/>
      <point x="370" y="398" type="curve" smooth="yes"/>
      <point x="268" y="398"/>
      <point x="215" y="350"/>
      <point x="215" y="280" type="curve" smooth="yes"/>
      <point x="215" y="215"/>
      <point x="258" y="170"/>
      <point x="334" y="170" type="curve" smooth="yes"/>
      <point x="405" y="170"/>
      <point x="451" y="206"/>
      <point x="451" y="275" type="curve" smooth="yes"/>
      <point x="451" y="302"/>
      <point x="441" y="333"/>
      <point x="410" y="350" type="curve"/>
      <point x="406" y="346" type="line"/>
      <point x="501" y="334"/>
      <point x="540" y="281"/>
      <point x="540" y="226" type="curve" smooth="yes"/>
      <point x="540" y="156"/>
      <point x="495" y="86"/>
      <point x="333" y="86" type="curve" smooth="yes"/>
      <point x="165" y="86"/>
      <point x="100" y="170"/>
      <point x="100" y="279" type="curve" smooth="yes"/>
      <point x="100" y="417"/>
      <point x="205" y="483"/>
      <point x="346" y="483" type="curve" smooth="yes"/>
      <point x="443" y="483"/>
      <point x="522" y="458"/>
      <point x="582" y="418" type="curve"/>
      <point x="610" y="467" type="line"/>
      <point x="537" y="506"/>
      <point x="466" y="534"/>
      <point x="345" y="534" type="curve" smooth="yes"/>
      <point x="154" y="534"/>
      <point x="40" y="428"/>
    </contour>
    <contour>
      <point x="394" y="282" type="curve" smooth="yes"/>
      <point x="394" y="241"/>
      <point x="371" y="221"/>
      <point x="334" y="221" type="curve" smooth="yes"/>
      <point x="291" y="221"/>
      <point x="272" y="246"/>
      <point x="272" y="282" type="curve" smooth="yes"/>
      <point x="272" y="317"/>
      <point x="298" y="339"/>
      <point x="333" y="339" type="curve" smooth="yes"/>
      <point x="377" y="339"/>
      <point x="394" y="311"/>
    </contour>
  </outline>
</glyph>
<glyph name="uni0DDD" format="2">
  <advance width="1179"/>
  <unicode hex="0DDD"/>
  <outline>
    <contour>
      <point x="956" y="963" type="curve" smooth="yes"/>
      <point x="932" y="963"/>
      <point x="919" y="959"/>
      <point x="909" y="954" type="curve"/>
      <point x="917" y="909" type="line"/>
      <point x="921" y="910"/>
      <point x="929" y="911"/>
      <point x="941" y="911" type="curve" smooth="yes"/>
      <point x="961" y="911"/>
      <point x="986" y="899"/>
      <point x="986" y="848" type="curve" smooth="yes"/>
      <point x="986" y="494" type="line"/>
      <point x="1038" y="482" type="line"/>
      <point x="1038" y="728" type="line" smooth="yes"/>
      <point x="1038" y="758"/>
      <point x="1038" y="789"/>
      <point x="1035" y="819" type="curve"/>
      <point x="1038" y="836" type="line"/>
      <point x="1038" y="901" type="line"/>
      <point x="1027" y="901" type="line"/>
      <point x="1017" y="941"/>
      <point x="987" y="963"/>
    </contour>
    <contour>
      <point x="1092" y="963" type="curve" smooth="yes"/>
      <point x="1050" y="963"/>
      <point x="1017" y="937"/>
      <point x="997" y="896" type="curve"/>
      <point x="1035" y="872" type="line"/>
      <point x="1042" y="900"/>
      <point x="1058" y="919"/>
      <point x="1084" y="919" type="curve" smooth="yes"/>
      <point x="1113" y="919"/>
      <point x="1127" y="900"/>
      <point x="1127" y="865" type="curve" smooth="yes"/>
      <point x="1127" y="832"/>
      <point x="1112" y="814"/>
      <point x="1086" y="814" type="curve" smooth="yes"/>
      <point x="1054" y="814"/>
      <point x="1041" y="834"/>
      <point x="1034" y="862" type="curve"/>
      <point x="1016" y="815" type="line"/>
      <point x="1029" y="784"/>
      <point x="1063" y="769"/>
      <point x="1091" y="769" type="curve" smooth="yes"/>
      <point x="1151" y="769"/>
      <point x="1179" y="810"/>
      <point x="1179" y="866" type="curve" smooth="yes"/>
      <point x="1179" y="922"/>
      <point x="1148" y="963"/>
    </contour>
    <component base="evowelsignsinh"/>
    <component base="period.sinh" xOffset="601" yOffset="187"/>
    <component base="aavowelsignsinh" xOffset="800"/>
  </outline>
</glyph>
<glyph name="lvocalicvowelsignsinh" format="2">
  <advance width="534"/>
  <unicode hex="0DDF"/>
  <outline>
    <contour>
      <point x="315" y="-10" type="curve" smooth="yes"/>
      <point x="424" y="-10"/>
      <point x="492" y="62"/>
      <point x="492" y="248" type="curve" smooth="yes"/>
      <point x="492" y="428"/>
      <point x="422" y="504"/>
      <point x="306" y="504" type="curve" smooth="yes"/>
      <point x="232" y="504"/>
      <point x="189" y="458"/>
      <point x="157" y="392" type="curve"/>
      <point x="216" y="381" type="line"/>
      <point x="235" y="424"/>
      <point x="257" y="454"/>
      <point x="302" y="454" type="curve" smooth="yes"/>
      <point x="367" y="454"/>
      <point x="404" y="391"/>
      <point x="404" y="248" type="curve" smooth="yes"/>
      <point x="404" y="101"/>
      <point x="371" y="40"/>
      <point x="305" y="40" type="curve" smooth="yes"/>
      <point x="256" y="40"/>
      <point x="230" y="77"/>
      <point x="206" y="125" type="curve"/>
      <point x="155" y="100" type="line"/>
      <point x="188" y="31"/>
      <point x="238" y="-10"/>
    </contour>
    <contour>
      <point x="188" y="223" type="curve" smooth="yes"/>
      <point x="280" y="223"/>
      <point x="319" y="270"/>
      <point x="319" y="333" type="curve" smooth="yes"/>
      <point x="319" y="398"/>
      <point x="268" y="418"/>
      <point x="227" y="418" type="curve" smooth="yes"/>
      <point x="208" y="418"/>
      <point x="191" y="416"/>
      <point x="184" y="413" type="curve"/>
      <point x="157" y="392" type="line"/>
      <point x="194" y="371" type="line"/>
      <point x="201" y="373"/>
      <point x="209" y="375"/>
      <point x="218" y="375" type="curve" smooth="yes"/>
      <point x="245" y="375"/>
      <point x="265" y="362"/>
      <point x="265" y="333" type="curve" smooth="yes"/>
      <point x="265" y="291"/>
      <point x="236" y="273"/>
      <point x="190" y="273" type="curve" smooth="yes"/>
      <point x="100" y="273"/>
      <point x="86" y="327"/>
      <point x="86" y="374" type="curve" smooth="yes"/>
      <point x="86" y="435"/>
      <point x="115" y="473"/>
      <point x="145" y="504" type="curve"/>
      <point x="99" y="538" type="line"/>
      <point x="50" y="494"/>
      <point x="24" y="439"/>
      <point x="24" y="378" type="curve" smooth="yes"/>
      <point x="24" y="293"/>
      <point x="70" y="223"/>
    </contour>
  </outline>
</glyph>
